<svg xmlns="http://www.w3.org/2000/svg" xmlns:v="https://svgstorm.com"
viewBox = "0 0 600 600"
width="600"
height="600">
<g fill="None" fill-opacity="0.0" stroke="#000000" stroke-opacity="0.00" stroke-width="0.3"><path d="
M 0.00 600.00 
L 600.00 600.00
L 600.00 0.00
L 0.00 0.00
L 0.00 600.00
M 425.00 103.00 
C 436.07 134.01 410.28 158.84 385.31 173.30 C 360.33 187.77 331.42 194.72 306.75 210.75 C 282.09 226.78 283.61 263.37 263.00 283.00
C 292.28 276.76 290.00 239.75 314.25 225.25 C 338.50 210.74 372.49 208.81 399.22 201.22 C 425.96 193.64 451.34 183.83 472.00 164.00
C 471.65 184.42 458.09 198.52 441.92 209.92 C 425.75 221.32 404.71 224.40 385.93 229.93 C 367.14 235.46 342.80 235.54 328.00 246.00
C 338.86 243.37 350.56 245.59 361.00 248.00
C 351.62 261.10 331.21 256.27 318.00 264.00
C 327.95 267.91 340.87 267.42 351.00 273.00
C 341.01 284.59 319.71 276.02 307.00 283.00
C 315.33 287.17 325.87 287.80 334.00 293.00
C 325.85 300.75 310.61 296.74 301.00 298.00
C 306.01 304.15 318.18 304.44 320.00 313.00
C 303.31 316.96 287.81 308.72 275.00 299.00
C 288.70 317.00 306.55 328.39 315.77 350.23 C 324.99 372.07 335.71 400.09 329.00 425.00
C 312.49 412.19 302.44 396.81 286.25 382.75 C 270.06 368.69 249.73 363.50 231.92 351.08 C 214.11 338.66 201.95 327.20 191.70 306.30 C 181.44 285.41 182.95 255.35 182.07 229.93 C 181.20 204.50 149.50 195.16 128.00 202.00
C 141.51 195.92 152.43 191.17 163.25 180.25 C 174.07 169.33 195.20 170.35 207.23 177.77 C 219.26 185.19 226.40 197.22 232.92 209.08 C 239.44 220.94 247.79 234.95 262.00 238.00
C 260.53 244.55 255.25 249.30 252.00 255.00
C 274.45 242.05 277.24 208.16 302.68 197.68 C 328.12 187.20 354.45 179.74 376.75 163.75 C 399.05 147.75 413.85 126.19 425.00 103.00
M 345.00 199.00 
C 389.88 178.83 439.24 158.78 469.00 116.00
C 472.71 143.09 455.00 167.70 430.77 180.77 C 406.54 193.84 373.18 202.71 345.00 199.00
M 461.00 213.00 
C 449.93 254.97 398.18 264.65 361.00 261.00
C 365.82 257.64 367.90 256.98 372.25 252.25 C 376.60 247.51 370.12 243.15 367.00 241.00
C 399.83 236.95 431.88 228.38 461.00 213.00
M 441.00 258.00 
C 427.85 292.83 382.94 289.97 353.00 285.00
C 359.11 281.81 365.04 274.05 358.00 269.00
C 386.98 271.11 414.93 264.36 441.00 258.00
M 412.00 296.00 
C 394.92 319.53 360.59 312.46 338.00 302.00
C 341.59 299.35 350.08 297.11 347.00 291.00
C 368.20 294.42 390.39 294.27 412.00 296.00
M 385.00 322.00 
C 366.31 341.20 329.23 336.08 309.00 321.00
C 317.34 321.89 334.51 321.64 329.00 309.00
C 348.05 311.77 366.16 318.30 385.00 322.00
M 271.00 405.00 
C 265.90 391.47 260.88 377.14 252.00 365.00
C 267.33 370.75 277.43 389.38 271.00 405.00
M 259.00 387.00 
C 259.03 399.92 247.04 413.29 241.25 423.25 C 235.45 433.20 217.27 448.71 206.75 437.25 C 196.24 425.79 220.23 415.46 229.08 411.08 C 237.93 406.71 252.34 395.49 259.00 387.00
M 308.00 466.00 
C 296.66 446.20 293.74 420.71 292.00 399.00
C 299.93 407.85 304.05 420.20 309.31 430.69 C 314.56 441.19 321.90 458.90 308.00 466.00
M 263.00 403.00 
C 263.89 412.37 260.68 422.87 258.02 432.02 C 255.37 441.17 251.39 448.74 243.77 454.77 C 236.15 460.80 223.22 461.47 233.31 447.31 C 243.39 433.14 252.25 416.55 263.00 403.00
M 284.00 409.00 
C 286.62 417.87 289.98 427.03 291.93 436.07 C 293.87 445.12 297.22 457.65 296.00 467.00 C 294.78 476.35 294.82 487.12 288.08 494.08 C 281.33 501.03 277.85 482.24 279.00 474.00 C 280.15 465.76 279.63 450.35 281.00 441.00 C 282.37 431.65 281.17 417.89 284.00 409.00
M 306.00 411.00 
C 314.37 416.63 315.96 420.27 324.25 427.75 C 332.54 435.24 321.98 447.27 317.22 435.78 C 312.47 424.29 308.65 422.39 306.00 411.00
M 259.00 478.00 
C 250.16 456.55 263.71 434.14 270.00 414.00
C 272.50 415.33 269.43 419.74 272.00 421.00
C 272.27 418.23 274.22 415.93 274.00 413.00
C 275.06 434.37 279.96 464.56 259.00 478.00 Z"/>
</g>
<g fill="None" fill-opacity="0.0" stroke="#7C8228" stroke-opacity="1.00" stroke-width="0.3"><path d="
M 425.00 103.00 
C 413.85 126.19 399.05 147.75 376.75 163.75 C 354.45 179.74 328.12 187.20 302.68 197.68 C 277.24 208.16 274.45 242.05 252.00 255.00
C 255.25 249.30 260.53 244.55 262.00 238.00
C 247.79 234.95 239.44 220.94 232.92 209.08 C 226.40 197.22 219.26 185.19 207.23 177.77 C 195.20 170.35 174.07 169.33 163.25 180.25 C 152.43 191.17 141.51 195.92 128.00 202.00
C 149.50 195.16 181.20 204.50 182.07 229.93 C 182.95 255.35 181.44 285.41 191.70 306.30 C 201.95 327.20 214.11 338.66 231.92 351.08 C 249.73 363.50 270.06 368.69 286.25 382.75 C 302.44 396.81 312.49 412.19 329.00 425.00
C 335.71 400.09 324.99 372.07 315.77 350.23 C 306.55 328.39 288.70 317.00 275.00 299.00
C 287.81 308.72 303.31 316.96 320.00 313.00
C 318.18 304.44 306.01 304.15 301.00 298.00
C 310.61 296.74 325.85 300.75 334.00 293.00
C 325.87 287.80 315.33 287.17 307.00 283.00
C 319.71 276.02 341.01 284.59 351.00 273.00
C 340.87 267.42 327.95 267.91 318.00 264.00
C 331.21 256.27 351.62 261.10 361.00 248.00
C 350.56 245.59 338.86 243.37 328.00 246.00
C 342.80 235.54 367.14 235.46 385.93 229.93 C 404.71 224.40 425.75 221.32 441.92 209.92 C 458.09 198.52 471.65 184.42 472.00 164.00
C 451.34 183.83 425.96 193.64 399.22 201.22 C 372.49 208.81 338.50 210.74 314.25 225.25 C 290.00 239.75 292.28 276.76 263.00 283.00
C 283.61 263.37 282.09 226.78 306.75 210.75 C 331.42 194.72 360.33 187.77 385.31 173.30 C 410.28 158.84 436.07 134.01 425.00 103.00 Z"/>
</g>
<g fill="None" fill-opacity="0.0" stroke="#7C8328" stroke-opacity="1.00" stroke-width="0.3"><path d="
M 345.00 199.00 
C 373.18 202.71 406.54 193.84 430.77 180.77 C 455.00 167.70 472.71 143.09 469.00 116.00
C 439.24 158.78 389.88 178.83 345.00 199.00 Z"/>
</g>
<g fill="None" fill-opacity="0.0" stroke="#7D8328" stroke-opacity="1.00" stroke-width="0.3"><path d="
M 461.00 213.00 
C 431.88 228.38 399.83 236.95 367.00 241.00
C 370.12 243.15 376.60 247.51 372.25 252.25 C 367.90 256.98 365.82 257.64 361.00 261.00
C 398.18 264.65 449.93 254.97 461.00 213.00 Z"/>
</g>
<g fill="None" fill-opacity="0.0" stroke="#7D8329" stroke-opacity="1.00" stroke-width="0.3"><path d="
M 441.00 258.00 
C 414.93 264.36 386.98 271.11 358.00 269.00
C 365.04 274.05 359.11 281.81 353.00 285.00
C 382.94 289.97 427.85 292.83 441.00 258.00 Z"/>
</g>
<g fill="None" fill-opacity="0.0" stroke="#7C8329" stroke-opacity="1.00" stroke-width="0.3"><path d="
M 412.00 296.00 
C 390.39 294.27 368.20 294.42 347.00 291.00
C 350.08 297.11 341.59 299.35 338.00 302.00
C 360.59 312.46 394.92 319.53 412.00 296.00 Z"/>
</g>
<g fill="None" fill-opacity="0.0" stroke="#7C8329" stroke-opacity="1.00" stroke-width="0.3"><path d="
M 385.00 322.00 
C 366.16 318.30 348.05 311.77 329.00 309.00
C 334.51 321.64 317.34 321.89 309.00 321.00
C 329.23 336.08 366.31 341.20 385.00 322.00 Z"/>
</g>
<g fill="None" fill-opacity="0.0" stroke="#7C8329" stroke-opacity="1.00" stroke-width="0.3"><path d="
M 271.00 405.00 
C 277.43 389.38 267.33 370.75 252.00 365.00
C 260.88 377.14 265.90 391.47 271.00 405.00 Z"/>
</g>
<g fill="None" fill-opacity="0.0" stroke="#7C8329" stroke-opacity="1.00" stroke-width="0.3"><path d="
M 259.00 387.00 
C 252.34 395.49 237.93 406.71 229.08 411.08 C 220.23 415.46 196.24 425.79 206.75 437.25 C 217.27 448.71 235.45 433.20 241.25 423.25 C 247.04 413.29 259.03 399.92 259.00 387.00 Z"/>
</g>
<g fill="None" fill-opacity="0.0" stroke="#7C8329" stroke-opacity="1.00" stroke-width="0.3"><path d="
M 308.00 466.00 
C 321.90 458.90 314.56 441.19 309.31 430.69 C 304.05 420.20 299.93 407.85 292.00 399.00
C 293.74 420.71 296.66 446.20 308.00 466.00 Z"/>
</g>
<g fill="None" fill-opacity="0.0" stroke="#7C8329" stroke-opacity="1.00" stroke-width="0.3"><path d="
M 263.00 403.00 
C 252.25 416.55 243.39 433.14 233.31 447.31 C 223.22 461.47 236.15 460.80 243.77 454.77 C 251.39 448.74 255.37 441.17 258.02 432.02 C 260.68 422.87 263.89 412.37 263.00 403.00 Z"/>
</g>
<g fill="None" fill-opacity="0.0" stroke="#7C8329" stroke-opacity="1.00" stroke-width="0.3"><path d="
M 284.00 409.00 
C 281.17 417.89 282.37 431.65 281.00 441.00 C 279.63 450.35 280.15 465.76 279.00 474.00 C 277.85 482.24 281.33 501.03 288.08 494.08 C 294.82 487.12 294.78 476.35 296.00 467.00 C 297.22 457.65 293.87 445.12 291.93 436.07 C 289.98 427.03 286.62 417.87 284.00 409.00 Z"/>
</g>
<g fill="None" fill-opacity="0.0" stroke="#7C8329" stroke-opacity="1.00" stroke-width="0.3"><path d="
M 306.00 411.00 
C 308.65 422.39 312.47 424.29 317.22 435.78 C 321.98 447.27 332.54 435.24 324.25 427.75 C 315.96 420.27 314.37 416.63 306.00 411.00 Z"/>
</g>
<g fill="None" fill-opacity="0.0" stroke="#7C8329" stroke-opacity="1.00" stroke-width="0.3"><path d="
M 259.00 478.00 
C 279.96 464.56 275.06 434.37 274.00 413.00
C 274.22 415.93 272.27 418.23 272.00 421.00
C 269.43 419.74 272.50 415.33 270.00 414.00
C 263.71 434.14 250.16 456.55 259.00 478.00 Z"/>
</g>
<g fill="#000000" fill-opacity="0.00" stroke="None">
<path d="
M 0.00 600.00 
L 600.00 600.00
L 600.00 0.00
L 0.00 0.00
L 0.00 600.00
M 425.00 103.00 
C 436.07 134.01 410.28 158.84 385.31 173.30 C 360.33 187.77 331.42 194.72 306.75 210.75 C 282.09 226.78 283.61 263.37 263.00 283.00
C 292.28 276.76 290.00 239.75 314.25 225.25 C 338.50 210.74 372.49 208.81 399.22 201.22 C 425.96 193.64 451.34 183.83 472.00 164.00
C 471.65 184.42 458.09 198.52 441.92 209.92 C 425.75 221.32 404.71 224.40 385.93 229.93 C 367.14 235.46 342.80 235.54 328.00 246.00
C 338.86 243.37 350.56 245.59 361.00 248.00
C 351.62 261.10 331.21 256.27 318.00 264.00
C 327.95 267.91 340.87 267.42 351.00 273.00
C 341.01 284.59 319.71 276.02 307.00 283.00
C 315.33 287.17 325.87 287.80 334.00 293.00
C 325.85 300.75 310.61 296.74 301.00 298.00
C 306.01 304.15 318.18 304.44 320.00 313.00
C 303.31 316.96 287.81 308.72 275.00 299.00
C 288.70 317.00 306.55 328.39 315.77 350.23 C 324.99 372.07 335.71 400.09 329.00 425.00
C 312.49 412.19 302.44 396.81 286.25 382.75 C 270.06 368.69 249.73 363.50 231.92 351.08 C 214.11 338.66 201.95 327.20 191.70 306.30 C 181.44 285.41 182.95 255.35 182.07 229.93 C 181.20 204.50 149.50 195.16 128.00 202.00
C 141.51 195.92 152.43 191.17 163.25 180.25 C 174.07 169.33 195.20 170.35 207.23 177.77 C 219.26 185.19 226.40 197.22 232.92 209.08 C 239.44 220.94 247.79 234.95 262.00 238.00
C 260.53 244.55 255.25 249.30 252.00 255.00
C 274.45 242.05 277.24 208.16 302.68 197.68 C 328.12 187.20 354.45 179.74 376.75 163.75 C 399.05 147.75 413.85 126.19 425.00 103.00
M 345.00 199.00 
C 389.88 178.83 439.24 158.78 469.00 116.00
C 472.71 143.09 455.00 167.70 430.77 180.77 C 406.54 193.84 373.18 202.71 345.00 199.00
M 461.00 213.00 
C 449.93 254.97 398.18 264.65 361.00 261.00
C 365.82 257.64 367.90 256.98 372.25 252.25 C 376.60 247.51 370.12 243.15 367.00 241.00
C 399.83 236.95 431.88 228.38 461.00 213.00
M 441.00 258.00 
C 427.85 292.83 382.94 289.97 353.00 285.00
C 359.11 281.81 365.04 274.05 358.00 269.00
C 386.98 271.11 414.93 264.36 441.00 258.00
M 412.00 296.00 
C 394.92 319.53 360.59 312.46 338.00 302.00
C 341.59 299.35 350.08 297.11 347.00 291.00
C 368.20 294.42 390.39 294.27 412.00 296.00
M 385.00 322.00 
C 366.31 341.20 329.23 336.08 309.00 321.00
C 317.34 321.89 334.51 321.64 329.00 309.00
C 348.05 311.77 366.16 318.30 385.00 322.00
M 271.00 405.00 
C 265.90 391.47 260.88 377.14 252.00 365.00
C 267.33 370.75 277.43 389.38 271.00 405.00
M 259.00 387.00 
C 259.03 399.92 247.04 413.29 241.25 423.25 C 235.45 433.20 217.27 448.71 206.75 437.25 C 196.24 425.79 220.23 415.46 229.08 411.08 C 237.93 406.71 252.34 395.49 259.00 387.00
M 308.00 466.00 
C 296.66 446.20 293.74 420.71 292.00 399.00
C 299.93 407.85 304.05 420.20 309.31 430.69 C 314.56 441.19 321.90 458.90 308.00 466.00
M 263.00 403.00 
C 263.89 412.37 260.68 422.87 258.02 432.02 C 255.37 441.17 251.39 448.74 243.77 454.77 C 236.15 460.80 223.22 461.47 233.31 447.31 C 243.39 433.14 252.25 416.55 263.00 403.00
M 284.00 409.00 
C 286.62 417.87 289.98 427.03 291.93 436.07 C 293.87 445.12 297.22 457.65 296.00 467.00 C 294.78 476.35 294.82 487.12 288.08 494.08 C 281.33 501.03 277.85 482.24 279.00 474.00 C 280.15 465.76 279.63 450.35 281.00 441.00 C 282.37 431.65 281.17 417.89 284.00 409.00
M 306.00 411.00 
C 314.37 416.63 315.96 420.27 324.25 427.75 C 332.54 435.24 321.98 447.27 317.22 435.78 C 312.47 424.29 308.65 422.39 306.00 411.00
M 259.00 478.00 
C 250.16 456.55 263.71 434.14 270.00 414.00
C 272.50 415.33 269.43 419.74 272.00 421.00
C 272.27 418.23 274.22 415.93 274.00 413.00
C 275.06 434.37 279.96 464.56 259.00 478.00 Z"/>
</g>
<g fill="#7C8228" fill-opacity="1.00" stroke="None">
<path d="
M 425.00 103.00 
C 413.85 126.19 399.05 147.75 376.75 163.75 C 354.45 179.74 328.12 187.20 302.68 197.68 C 277.24 208.16 274.45 242.05 252.00 255.00
C 255.25 249.30 260.53 244.55 262.00 238.00
C 247.79 234.95 239.44 220.94 232.92 209.08 C 226.40 197.22 219.26 185.19 207.23 177.77 C 195.20 170.35 174.07 169.33 163.25 180.25 C 152.43 191.17 141.51 195.92 128.00 202.00
C 149.50 195.16 181.20 204.50 182.07 229.93 C 182.95 255.35 181.44 285.41 191.70 306.30 C 201.95 327.20 214.11 338.66 231.92 351.08 C 249.73 363.50 270.06 368.69 286.25 382.75 C 302.44 396.81 312.49 412.19 329.00 425.00
C 335.71 400.09 324.99 372.07 315.77 350.23 C 306.55 328.39 288.70 317.00 275.00 299.00
C 287.81 308.72 303.31 316.96 320.00 313.00
C 318.18 304.44 306.01 304.15 301.00 298.00
C 310.61 296.74 325.85 300.75 334.00 293.00
C 325.87 287.80 315.33 287.17 307.00 283.00
C 319.71 276.02 341.01 284.59 351.00 273.00
C 340.87 267.42 327.95 267.91 318.00 264.00
C 331.21 256.27 351.62 261.10 361.00 248.00
C 350.56 245.59 338.86 243.37 328.00 246.00
C 342.80 235.54 367.14 235.46 385.93 229.93 C 404.71 224.40 425.75 221.32 441.92 209.92 C 458.09 198.52 471.65 184.42 472.00 164.00
C 451.34 183.83 425.96 193.64 399.22 201.22 C 372.49 208.81 338.50 210.74 314.25 225.25 C 290.00 239.75 292.28 276.76 263.00 283.00
C 283.61 263.37 282.09 226.78 306.75 210.75 C 331.42 194.72 360.33 187.77 385.31 173.30 C 410.28 158.84 436.07 134.01 425.00 103.00 Z"/>
</g>
<g fill="#7C8328" fill-opacity="1.00" stroke="None">
<path d="
M 345.00 199.00 
C 373.18 202.71 406.54 193.84 430.77 180.77 C 455.00 167.70 472.71 143.09 469.00 116.00
C 439.24 158.78 389.88 178.83 345.00 199.00 Z"/>
</g>
<g fill="#7D8328" fill-opacity="1.00" stroke="None">
<path d="
M 461.00 213.00 
C 431.88 228.38 399.83 236.95 367.00 241.00
C 370.12 243.15 376.60 247.51 372.25 252.25 C 367.90 256.98 365.82 257.64 361.00 261.00
C 398.18 264.65 449.93 254.97 461.00 213.00 Z"/>
</g>
<g fill="#7D8329" fill-opacity="1.00" stroke="None">
<path d="
M 441.00 258.00 
C 414.93 264.36 386.98 271.11 358.00 269.00
C 365.04 274.05 359.11 281.81 353.00 285.00
C 382.94 289.97 427.85 292.83 441.00 258.00 Z"/>
</g>
<g fill="#7C8329" fill-opacity="1.00" stroke="None">
<path d="
M 412.00 296.00 
C 390.39 294.27 368.20 294.42 347.00 291.00
C 350.08 297.11 341.59 299.35 338.00 302.00
C 360.59 312.46 394.92 319.53 412.00 296.00 Z"/>
</g>
<g fill="#7C8329" fill-opacity="1.00" stroke="None">
<path d="
M 385.00 322.00 
C 366.16 318.30 348.05 311.77 329.00 309.00
C 334.51 321.64 317.34 321.89 309.00 321.00
C 329.23 336.08 366.31 341.20 385.00 322.00 Z"/>
</g>
<g fill="#7C8329" fill-opacity="1.00" stroke="None">
<path d="
M 271.00 405.00 
C 277.43 389.38 267.33 370.75 252.00 365.00
C 260.88 377.14 265.90 391.47 271.00 405.00 Z"/>
</g>
<g fill="#7C8329" fill-opacity="1.00" stroke="None">
<path d="
M 259.00 387.00 
C 252.34 395.49 237.93 406.71 229.08 411.08 C 220.23 415.46 196.24 425.79 206.75 437.25 C 217.27 448.71 235.45 433.20 241.25 423.25 C 247.04 413.29 259.03 399.92 259.00 387.00 Z"/>
</g>
<g fill="#7C8329" fill-opacity="1.00" stroke="None">
<path d="
M 308.00 466.00 
C 321.90 458.90 314.56 441.19 309.31 430.69 C 304.05 420.20 299.93 407.85 292.00 399.00
C 293.74 420.71 296.66 446.20 308.00 466.00 Z"/>
</g>
<g fill="#7C8329" fill-opacity="1.00" stroke="None">
<path d="
M 263.00 403.00 
C 252.25 416.55 243.39 433.14 233.31 447.31 C 223.22 461.47 236.15 460.80 243.77 454.77 C 251.39 448.74 255.37 441.17 258.02 432.02 C 260.68 422.87 263.89 412.37 263.00 403.00 Z"/>
</g>
<g fill="#7C8329" fill-opacity="1.00" stroke="None">
<path d="
M 284.00 409.00 
C 281.17 417.89 282.37 431.65 281.00 441.00 C 279.63 450.35 280.15 465.76 279.00 474.00 C 277.85 482.24 281.33 501.03 288.08 494.08 C 294.82 487.12 294.78 476.35 296.00 467.00 C 297.22 457.65 293.87 445.12 291.93 436.07 C 289.98 427.03 286.62 417.87 284.00 409.00 Z"/>
</g>
<g fill="#7C8329" fill-opacity="1.00" stroke="None">
<path d="
M 306.00 411.00 
C 308.65 422.39 312.47 424.29 317.22 435.78 C 321.98 447.27 332.54 435.24 324.25 427.75 C 315.96 420.27 314.37 416.63 306.00 411.00 Z"/>
</g>
<g fill="#7C8329" fill-opacity="1.00" stroke="None">
<path d="
M 259.00 478.00 
C 279.96 464.56 275.06 434.37 274.00 413.00
C 274.22 415.93 272.27 418.23 272.00 421.00
C 269.43 419.74 272.50 415.33 270.00 414.00
C 263.71 434.14 250.16 456.55 259.00 478.00 Z"/>
</g>
</svg>