<?xml version="1.0" encoding="utf-8" ?>
<svg xmlns="http://www.w3.org/2000/svg" xmlns:xlink="http://www.w3.org/1999/xlink" width="600" height="600">
	<path fill="#676B24" d="M0 439.232C5.10367 438.807 10.5797 436.776 15.4778 435.318C25.8458 432.234 36.3115 429.167 46.3506 425.108C53.2631 422.313 59.808 418.62 66.8713 416.15C75.0589 413.287 83.4168 411.927 91.7764 409.804C104.42 406.593 117.518 401.425 128.89 395.074C132.318 393.159 135.495 390.706 138.762 388.528C143.667 385.257 148.762 382.273 153.61 378.921C164.354 371.491 176.679 361.679 188.847 356.928C201.44 352.01 205.49 354.914 217.6 354.41C227.435 354.001 237.325 350.586 246.2 346.449C254.929 342.379 263.373 336.878 271.615 331.906C277.442 328.391 283.236 324.712 289.203 321.444C292.901 319.419 296.76 317.673 300.522 315.77C304.508 313.754 308.27 311.112 312.584 309.861C322.748 314.287 331.611 320.891 340.736 327.064C347.221 331.451 354.134 335.708 361.188 339.131C369.266 343.051 378.086 345.697 386.318 349.361C391.224 351.544 396.148 353.765 400.965 356.14C406.714 358.975 412.306 361.948 418.289 364.297C425.365 367.074 433.05 368.516 439.936 371.603C445.02 373.881 449.802 377.114 454.547 380.014C461.936 384.531 469.858 389.077 477.951 392.201C484.958 394.906 492.165 396.818 499.309 399.092C507.713 401.765 516.021 404.885 524.367 407.746C529.653 409.557 535.046 411.018 540.27 413.014C547.217 415.669 553.777 419.211 560.629 422.092C569.102 425.655 577.913 428.524 586.487 431.858C590.964 433.6 595.387 436.056 600 437.36L600 600L0 600L0 439.232Z"/>
</svg>
