<?xml version="1.0" encoding="utf-8" ?>
<svg xmlns="http://www.w3.org/2000/svg" xmlns:xlink="http://www.w3.org/1999/xlink" width="1554" height="1554">
	<path fill="#7F842A" d="M749.887 0L810.964 0C811.412 0.117978 811.858 0.245034 812.308 0.353933C817.741 1.66856 824.489 1.26879 830.119 1.6969C845.088 2.83172 860.05 4.07206 875.001 5.41783C885.092 6.42647 895.209 8.53272 905.197 10.2753C922.53 13.2993 939.725 16.3491 956.847 20.4152C1121.57 59.3449 1268.93 151.344 1376.23 282.246C1392.97 302.626 1409.14 322.842 1423.49 344.997C1436.19 364.59 1448.67 384.209 1459.85 404.723C1503.33 484.905 1532.24 572.164 1545.24 662.444C1548.59 686.384 1550.92 710.825 1552.57 734.941C1553.22 744.385 1551.54 759.591 1554 768.07L1554 794.902C1553.88 795.365 1553.76 795.827 1553.65 796.293C1552.51 801.115 1553.06 807.209 1552.8 812.22C1552.08 824.036 1551.28 835.846 1550.39 847.65C1547.5 880.414 1542.45 912.951 1535.26 945.049C1491.53 1143.64 1371.64 1317.15 1201.36 1428.31C1109.49 1487.88 1006.19 1527.61 898.084 1544.97C876.445 1548.29 854.676 1550.69 832.835 1552.18C823.993 1552.84 809.992 1551.74 801.932 1554L752.944 1554C744.279 1551.39 730.423 1553.24 721.097 1552.62C701.165 1551.3 680.783 1549.05 661.049 1545.92C569.764 1532.38 481.662 1502.52 400.953 1457.77C386.861 1449.97 373.178 1441.19 359.491 1432.69C187.029 1323.85 64.7657 1151.07 19.5116 952.218C12.1351 920.812 6.95224 888.176 3.73313 856.076C2.84451 847.214 1.73767 838.267 1.27157 829.38C0.95866 823.413 1.85705 815.772 0.367399 810.079C0.252759 809.641 0.122466 809.207 0 808.771L0 737.844C1.4614 733.532 2.82739 706.764 3.49328 700.161C5.40904 681.163 8.04382 662.48 11.1659 643.647C27.8966 544.752 63.8756 450.103 117.063 365.067C226.547 189.412 401.584 64.6941 603.361 18.5673C635.668 11.1546 669.339 6.39488 702.358 3.39384C710.908 2.61669 719.521 1.61888 728.097 1.22109C734.444 0.926692 742.443 1.88079 748.539 0.360621C748.99 0.248065 749.438 0.120207 749.887 0ZM801.645 1539.45C1222.66 1525.69 1552.87 1173.34 1539.32 752.321C1525.77 331.296 1173.58 0.915451 752.547 14.2649C331.227 27.6236 0.570401 380.106 14.1332 801.419C27.6961 1222.73 380.339 1553.22 801.645 1539.45Z"/>
	<path fill="#7F842A" d="M478.117 544.253C487.677 543.058 498.267 544.327 507.845 545.029C539.071 547.318 569.558 551.225 599.907 559.213C618.587 564.13 637.972 570.038 656.064 576.805C682.653 586.751 748.093 615.994 767.305 635.838C769.229 637.826 770.629 640.294 772.017 642.667C773.27 753.511 772.016 864.494 772.057 975.353L772.108 1067.76C772.116 1082.98 773.864 1101.9 770.94 1116.63C770.196 1120.37 768.527 1122.73 765.398 1124.84C761.216 1125.17 757.462 1125.59 753.415 1124.16C742.991 1120.48 733.339 1111.78 724.274 1105.47C712.505 1097.28 699.834 1088.76 686.914 1082.54C659.626 1069.41 629.933 1056.83 600.741 1048.73C578.372 1042.52 555.386 1038.89 532.513 1035.14C519.886 1033.07 480.481 1029.99 472.361 1026.63C470.124 1025.71 469.151 1024.73 468.289 1022.47C463.66 1010.35 465.911 811.97 465.917 781.497L465.905 656.183C465.904 634.557 465.487 612.851 465.961 591.235C466.136 583.281 465.987 552.585 469.064 547.722C470.846 544.905 475.129 544.747 478.117 544.253ZM494.153 1002.84C523.166 1004.16 551.74 1008.73 579.997 1015.21C597.942 1019.32 615.826 1023.45 633.32 1029.25C669.421 1041.21 703.744 1059.45 736.408 1078.74C738.462 1078.54 742.456 1078.62 743.966 1077.24C744.608 1068.01 743.888 1058.66 743.806 1049.41C743.703 1037.72 743.934 1026.01 743.927 1014.32L743.952 882.541L743.949 743.886C743.943 716.965 745.066 689.511 742.983 662.675C742.649 658.38 741.47 654.16 738.673 650.794C732.193 642.998 715.36 634.891 706.11 630.13C641.937 597.507 571.755 578.394 499.902 573.973C499.604 573.957 499.306 573.947 499.007 573.933C497.931 574.039 495.706 573.887 495.05 574.766C493.163 577.291 493.034 583.079 492.997 586.183C492.887 595.213 493.476 604.166 493.748 613.178C493.862 616.965 493.142 620.771 493.177 624.618C493.264 634.29 493.966 643.929 494.027 653.601L494.054 798.192L493.966 926.474C494.011 951.876 493.361 977.43 494.153 1002.84Z"/>
	<path fill="#7F842A" d="M1056 545.129C1059.87 544.495 1064.5 544.74 1068.44 544.765C1074.25 544.802 1080.47 545.085 1084.75 549.453C1085.96 552.581 1085.95 556.174 1086.01 559.499C1086.33 596.019 1086.33 632.541 1086.01 669.061L1086 888.897L1086.06 982.26C1086.06 991.303 1087.35 1011.17 1085.73 1019.32C1084.95 1023.22 1082.23 1026.85 1078.46 1028.23C1074.73 1029.59 1070.07 1029.06 1066.13 1029.42C1054.51 1030.49 1042.7 1031.86 1031.09 1033.23C1019.05 1034.66 1006.98 1037.16 995.032 1039.3C948.675 1047.59 888.813 1066.88 848.46 1091.54C833.601 1100.62 820.227 1111.77 806.112 1121.92C803.135 1123.88 800.278 1124.78 796.782 1125.45C793.106 1126.15 788.575 1126.43 785.472 1123.89C782.269 1121.26 782.29 1117.07 781.849 1113.23C778.909 1087.65 781.227 1060.55 781.845 1034.84C782.421 1010.88 781.989 986.811 781.987 962.842L781.972 739.247C781.972 725.855 782.211 712.421 781.878 699.034C781.678 691.003 780.849 682.972 780.966 674.937C781.08 667.076 780.456 641.766 784.722 636.598C794.302 624.993 815.03 615.351 828.055 608.296C837.539 603.158 846.843 597.347 856.578 592.718C900.498 571.837 954.694 555.896 1002.88 549.566C1020.59 547.24 1038.3 546.96 1056 545.129ZM810.34 653.228C808.732 690.053 808.995 726.743 808.989 763.605L808.987 900.737L810.077 1020.57C810.236 1040.7 808.756 1061.66 810.268 1081.68L810.937 1082.32L814.371 1080C878.267 1039.82 943.984 1018.55 1018.16 1006.56C1031.74 1004.36 1045.52 1003.68 1059.11 1001.59C1058.53 948.068 1058.68 894.447 1059.03 840.926C1059.11 827.797 1059.95 814.706 1059.99 801.569C1060.09 766.571 1058.98 731.601 1058.97 696.59L1058.96 612.396C1058.98 599.866 1060.39 585.785 1058.79 573.433C1056.5 572.974 1054.83 572.959 1052.49 573.17C979.945 580.561 903.658 597.011 839.861 633.758C829.691 639.616 819.165 645.415 810.34 653.228Z"/>
	<path fill="#7F842A" d="M1136.01 652.156C1147.79 653.657 1161.86 651.22 1172.91 656.015C1175.72 657.233 1179.14 659.555 1179.92 662.733C1181.97 671.146 1180.89 681.343 1181.21 690.031C1182.65 728.334 1182.16 766.673 1182.16 805.003C1182.17 840.861 1181.51 876.788 1181.79 912.628L1182.14 1018.64C1182.14 1037.08 1182.54 1055.64 1182 1074.07C1181.83 1079.95 1182.18 1091.96 1178.67 1096.86C1173.89 1103.54 1161.52 1101.65 1154.38 1101.09C1139.45 1099.9 1124.55 1097.87 1109.58 1097.31C1039.59 1094.69 969.748 1102.66 901.157 1115.99C891.378 1118.31 873.343 1123.36 863.766 1121.34C860.893 1120.74 858.411 1119.49 856.867 1116.87C854.712 1113.22 854.488 1107.96 855.738 1103.97C858.65 1094.68 876.966 1087.69 885.284 1083.88C910.556 1072.3 936.583 1063.64 963.339 1056.16C972.689 1053.55 982.135 1050.66 991.67 1048.86C1016.15 1044.23 1041.86 1039.95 1066.72 1038.44C1072.25 1038.1 1091.37 1038.93 1095.29 1036.5C1096.26 1035.9 1095.88 1025.54 1095.88 1023.62L1095.86 788.733L1095.86 717.655C1095.86 698.983 1095.47 680.437 1097.27 661.827C1098.02 660.652 1098.79 659.46 1099.68 658.38C1106.32 650.266 1125.01 653.436 1134.72 652.311L1136.01 652.156ZM1116.28 1070.93C1128.89 1070.79 1141.36 1072.65 1153.99 1071.82C1153.85 1063.03 1153.04 1054.3 1152.96 1045.51C1152.49 992.138 1153.81 938.846 1153.89 885.507C1153.93 857.829 1152.88 830.144 1152.92 802.442C1152.95 774.434 1154.04 746.486 1154.02 718.462C1154.01 707.609 1154.41 696.558 1153.59 685.737C1153.44 683.839 1153.43 683.773 1152.15 682.411C1146.1 680.347 1139.49 680.897 1133.18 680.997C1130.61 681.031 1127.83 680.802 1125.45 681.875C1124.26 692.247 1125.07 703.313 1125.09 713.792L1125.16 773.682L1125.15 973.708L1125.13 1025.55C1125.12 1034.75 1125.96 1045.27 1124.43 1054.31C1123.96 1057.14 1122.8 1059.81 1120.56 1061.68C1111.05 1069.61 1092.21 1063.88 1088.23 1066.87C1091.63 1070.51 1110.9 1070.7 1116.28 1070.93Z"/>
	<path fill="#7F842A" d="M391.981 653.788C402.298 652.231 445.609 651.149 452.907 656.296C454.02 657.081 454.264 657.801 454.73 659.04C459.038 670.497 457.043 760.412 457.041 778.54L457.009 960.159L456.986 1003.32C456.987 1014.84 456.33 1026.62 458.485 1037.98C498.976 1036.96 540.459 1043.21 579.58 1053.2C601.888 1058.9 687.004 1084.05 696.877 1102.34C699.555 1107.3 697.589 1112.58 695.91 1117.48C688.903 1122.19 683.187 1120.94 675.187 1120C654.607 1117.01 634.457 1111.71 613.945 1108.42C599.521 1106.11 584.693 1104.98 570.153 1103.41C529.226 1099.01 487.358 1095.38 446.169 1097.3C433.511 1097.98 420.867 1098.92 408.247 1100.12C400.356 1100.8 392.007 1101.95 384.099 1101.57C381.634 1101.45 379.072 1100.72 377.107 1099.18C373.889 1096.67 372.701 1092.04 372.187 1088.19C370.441 1075.11 371.861 1057.64 371.867 1044.02L371.885 950.349L371.865 765.635C371.863 733.798 371.208 701.808 371.945 669.985C372.03 666.331 371.865 662.463 374.36 659.529C378.455 654.714 386.131 654.404 391.981 653.788ZM400.296 1073.01C412.294 1072.71 424.423 1070.6 436.388 1070.89C439.229 1070.66 443.595 1070.77 445.601 1068.42C445.746 1068.25 445.844 1068.04 445.965 1067.86C443.955 1065.03 433.494 1063.32 429.637 1061.41C427.075 1043.4 427.882 1025 427.89 1006.85L427.935 929.135L427.966 681.13L409.031 680.98C406.089 681.217 403.129 681.172 400.515 682.676C399.23 686.387 399.247 690.46 399.18 694.354C398.676 723.741 399.113 753.216 399.108 782.611L399.135 959.029L399.063 1031.63C399.052 1044.78 397.52 1060.16 400.296 1073.01Z"/>
	<path fill="#7F842A" d="M779.079 163.169C793.252 163.007 828.328 165.725 840.7 170.413C848.626 173.416 855.719 178.468 859.047 186.512C862.014 193.682 861.4 201.981 858.191 208.967C854.048 217.983 846.329 222.306 837.543 225.763C842.196 235.626 847.427 247.142 855.256 254.936C861.292 260.945 866.147 261.874 874.234 261.957C877.103 249.491 880.914 237.176 884.136 224.791C886.908 214.134 889.121 203.343 891.905 192.688C888.304 191.44 882.854 190.138 880.748 186.681C879.642 184.866 879.628 183.407 879.939 181.39C880.77 180.018 881.318 179.258 882.727 178.404C889.487 174.307 901.697 177.591 908.854 179.39C914.667 180.85 930.175 183.851 932.768 190.109C933.542 191.978 933.643 193.382 932.693 195.225C930.463 199.555 921.487 199.785 917.136 200.508C914.244 207.449 912.632 215.28 910.695 222.546C906.607 237.884 902.857 253.322 898.629 268.62C906.217 271.376 913.622 273.416 921.548 274.996C926.005 272.198 928.294 267.668 932.024 264.141C934.285 262.003 937.213 260.548 940.378 260.722C943.068 260.87 945.124 261.673 946.952 263.674C948.96 268.864 946.285 274.295 944.736 279.349C956.791 270.213 967.303 260.019 978.299 249.706C986.356 242.149 994.659 234.824 1002.45 226.988C999.756 224.653 997.199 222.656 996.111 219.125C995.462 217.019 995.346 214.758 996.723 212.884C997.995 211.152 1000.03 210.42 1002.09 210.239C1007.52 209.76 1012.97 212.942 1017.02 216.25C1021.63 220.02 1024.57 225.699 1025.8 231.465C1027.34 238.723 1026.55 246.08 1026.33 253.421C1025.9 267.798 1025.23 282.18 1024.98 296.559C1024.89 302.112 1024.28 308.174 1025.13 313.65C1025.51 316.115 1026.16 317.319 1028.16 318.758C1032.62 315.147 1031.42 308.046 1040.05 305.317C1044.42 303.938 1050.31 304.568 1054.36 306.659C1057.46 308.258 1060.29 310.914 1061.28 314.348C1063.82 323.175 1053.11 323.231 1050.07 328.769C1049.1 330.541 1048.3 333.332 1049.23 335.269C1051 338.938 1058.32 343.26 1061.99 344.335C1065.63 345.401 1070.31 345.415 1073.68 343.488C1088.14 335.224 1051.81 297.854 1058.49 276.366C1060.71 269.223 1066.92 261.586 1073.69 258.313C1082.03 254.278 1092.81 255.602 1101.23 258.718C1115.52 264.003 1124.05 274.029 1130.29 287.573C1129.81 290.431 1129.42 293.459 1128.57 296.227C1126.39 303.353 1121.54 307.092 1115.17 310.259C1110.25 310.048 1101.61 309.318 1097.68 306.278C1096.22 305.156 1095 303.65 1094.89 301.736C1094.49 295.173 1103.13 288.523 1107.58 284.443C1104.87 278.467 1095.26 274.868 1089.57 272.556C1087.79 274.258 1085.16 276.738 1084.53 279.173C1080.62 294.358 1107.35 314.856 1103.95 337.221C1102.79 344.834 1098.98 353.928 1092.46 358.363C1084.75 363.606 1073.1 363.946 1064.15 362.139C1048.67 359.014 1037.37 348.639 1028.69 336.013C1021.2 333.887 992.38 321.817 987.173 317.339C984.784 315.284 983.662 313.305 983.411 310.189C986.133 300.9 993.213 307.685 998.739 304.229C999.972 300.654 1001.03 296.765 999.41 293.126C996.062 285.621 979.322 281.011 972.029 278.07L967.835 282.3C965.986 284.148 964.234 286.12 962.444 288.026C964.352 288.957 966.58 289.906 968.285 291.179C970.426 292.778 972.242 297.382 972.158 300.038C972.105 301.737 971.782 303.118 970.405 304.221C968.757 305.542 965.92 305.648 963.894 305.545C951.729 304.923 939.382 296.141 927.635 292.792C919.345 290.429 910.669 289.028 902.301 286.832C893.007 284.394 883.869 281.223 874.489 279.138C864.991 277.027 854.969 276.289 845.671 273.437C840.858 271.96 835.737 269.676 831.864 266.43C821.508 257.752 817.039 238.343 807.145 227.434L806.317 226.528C805.385 235.6 805.069 244.451 805.085 253.563C810.221 255.158 815.519 256.289 818.669 261.11C819.787 262.821 819.662 263.801 819.245 265.704C817.314 267.775 815.456 268.604 812.695 269.233C801.617 271.758 775.154 267.37 761.86 267.259C751.901 267.176 741.596 268.615 731.642 269.375C724.906 269.888 718.097 269.85 711.383 270.516C705.666 271.083 699.977 272.72 694.24 272.821C689.89 272.898 686.114 271.632 682.982 268.589C682.296 266.68 681.874 265.664 682.78 263.728C685.14 258.685 689.363 257.385 694.17 255.56C692.819 231.665 692.126 207.793 688.526 184.085C683.71 182.643 678.605 181.756 673.69 180.666C669.178 183.122 661.819 185.654 658.943 189.956C656.43 193.717 656.455 202.307 655.976 206.898C654.579 219.614 653.378 232.35 652.374 245.103C651.621 255.228 651.777 266.403 649.395 276.249C648.54 279.78 647.195 283.681 644.401 286.17C642.915 287.493 641.055 288.15 639.06 287.757C636.149 287.183 633.702 284.827 631.818 282.683C626.23 276.324 621.811 268.424 617.052 261.413C609.106 249.704 600.912 238.188 593.062 226.408C589.866 221.611 586.868 216.108 582.417 212.389C578.278 208.93 567.415 207.089 565.251 202.568C564.479 200.957 564.592 198.751 565.405 197.177C568.097 191.962 580.62 191.218 586.073 189.796C590.168 190.829 594.294 192.178 597.837 194.519C612.891 204.467 626.664 229.325 636.826 244.711C638.158 237.191 637.989 229.616 638.629 222.036C639.43 212.549 640.999 203.148 641.084 193.612C637.814 192.922 633.64 192.416 630.835 190.532C629.147 189.399 628.108 187.873 627.863 185.819C627.624 183.804 628.081 181.864 629.418 180.304C638.245 170.002 721.582 164.746 738.627 163.94C743.132 163.728 751.42 162.786 754.735 166.361C758.816 170.76 757.467 184.882 757.108 190.896C756.916 194.104 756.208 198.537 753.276 200.465C751.349 201.732 748.736 201.488 746.659 200.743C741.047 198.73 736.832 185.312 734.32 180.003C727.465 179.737 720.824 180.58 714.04 181.467C713.942 191.22 714.863 200.432 716.5 210.041C723.672 210.124 740.107 206.756 745.314 211.673C746.803 213.079 747.443 215.042 747.422 217.057C747.402 218.91 746.772 220.527 745.357 221.759C739.937 226.478 724.598 225.044 717.607 225.172C718.173 234.821 719.07 244.449 720.295 254.037C721.729 254.036 723.163 254.026 724.597 254.007C737.934 253.855 744.735 255.376 749.511 241.396C750.356 238.925 751.048 236.353 752.991 234.495C755.091 232.487 758.147 231.758 760.995 232.02C762.983 232.203 764.662 232.96 765.791 234.687C768.89 239.423 766.76 248.42 766.045 253.685L777.57 252.306C781.459 237.729 784.13 195.997 783.8 180.283L780.792 179.058C777.313 177.662 772.58 175.502 771.476 171.418C771.115 170.085 771.085 169.206 771.68 167.968C773.235 164.732 775.891 164.103 779.079 163.169ZM807.843 213.059C814.936 213.063 822.084 213.493 828.813 210.891C833.267 205.974 834.053 202.088 835.228 195.786C833.405 190.217 831.761 186.554 826.174 183.939C821.902 181.939 816.086 181.1 811.428 180.243C809.953 191.181 809.078 202.106 807.843 213.059ZM985.417 265.436L990.808 268.571C994.066 270.18 997.277 271.768 1000.67 273.078C1001.31 265.946 1002.39 258.599 1002.5 251.447L1002.13 251.182C996.741 256.143 991.062 260.767 985.417 265.436Z"/>
	<path fill="#7F842A" d="M1216.79 367.345C1220.64 366.868 1224.31 366.618 1227.66 368.941C1232.89 372.56 1251.68 396.005 1252.74 401.825C1253.21 404.383 1252.58 405.727 1251.16 407.805C1249.41 408.751 1248.07 409.348 1246.06 409.406C1241.4 409.541 1237.7 406.965 1234.36 404.017C1216.61 419.489 1196.79 433.319 1180.09 449.869C1181.78 453.433 1182.78 456.958 1183.78 460.747C1189.09 462.894 1193.22 465.816 1197.75 469.241C1216.89 455.258 1238.63 445.372 1257.15 430.42C1256.95 426.576 1255.76 419.252 1258.55 416.12C1259.8 414.717 1261.03 413.845 1262.99 414.005C1267.19 414.345 1270.84 419.07 1272.83 422.338C1288.78 448.421 1262.65 482.633 1256.55 508.851L1256.28 510.055C1267.63 502.031 1279.82 495.278 1291.07 487.084C1290.54 483.604 1289.63 479.615 1290.45 476.14C1291.04 473.61 1291.84 472.039 1294.09 470.632C1295.73 470.343 1296.92 470.428 1298.48 471.076C1304.6 473.621 1315.92 492.649 1318.39 498.887C1319.71 502.198 1318.99 504.476 1317.71 507.666C1307.6 512.366 1304.37 500.721 1296.21 504.898C1283.32 511.499 1234.56 546.748 1223.61 544.852C1221.85 544.548 1220.55 543.645 1219.74 542.037C1218.51 539.583 1219.19 535.855 1219.77 533.329C1222.7 520.7 1228.9 507.996 1233.69 495.969C1238.77 483.226 1243.38 470.291 1248.36 457.506C1234.42 466.356 1219.78 473.815 1206.35 483.498C1206.96 486.382 1207.75 489.42 1207.87 492.37C1208.01 495.652 1207.52 498.875 1205.32 501.396C1203.5 502.176 1202.45 502.141 1200.6 501.375C1192.05 497.836 1180.59 477.058 1176.9 468.538C1175.29 467.952 1173.76 467.447 1172.36 466.432C1165.81 461.675 1145.84 438.462 1144.79 431.206C1144.44 428.805 1145.18 427.85 1146.58 426.114C1148.51 425.237 1150.06 424.934 1152.19 424.939C1155.47 424.946 1159.53 425.747 1161.77 428.314C1162.79 429.483 1161.97 428.987 1163.26 429.514C1170.13 425.314 1176.35 419.329 1182.51 414.153C1194.45 404.133 1206.38 394.283 1217.32 383.162C1216.67 381.671 1215.99 380.161 1215.5 378.607C1214.18 374.461 1214.72 371.083 1216.79 367.345Z"/>
	<path fill="#7F842A" d="M316.273 374.976C345.942 369.566 374.369 389.266 379.723 418.946C385.076 448.626 365.322 477.015 335.632 482.311C306.022 487.594 277.726 467.905 272.387 438.305C267.049 408.705 286.683 380.372 316.273 374.976ZM289.331 417.189C292.626 432.27 303.432 444.251 316.166 452.488C323.756 457.397 331.221 460.204 340.073 461.873C347.83 460.776 352.503 458.171 357.265 451.807C358.607 450.013 359.817 448.108 361.025 446.222C361.119 433.95 355.6 422.5 347.023 413.709C338.505 404.979 325.603 396.742 313.089 396.408C305.806 397.344 298.99 399.002 294.346 405.204C291.668 408.781 290.404 412.913 289.331 417.189Z"/>
	<path fill="#7F842A" d="M425.227 264.084C426.86 264.012 428.56 263.898 430.189 264.055C432.421 264.27 433.808 265.272 435.232 266.943C436.726 271.939 434.449 275.383 432.238 279.736C436.564 287.466 442.545 294.176 448.006 301.116C457.197 312.793 466.007 324.769 476.723 335.124C479.638 333.574 482.19 332.717 485.521 333.366C488.027 333.854 490.866 335.098 492.07 337.487C493.076 339.484 492.661 341.841 491.851 343.819C491.222 345.354 490.358 347.121 489.18 348.302C484.985 352.504 464.947 368.908 460.221 370.73C457.696 371.704 455.683 371.774 453.191 370.584C452.153 369.511 451.496 368.666 451.124 367.218C449.673 361.564 452.913 356.868 455.717 352.285C447.586 341.318 438.806 330.842 430.402 320.084C433.163 330.424 449.83 375.066 446.299 383.199C445.584 384.845 444.794 385.975 443.012 386.526C440.443 387.321 436.832 386.008 434.471 385.085C427.119 382.209 420.119 377.829 413.118 374.183C402.542 368.688 391.864 363.39 381.09 358.293C387.374 364.603 392.341 371.852 398.16 378.548C401.82 382.642 405.341 386.738 408.63 391.138C411.652 389.504 415.1 387.335 418.559 386.958C420.802 386.714 423.159 387.511 424.706 389.182C426.113 390.704 426.489 392.655 426.143 394.643C424.797 402.374 410.617 412.283 404.268 416.547C401.497 418.408 396.91 420.668 393.474 419.462C391.661 418.826 390.806 417.675 390.155 415.939C388.518 411.573 391.683 405.619 393.439 401.709C388.983 393.261 359.165 355.529 351.262 347.846C345.935 348.254 339.306 350.198 334.44 347.189C332.788 346.168 331.43 344.682 331.211 342.677C330.917 339.988 332.663 337.216 334.382 335.3C350.153 317.716 377.042 325.77 394.74 335.742C401.487 339.544 412.794 349.255 420.425 348.77C420.751 348.394 421.222 348.105 421.401 347.64C423.246 342.835 401.344 294.975 404.41 283.137C406.31 275.799 418.954 267.784 425.227 264.084Z"/>
	<path fill="#7F842A" d="M250.404 468.244C251.285 468.15 252.169 468.085 253.055 468.048C260.025 467.794 267.295 470.161 272.319 475.089C280.018 482.641 280.973 493.022 281.101 503.163C289.578 503.111 298.016 502.021 306.228 499.917C312.933 498.184 329.912 489.062 334.869 490.444C335.158 490.525 335.462 490.579 335.726 490.723C336.781 491.299 337.674 492.057 338.116 493.185C339.321 496.258 337.959 499.615 336.689 502.447C322.438 534.218 297.04 522.68 271.732 531.724C279.548 536.455 286.889 541.088 295.796 543.507C297.655 541.106 299.561 538.658 302.353 537.295C304.559 536.217 307.159 535.738 309.475 536.754C310.929 537.392 311.979 538.469 312.492 540.015C313.872 544.181 311.69 547.655 309.937 551.291C304.893 560.14 300.984 570.939 294.698 578.885C292.556 581.593 290.274 583.551 286.759 583.959C284.628 583.418 283.523 582.674 282.353 580.764C279.914 576.779 281.423 572.709 282.405 568.525C273.347 560.557 232.944 540.334 220.636 534.832C216.11 538.605 212.28 542.23 206.059 541.911C204.241 540.899 203.356 540.537 202.634 538.413C200.221 531.31 207.432 519.952 210.676 513.623C220.315 494.816 228.806 475.216 250.404 468.244ZM254.662 523.766C257.056 523.793 257.838 523.067 259.527 521.313C263.111 517.591 264.371 511.778 265.443 506.879C262.514 500.924 259.173 496.574 252.701 494.186C249.882 493.146 247.482 492.985 244.522 493.268C238.041 497.532 234.966 502.399 231.714 509.334C238.673 515.434 246.331 519.81 254.662 523.766Z"/>
	<path fill="#7F842A" d="M1293.94 532.968C1301.75 532.638 1309.09 533.12 1316.52 535.693C1330.65 540.585 1341.7 551.588 1348.14 564.921C1353.03 575.041 1355.6 592.059 1351.63 602.692C1349.74 607.752 1345.9 611.84 1340.96 614.038C1335.02 616.744 1328.08 616.587 1322.11 614.055C1317.84 612.245 1313.93 609.033 1312.3 604.576C1311.04 601.14 1311.47 597.384 1313.07 594.134C1316.24 587.68 1325.53 591.026 1331.15 588.656C1334.82 587.106 1335.62 584.587 1336.92 581.077C1335.9 577.299 1334.91 573.648 1332.79 570.3C1328.78 563.979 1322.54 559.892 1315.19 558.561C1302.03 556.179 1286.6 561.14 1275.71 568.494C1267.77 573.858 1262.19 579.803 1260.3 589.412C1259.84 599.159 1261.98 606.8 1268.56 614.193C1273.82 611.502 1278.87 608.668 1283.88 605.543C1283.86 603.847 1283.88 602.165 1284.07 600.476C1284.41 597.354 1285.05 593.735 1288.05 591.975C1289.47 591.143 1291.05 591.198 1292.54 591.78C1299.98 594.68 1304.63 612.994 1306.93 620.259C1308.19 624.208 1309.71 630.563 1307.01 634.274C1305.82 635.902 1304.42 636.336 1302.49 636.45C1298.41 636.691 1293.76 633.123 1290.86 630.708C1285.01 631.761 1279.53 634.249 1273.7 635.426C1269.36 636.302 1265.99 636.206 1262.33 633.571C1250.4 624.979 1242.75 603.193 1240.8 589.164C1239.05 576.606 1242.19 565.128 1249.92 555.138C1260.21 541.84 1277.73 535.043 1293.94 532.968Z"/>
	<path fill="#7F842A" d="M546.278 204.877C547.222 204.877 548.413 204.807 549.356 205.009C552.592 205.703 554.483 208.03 556.167 210.694C559.933 216.653 565.839 228.87 563.897 235.893C563.303 238.042 562.222 239.073 560.343 240.207C549.895 242.059 544.853 230.672 537.152 225.853C536.92 225.708 536.683 225.572 536.449 225.431C530.598 227.697 524.949 230.446 519.272 233.111C522.206 241.748 526.121 250.618 530.885 258.4C538.211 256.18 549.356 249.018 557.157 251.483C558.72 251.977 559.909 252.976 560.567 254.495C561.395 256.412 561.29 258.614 560.652 260.557C558.604 266.802 543.339 272.402 537.826 275.518C541.929 283.333 545.319 291.54 549.419 299.393C554.103 297.842 558.785 295.995 563.228 293.848C581.723 284.909 568.556 280.743 573.7 269.81C574.752 267.575 577.621 265.777 580.053 265.367C582.18 265.009 583.732 265.441 585.461 266.717C589.637 269.798 590.476 275.847 591.465 280.543L594.648 290.167C593.614 292.584 592.468 295.259 590.806 297.305C587.295 301.625 527.811 328.185 522.966 327.948C520.395 327.822 517.729 326.806 516.18 324.651C515.027 323.046 514.744 320.992 515.171 319.086C516.152 314.7 521.094 311.65 524.48 309.141C520.16 296.947 514.636 285.405 509.392 273.605C505.098 263.944 501.411 253.801 495.294 245.119C492.211 245.201 487.797 245.783 484.89 244.739C483.072 244.086 481.407 242.38 480.636 240.6C479.815 238.708 479.659 236.94 480.495 235.003C481.114 233.567 482.232 232.458 483.535 231.637C488.446 228.543 495.139 226.777 500.534 224.523C509.309 220.858 517.65 216.24 526.408 212.54C532.974 209.766 539.788 207.901 546.278 204.877Z"/>
	<path fill="#7F842A" d="M1145.28 296.747C1151.05 296.788 1153.91 298.247 1158.3 302.008C1164.38 307.215 1170.12 312.836 1176.13 318.129C1184.22 325.245 1212.18 346.581 1212.08 356.852C1212.03 362.351 1204.53 369.644 1200.73 373.135C1197.33 376.255 1190.8 380.862 1185.85 379.953C1184.12 379.635 1182.99 378.562 1182.36 376.938C1179.56 369.658 1186.63 359.814 1189.71 353.422L1181.36 344.849C1164.54 361.575 1149.01 380.212 1133.18 397.898C1133.13 401.775 1136.97 405.695 1137.31 409.732C1137.48 411.812 1137 413.314 1135.61 414.888C1134.3 416.381 1132.54 416.898 1130.64 417.089C1127.16 416.092 1100.71 392.693 1097.9 388.96C1096.13 386.612 1095.24 383.482 1095.69 380.601C1096.87 378.921 1097.59 378.071 1099.66 377.546C1104.68 376.272 1108.7 378.203 1113.06 380.39C1130.38 363.866 1146.9 345.876 1162.47 327.68C1159.56 324.955 1156.72 322.634 1153.39 320.408C1147.8 323.906 1143.03 328.88 1136.32 330.274C1133.96 330.766 1132.42 330.485 1130.36 329.149C1128.83 327.075 1128.23 325.485 1128.05 322.889C1127.92 321.08 1127.83 318.502 1128.37 316.762C1129.63 312.752 1141.8 300.716 1145.28 296.747Z"/>
	<path fill="#7F842A" d="M196.714 550.957C198.115 550.891 199.51 550.847 200.912 550.911C208.303 551.247 221.877 555.022 226.663 560.923C227.846 562.38 228.619 564.247 228.175 566.144C227.172 570.423 223.373 572.278 219.867 574.237C214.451 573.206 209.473 572.991 203.975 573.016C201.373 578.788 198.861 584.488 196.849 590.502L225.912 599.346C228.24 592.766 230.877 577.535 236.786 573.733C238.652 572.532 240.012 572.357 242.131 573.003C244.073 573.596 245.432 575.103 246.27 576.895C249.212 583.185 242.684 597.559 240.59 603.884C249.14 607.461 258.111 610.05 267.1 612.246C268.389 608.72 269.823 606.07 273.395 604.499C275.668 603.499 277.853 603.102 280.162 604.335C283.249 605.983 283.783 608.47 284.458 611.615C280.926 621.04 275.447 647.011 268.332 651.861C266.446 652.234 264.94 652.414 263.051 651.902C256.58 650.149 259.704 640.976 256.259 636.858C252.666 632.563 198.896 617.57 189.724 615.302C187.478 618.572 185.164 622.526 181.199 623.872C179.165 624.563 177.43 624.451 175.519 623.443C174.249 621.874 173.732 620.713 173.516 618.735C172.411 608.622 189.966 559.432 196.714 550.957Z"/>
	<path fill="#7F842A" d="M415.612 1237.61C422.143 1238.96 425.18 1242.25 428.745 1247.63C429.879 1260.07 426.642 1272.28 424.155 1284.4C434.099 1279.59 447.535 1266.71 458.945 1268.37C462.067 1268.83 465.293 1270.45 467.011 1273.18C468.345 1275.25 468.73 1277.8 468.068 1280.18C467.294 1283.02 465.331 1284.12 462.947 1285.48C458.035 1288.27 443.094 1309.12 441.249 1314.17C439.787 1318.16 441.07 1323.23 437.469 1326.25C435.968 1327.51 434.14 1328.04 432.197 1327.74C429.787 1327.36 427.769 1325.82 426.59 1323.72C425.355 1321.52 425.576 1319.89 426.166 1317.59L427.711 1311.38C429.734 1305.88 431.648 1300.35 433.454 1294.78C427.952 1298.03 412.254 1311.05 406.416 1309.7C405.371 1309.46 404.808 1308.89 404.406 1307.88C401.693 1301.01 407.704 1282.84 409.631 1275.55C407.801 1277.77 405.712 1280.15 404.385 1282.71C402.322 1286.68 401.513 1291.64 397.993 1294.71C395.925 1296.51 393.358 1296.9 390.703 1296.63C387.636 1296.31 384.599 1295.2 382.881 1292.47C381.418 1290.15 381.18 1286.3 382.477 1283.8C383.824 1281.21 388.079 1279.4 390.125 1277.09C395.173 1271.41 404.169 1260.27 407.642 1253.74C409.361 1250.51 408.653 1246.46 409.694 1243.05C410.643 1239.94 412.917 1238.92 415.612 1237.61Z"/>
	<path fill="#7F842A" d="M912.601 1348.62C916.992 1347.97 921.789 1347.89 926.139 1348.93C932.256 1350.39 934.895 1353.15 937.927 1358.43C938.29 1367.44 937.529 1372.31 932.576 1379.93C939.123 1387.1 948.376 1389.95 952.321 1394.84C953.866 1396.75 953.847 1398.07 953.528 1400.41C951.772 1402.86 949.582 1404.67 946.665 1405.59C931.11 1410.5 925.22 1387.71 918.046 1384.21C917.594 1383.99 917.131 1383.79 916.674 1383.58C918.629 1390.12 922.07 1396.29 923.741 1402.79C924.257 1404.8 924.636 1407.61 923.29 1409.38C921.775 1411.38 919.944 1411.68 917.609 1411.9C913.007 1412.34 905.786 1415.19 901.619 1412.63C895.656 1408.95 901.295 1403.38 900.326 1398.39C898.378 1388.34 896.12 1378.41 892.526 1368.8C889.431 1366.85 886.521 1365.2 885.444 1361.47C884.942 1359.74 885.259 1358.12 886.395 1356.71C891.152 1350.83 905.495 1349.75 912.601 1348.62ZM916.789 1375.38C918.073 1375.2 920.954 1375.22 921.719 1374.2C922.806 1372.75 922.864 1371.13 922.435 1369.42C921.821 1366.98 918.845 1363.89 916.606 1362.8C915.331 1362.19 913.938 1361.99 912.549 1361.83C909.882 1364.59 907.363 1366.64 907.367 1370.79C907.369 1372.45 907.673 1372.65 908.443 1374.02C910.704 1375.54 913.472 1376.09 916.142 1375.57C916.363 1375.53 916.573 1375.44 916.789 1375.38Z"/>
	<path fill="#7F842A" d="M564.876 1324.9C567.473 1324.83 570.066 1324.64 572.433 1325.89C584.738 1332.37 588.751 1353.17 592.761 1365.44C594.442 1361.22 597.003 1356.24 597.551 1351.73C598.078 1347.39 596.197 1341.57 598.479 1337.75C599.761 1337.21 600.1 1336.91 601.549 1337.04C605.062 1337.36 614.331 1341.18 616.414 1343.72C616.887 1345.64 616.846 1346.35 616.239 1348.28C614.342 1354.3 610.396 1359.93 608.045 1365.88C605.438 1372.48 602.838 1379.22 600.658 1385.97C599.863 1388.43 599.525 1391.09 598.578 1393.47C597.016 1397.41 594.424 1399.1 590.695 1400.79C589.594 1400.37 588.279 1399.94 587.299 1399.29C582.892 1396.35 574.616 1365.12 572.401 1357.99C569.754 1363.82 567.772 1369.81 565.763 1375.88C566.665 1377.86 568.009 1380.25 567.774 1382.49C567.567 1384.46 566.653 1386.21 565.049 1387.4C562.59 1389.23 559.099 1389.43 556.173 1389C552.749 1388.49 547.919 1386.73 546.011 1383.59C544.968 1381.88 544.531 1380.23 545.092 1378.25C546.108 1374.67 549.137 1373.2 552.084 1371.36C554.645 1363.66 562.564 1346.45 562.901 1339.39C563.041 1336.45 561.807 1333.56 561.827 1330.6C561.843 1328.11 563.256 1326.59 564.876 1324.9Z"/>
	<path fill="#7F842A" d="M1065.68 1286.27C1067.8 1286.02 1070.04 1285.86 1072.15 1286.29C1075.5 1286.96 1078.86 1290.27 1080.35 1293.24C1081.25 1295.05 1081.03 1296.12 1080.54 1297.99C1075.34 1303.78 1066.4 1302.21 1059.74 1305.82L1058.72 1306.38L1063.5 1315.72C1066.22 1314.12 1069.45 1311.82 1072.63 1311.44C1075.28 1311.13 1077.14 1311.86 1079.19 1313.51C1080.26 1315.41 1080.53 1316.46 1080.08 1318.64C1079.02 1323.71 1074.49 1325.58 1070.4 1327.76C1071.44 1329.95 1072.52 1332.11 1073.91 1334.1C1075.27 1336.04 1076.53 1337.26 1078.95 1337.69C1085.07 1335.36 1084.35 1323.42 1088.8 1319.05C1089.65 1318.22 1090.67 1317.59 1091.87 1317.59C1094.09 1317.59 1096.82 1319.12 1098.3 1320.76C1101.28 1324.06 1101.21 1329.6 1100.81 1333.69C1098.88 1337.57 1096.84 1340.58 1093.33 1343.2C1089.15 1346.32 1069.91 1358.01 1065.24 1356.95C1063.71 1356.6 1061.84 1355.78 1061.07 1354.31C1059.4 1351.13 1059.82 1346.43 1058.35 1342.81C1054.39 1333.04 1048.09 1323.53 1042.61 1314.52C1039.95 1314.24 1036.48 1314.24 1034.48 1312.18C1032.9 1310.56 1032.97 1309.68 1032.93 1307.58C1036.97 1298.45 1056.7 1290.61 1065.68 1286.27Z"/>
	<path fill="#7F842A" d="M1132.77 1243.06C1136.28 1242.92 1139.47 1244.03 1142.75 1245.07L1143.35 1245.79C1145.47 1248.38 1148.24 1251.5 1147.87 1255.07C1143.5 1259.66 1133.45 1253.8 1127.43 1257.84C1125.96 1259.7 1125.28 1263.26 1125.34 1265.68C1125.39 1267.33 1125.55 1267.84 1126.7 1268.89C1133.48 1268.96 1141.32 1265.34 1148.27 1264.49C1153.27 1263.87 1159.51 1263.91 1163.57 1267.36C1167.19 1270.44 1169.34 1275.82 1169.79 1280.46C1170.42 1286.89 1167.94 1293.24 1163.75 1298.06C1159.24 1303.25 1153.17 1306.56 1146.31 1307.15C1142.17 1307.13 1137 1307.54 1133.45 1305.01C1131.71 1303.77 1130.97 1302.67 1130.64 1300.55C1130.03 1296.68 1133.23 1292.94 1135.26 1289.93C1139.97 1289.71 1146.38 1292.23 1150.56 1291.32C1152.68 1290.87 1152.93 1290.37 1154.15 1288.73C1154.96 1285.67 1153.74 1282.95 1152.82 1280.04C1152.63 1280.09 1152.45 1280.15 1152.26 1280.19C1143.83 1282.18 1125.32 1286.79 1118.01 1282.14C1113.9 1279.53 1111.55 1275.39 1110.53 1270.72C1109.22 1264.88 1110.38 1258.76 1113.73 1253.8C1118.4 1246.91 1125.06 1244.71 1132.77 1243.06Z"/>
	<path fill="#7F842A" d="M735.265 1362.11C737.807 1362 740.357 1361.88 742.901 1361.87C748.22 1361.86 753.696 1363.07 757.483 1367.09C759.641 1369.39 760.395 1371.54 760.243 1374.64C759.269 1376.42 758.85 1377.41 756.761 1378.11C752.467 1379.56 748.044 1376.29 744.55 1374.21C744.07 1374.34 743.588 1374.47 743.11 1374.6C740.275 1375.41 738.741 1376.28 737.217 1378.95C736.603 1387.93 758.473 1389.79 762.378 1401.85C764.076 1407.1 762.21 1412.86 759.686 1417.51C756.3 1423.75 751.892 1426.15 745.241 1428.05C739.936 1428.21 734.514 1428.2 729.38 1426.69C725.623 1425.58 721.329 1423.4 719.569 1419.68C718.69 1417.82 718.555 1415.65 719.372 1413.74C720.173 1411.86 722.07 1410.25 723.959 1409.5C729.613 1407.26 731.259 1411.74 736.461 1412.89C738.634 1413.37 742.516 1412.3 744.266 1410.92C745.203 1410.18 744.925 1410.34 744.995 1409.08C741.124 1403.51 735.454 1402.21 729.778 1399.1C724.127 1396 722.049 1391.49 720.478 1385.4C719.157 1380.29 719.053 1374.34 721.934 1369.71C725.015 1364.77 729.906 1363.39 735.265 1362.11Z"/>
	<path fill="#7F842A" d="M829.487 1362.46C832.923 1361.97 836.463 1361.8 839.934 1361.84C843.764 1361.88 847.993 1363.29 850.621 1366.19C853.26 1369.1 853.919 1372.93 853.556 1376.73C853.253 1379.92 851.981 1384 849.178 1385.89C847.705 1386.88 846.013 1387.56 844.215 1387.05C841.268 1386.21 840.179 1383.25 838.879 1380.82C837.767 1378.74 836.44 1376.15 834.048 1375.43C831.893 1380.24 836.274 1401.48 837.07 1407.93C837.681 1412.88 842.458 1414 843.779 1418.51C843.458 1420.59 842.998 1421.64 841.394 1423.07C837.597 1426.47 827.356 1425.12 822.338 1425.05C820.687 1424.87 819.152 1424.81 817.715 1423.87C816.196 1422.88 815.006 1421.06 814.86 1419.23C814.595 1415.91 816.831 1413.69 818.915 1411.49C819.075 1409.15 819.227 1406.79 819.256 1404.44C819.324 1399.05 818.849 1380.53 815.464 1376.96C812.338 1377.59 811.707 1386.11 808.001 1388.47C806.579 1389.38 804.772 1389.29 803.228 1388.72C800.944 1387.87 799.429 1386.03 798.651 1383.78C797.291 1379.84 796.962 1371.19 799.525 1367.68C802.956 1362.99 823.661 1363.01 829.487 1362.46Z"/>
	<path fill="#7F842A" d="M991.007 1321.8C992.242 1321.79 993.545 1321.74 994.767 1321.92C996.057 1322.1 998.734 1322.73 999.236 1324.12C1000.08 1326.44 999.438 1332.2 999.599 1334.92C1000.13 1343.8 1004.05 1357.71 1009.26 1365.03C1010.61 1366.92 1011.63 1367.58 1013.86 1367.95C1015.47 1368.23 1016.23 1368.44 1017.55 1369.49C1018.88 1371.68 1020.15 1373.86 1019.15 1376.51C1017 1382.21 1007.49 1384.95 1002.47 1386.99C1001.82 1387.02 1001.18 1387.03 1000.53 1387.03C998.063 1387.02 996.213 1386.85 994.501 1384.85C992.258 1382.23 993.765 1376.21 993.77 1372.95C993.779 1366.91 984.347 1345.65 979.992 1341.45C978.931 1340.43 977.71 1339.37 976.918 1338.11C975.807 1336.35 975.555 1334.14 976.07 1332.14C977.355 1327.16 985.898 1324.9 990.126 1322.34L991.007 1321.8Z"/>
	<path fill="#7F842A" d="M658.109 1352.83C663.308 1352.78 672.94 1354.14 677.718 1356.25C679.74 1357.14 680.282 1358 681.152 1359.95C680.922 1365.72 675.942 1370.25 674.217 1375.66C671.293 1384.83 671.964 1394.62 668.071 1403.58C669.343 1404.35 670.765 1405.12 671.893 1406.09C673.524 1407.5 673.749 1408.79 674.056 1410.81C673.155 1413.4 671.966 1414.66 670.014 1416.54C664.213 1417.23 657.528 1417.77 652.057 1415.36C649.817 1414.38 647.938 1412.86 647.254 1410.4C646.429 1407.44 647.957 1405.03 649.489 1402.62C655.402 1393.32 657.461 1378.3 658.675 1367.4C656.712 1365.21 654.911 1362.79 654.709 1359.73C654.503 1356.63 656.008 1354.84 658.109 1352.83Z"/>
	<path fill="#7F842A" d="M505.483 1298.97C507.6 1298.9 509.543 1298.78 511.532 1299.66C517.426 1302.27 525.362 1304.94 528.046 1311.26C527.987 1312.67 528.166 1313.4 527.373 1314.65C525.395 1317.75 522.487 1318.07 519.137 1318.82C514.002 1327.99 508.355 1337.18 504.403 1346.92C503.461 1349.24 503.26 1350.4 503.615 1352.92C503.643 1353.12 503.924 1354.91 503.928 1355.17C503.965 1357.47 502.746 1358.84 501.372 1360.5C500.437 1360.72 499.475 1360.96 498.514 1361.04C493.839 1361.45 486.506 1358.34 483.047 1355.27C480.977 1353.43 479.705 1351.2 479.817 1348.34C479.9 1346.21 480.787 1345.09 482.226 1343.69C483.437 1343.46 484.807 1343.3 485.967 1342.89C490.404 1341.34 500.84 1318.16 503.625 1312.69C503.229 1311.15 503.342 1311.83 503.175 1310.12C502.722 1305.53 502.422 1302.71 505.483 1298.97Z"/>
</svg>
