<?xml version="1.0" encoding="utf-8" ?>
<svg xmlns="http://www.w3.org/2000/svg" xmlns:xlink="http://www.w3.org/1999/xlink" width="600" height="600">
	<path fill="#6B6F25" d="M377.736 94.9061C380.181 92.1996 382.703 89.3642 384.883 86.4386C386.17 84.7108 387.261 82.3704 388.818 80.9231C391.375 78.5459 395.175 77.6795 398.071 75.7783C399.952 74.5436 400.89 72.3628 402.623 71.0124C404.819 69.3014 407.776 69.339 410.012 67.859C412.154 66.4412 413.735 64.305 415.708 62.6826C419.783 59.3322 428.486 58.1841 433.656 58.0278C434.229 58.0105 434.723 58.1525 435.276 58.2786C441.265 59.6454 443.67 50.027 457.211 57.9131C458.471 57.6459 460.137 57.101 461.411 57.1938C464.486 57.4175 468.743 59.9274 471.296 61.604C473.962 63.3546 476.315 65.5721 478.82 67.5402C481.159 69.3779 483.667 70.9222 485.688 73.1419C486.619 74.1631 487.216 75.2595 487.797 76.4997C490.91 74.9345 494.4 74.5937 497.566 73.2203C504.144 70.3664 513.396 64.1763 519.711 62.484C525.137 61.03 531.803 62.1161 537.4 61.9426C541.065 61.829 544.757 61.18 548.414 61.2472C550.331 61.2824 552.338 61.513 554.173 62.0835C555.452 62.4811 556.79 63.1357 557.464 64.3558C558.16 65.615 557.909 67.1084 557.487 68.4164C556.573 71.2445 554.637 73.8976 553.041 76.3808C544.963 88.9486 535.239 95.1633 522.074 101.506C519.682 102.658 517.279 103.703 514.726 104.452C511.135 105.507 503.856 105.974 501.176 108.162C499.487 109.541 498.802 111.943 497.209 113.528C496.887 113.849 496.449 114.191 496.456 114.662C496.485 116.609 497.619 119.117 498.06 121.103L495.828 124.054C496.014 130.597 495.129 137.73 496.56 144.138C497.185 146.937 498.353 149.484 499.537 152.082C502.459 158.492 503.515 163.417 503.134 170.508C502.619 180.086 498.938 184.466 493.458 191.898C491.734 194.235 490.077 196.75 489.232 199.557C487.773 204.403 490.689 208.39 489.98 212.988C489.019 219.23 484.413 215.558 488.701 226.017C488.921 226.56 489.155 227.098 489.401 227.629C487.997 229.839 486.399 232.051 485.21 234.384C483.407 237.924 480.815 246.255 481.558 250.082C481.828 251.472 482.487 252.977 483.06 254.275C482.067 256.309 480.678 258.021 479.299 259.803C479.138 264.259 478.258 268.319 477.512 272.681C477.236 274.291 477.193 276.119 476.702 277.662C476.132 279.454 474.38 280.846 474.127 282.774C473.893 284.56 474.701 286.592 475.214 288.283C473.465 291.411 472.048 294.774 470.218 297.836C469.453 299.118 468.474 300.232 467.646 301.463C467.935 303.536 468.281 305.427 468.97 307.413C467.044 310.054 464.512 311.915 462.434 314.37C462.414 314.477 462.392 314.585 462.373 314.693C461.911 317.311 462.164 319.991 461.702 322.595C460.905 327.087 458.771 333.561 455.868 337.1C454.395 338.895 452.291 340.217 450.577 341.774C448.1 344.026 445.743 346.706 443.543 349.234C443.015 352.19 442.795 357.326 440.147 359.094C438.285 360.337 436.156 360.029 434.091 359.656C433.16 362.124 431.969 365.895 429.334 367.029C427.196 367.95 425.276 368.382 423.454 369.97C423.11 370.988 422.926 372.208 422.382 373.127C421.158 375.197 417.553 378.133 417.209 380.411C416.971 381.985 418.033 383.596 417.811 385.193C417.524 387.253 416.188 389.1 415.653 391.099C414.492 395.437 413.5 403.205 413.34 407.703C413.149 413.07 414.513 418.403 414.058 423.811C413.704 428.022 412.5 432.147 411.565 436.256C410.444 441.186 409.546 446.264 409.146 451.31C407.724 469.242 414.2 484.243 419.05 500.962C420.389 505.579 420.756 510.443 422.914 514.795C426.547 522.122 429.732 524.246 432.354 532.981C426.557 536.73 416.406 536.706 409.839 535.274C404.475 534.105 400.225 531.945 397.189 527.173C395.496 524.511 394.481 521.413 392.732 518.801C389.832 514.473 385.811 511.079 383.616 506.286C383.551 506.144 383.479 506.005 383.416 505.863C382.947 504.796 382.926 503.752 382.936 502.61C382.97 498.724 383.541 494.912 383.788 491.047C384.063 486.751 383.924 482.359 383.922 478.052C383.92 473.829 384.066 469.514 383.676 465.308C382.985 457.86 382.076 450.215 379.115 443.275C376.838 437.935 373.401 432.987 372.385 427.167C371.634 422.865 372.335 418.281 372.27 413.928C372.168 407.127 371.226 400.405 370.401 393.665C370.02 390.55 369.906 387.29 369.03 384.267C368.36 381.957 365.431 380.716 363.5 379.597C362.354 381.38 361.139 383.163 360.308 385.121C354.492 398.828 359.696 416.703 357.819 431.115C356.919 438.032 354.167 443.944 351.097 450.121C349.974 452.38 348.655 454.616 347.926 457.04C346.478 461.855 347.773 466.412 347.022 471.208C346.466 474.757 344.383 478.206 344.29 481.791C344.044 491.377 346.322 501.079 347.033 510.601C347.453 516.234 346.412 522.385 347.667 527.896C348.619 532.077 353.084 540.878 351.827 544.656C350.38 546.41 348.06 546.505 345.94 546.704C340.038 547.256 327.738 546.347 323.026 542.623C319.007 539.446 310.215 516.777 309.843 511.051C309.43 504.712 312.673 496.855 314.004 490.546C316.559 478.436 319.116 456.472 317.646 444.589C317.085 440.056 315.221 435.829 314.465 431.352C314.114 429.275 313.893 427.101 313.944 424.994C314.016 421.987 314.902 419.601 313.695 416.672C312.74 414.355 311.102 412.529 309.955 410.342C309.921 407.672 310.118 405.379 310.909 402.817C309.44 402.396 307.944 402.013 306.49 401.547L306.345 401.148C305.119 397.705 306.387 388.156 302.86 386.477C302.149 386.139 300.637 386.638 299.9 386.806C298.26 387.182 296.779 387.188 295.334 386.216C294.104 385.388 293.091 383.964 292.147 382.826C290.764 383.769 289.153 385.201 287.365 384.937C286.306 384.781 285.153 384.049 284.218 383.546L279.997 386.102L279.57 385.973C277.734 385.414 272.163 382.278 270.545 383.205C268.558 384.345 266.888 388.755 265.489 390.68C263.149 393.901 260.188 396.778 257.686 399.893C254.427 403.953 247.866 413.635 246.905 418.551C244.599 430.359 254.453 444.257 260.936 453.466C267.805 463.034 274.584 472.667 281.271 482.363C284.273 486.802 286.907 491.478 289.918 495.904C293.039 500.49 296.791 504.704 299.696 509.424C300.538 510.793 302.552 513.888 302.313 515.499C302.175 516.426 301.699 517.086 300.931 517.59C296.597 520.436 282.647 519.91 277.621 518.629C275.74 518.149 274.141 517.382 272.624 516.17C269.666 513.809 267.692 510.522 264.963 507.954C259.747 503.047 252.301 499.529 248.641 493.201C246.637 489.736 245.752 485.643 244.047 482.02C239.305 471.87 233.384 462.314 226.407 453.548C222.715 448.873 219.026 444.484 214.741 440.329C209.394 435.145 202.797 430.922 198.991 424.348C196.172 419.479 195.282 414.676 196.822 409.215C198.155 404.487 200.55 400.186 202.485 395.696C204.558 390.888 205.582 385.767 205.904 380.547C205.989 379.169 206.233 377.001 205.576 375.771C205.352 375.351 204.716 375.209 204.27 375.137C202.828 374.903 201.262 374.9 199.795 374.728C197.221 380.206 194.9 379.985 192.289 383.867C188.508 389.489 182.885 404.855 176.425 407.309C174.626 407.993 172.522 407.844 170.765 408.591C168.032 409.754 166.095 412.546 163.52 414.035C160.744 415.641 157.684 416.562 154.786 417.895C149.786 420.194 145.088 424.581 142.631 429.511C140.849 433.086 139.65 436.906 138.038 440.553C136.199 444.714 133.666 448.756 132.492 453.174C131.292 457.693 131.164 462.545 130.874 467.193L129.938 484.995C129.752 488.997 129.181 492.922 129.325 496.942C129.545 503.082 130.13 510.207 132.123 516.031C133.436 519.865 141.182 533.475 139.379 536.514C138.419 538.131 135.979 538.617 134.275 538.885C127.768 539.908 116.05 539.441 110.579 535.51C105.04 531.53 103.712 524.317 100.465 518.786C97.6664 514.018 92.9912 510.269 92.0981 504.529C91.6648 501.743 92.5599 497.824 92.8848 494.995C93.5254 489.417 93.5232 483.377 94.7041 477.911C96.0228 471.808 98.5308 466.177 99.3818 459.926C100.571 451.194 99.9127 441.839 99.8815 433.021C98.7597 427.981 98.9395 413.417 99.9008 408.274C99.6906 404.967 99.5161 401.243 101.86 398.606C104.288 395.875 108.059 394.369 110.759 391.761C110.933 391.593 111.115 391.433 111.292 391.268C110.233 389.943 108.706 388.45 108.948 386.609C109.146 385.105 110.428 383.791 111.34 382.649C110.095 380.903 108.606 379.232 109.019 376.927C109.264 375.558 110.311 374.166 111.115 373.057C109.808 371.292 108.714 369.493 107.821 367.482C108.46 364.013 110.06 361.826 111.661 358.816C110.734 357.271 109.807 355.714 108.979 354.114C110.281 351.296 111.906 349.501 114.098 347.338C112.328 345.094 110.245 342.941 109.167 340.268C109.939 337.572 110.779 335.025 111.997 332.496C110.592 328.352 110.926 323.848 110.743 319.522C110.56 315.2 110.176 310.436 109.213 306.217C107.002 305.121 103.823 303.695 102.961 301.183C102.005 298.397 104.172 295.066 103.739 292.05C103.345 289.309 99.2942 289.311 100.86 285.597C101.003 285.263 101.159 284.934 101.328 284.612C101.956 283.404 102.794 282.387 103.705 281.382C102.422 280.184 101.095 279.149 100.997 277.249C100.75 272.491 104.359 271.534 102.172 265.879C103.594 260.077 104.687 254.388 107.81 249.214C110.43 244.875 113.808 241.178 117.715 237.961C119.625 236.388 121.736 234.895 123.431 233.09C125.175 231.233 126.672 229.142 128.354 227.227C130.291 225.022 132.449 223.015 134.433 220.85C137.096 217.943 138.887 215.17 142.338 213.079C145.128 211.389 148.183 210.218 150.993 208.576C154.518 206.518 158.909 202.656 162.561 201.375C164.517 200.688 166.65 200.688 168.697 200.74C173.169 197.782 175.594 197.493 180.563 196.101C183.115 195.387 185.578 194.391 188.161 193.781C192.62 192.729 197.321 192.854 201.877 192.779C203.126 191.578 204.344 190.264 205.766 189.27C208.83 189.453 212.102 190.145 215.15 189.732C216.62 189.533 218.014 188.445 219.478 188.453C221.276 188.464 223.161 188.831 224.956 188.999C228.278 189.31 231.639 189.554 234.966 189.829C237.706 190.056 240.425 189.263 243.151 189.362C247.148 189.507 251.342 190.679 255.292 191.329C257.569 191.704 259.931 191.729 262.166 192.306C263.619 192.681 264.959 193.248 266.221 194.059C269.236 192.296 271.885 191.486 275.365 192.412C276.93 192.828 278.449 193.439 280.062 193.651C288.242 194.723 296.852 192.638 304.761 195.758C308.32 194.882 311.785 194.926 315.42 194.969C318.048 192.369 320.969 188.674 324.453 187.22C326.115 186.526 328.153 186.377 329.684 185.429C332.486 183.695 334.463 180.064 338.183 180.23C339.006 180.267 339.851 180.517 340.648 180.719C342.463 180.084 344.099 178.567 345.923 178.165C350.874 177.075 356.737 180.458 359.566 174.638C361.938 169.754 361.341 165.731 364.783 160.618C364.771 158.343 364.889 156.208 365.591 154.026C366.539 151.081 368.358 148.562 369.68 145.789C371.863 141.206 373.665 136.337 376.091 131.88C370.785 129.778 364.07 131.197 358.373 131.045C345.072 130.69 332.068 124.971 320.723 118.49C316.909 116.31 310.943 113.245 309.115 109.001C308.792 108.252 308.703 107.568 309.044 106.797C309.553 105.644 310.572 104.792 311.608 104.122C315.321 101.719 328.169 96.3587 332.526 94.8698C337.049 93.324 341.713 91.8584 346.518 91.614C351.833 91.3436 356.926 92.9231 362.109 93.8176C367.31 94.7153 372.466 95.0028 377.736 94.9061Z"/>
</svg>
