<?xml version="1.0" encoding="utf-8" ?>
<svg xmlns="http://www.w3.org/2000/svg" xmlns:xlink="http://www.w3.org/1999/xlink" width="600" height="600">
	<path fill="#7F842A" d="M200.802 67.5431C203.091 68.3232 205.121 69.4409 207.068 70.8751C215.789 77.298 223.439 85.1997 231.317 92.5707C235.86 96.8202 240.505 100.786 244.879 105.242C246.986 107.388 248.784 109.779 250.803 112.001C266.771 129.571 282.266 149.442 289.031 172.621C290.104 176.3 291.118 180.264 291.662 184.057C292.047 186.748 292.169 189.467 292.577 192.157C293.096 194.364 293.027 196.636 293.391 198.865L293.751 199.058C294.528 197.718 294.012 186.287 293.617 184.46C293.637 184.35 293.66 184.24 293.679 184.13C294.587 178.802 293.587 172.459 294.153 166.855C295.936 149.208 301.762 132.362 312.347 118.019C314.66 114.885 317.255 111.433 320.39 109.075C321.235 108.439 322.453 107.634 323.57 107.839C327.442 108.552 333.698 120.614 335.508 124.033C344.756 141.271 346.708 161.497 340.924 180.185C336.607 193.918 329.051 204.631 318.932 214.651C315.811 217.742 311.726 221.035 309.622 224.902C308.58 226.818 309.066 227.993 310.035 229.826C314.203 237.709 319.093 245.194 323.022 253.225C326.865 261.091 330.402 269.104 333.624 277.245C335.471 281.833 337.03 286.783 339.24 291.183C339.729 292.155 340.345 292.793 341.145 293.507C344.032 289.755 353.012 268.572 354.197 263.972C354.95 261.05 355.276 257.915 354.897 254.911C354.527 251.973 353.323 249.452 352.039 246.826C348.217 239.01 344.758 233.283 344.876 224.295C344.929 220.252 345.76 216.899 348.281 213.673C349.791 211.742 352.368 210.03 354.844 209.771C355.97 209.653 357.049 209.946 357.929 210.666C361.232 213.369 361.793 221.041 362.026 225.006C362.459 232.35 360.951 240.651 363.627 247.581C365.84 245.543 368.067 243.506 370.089 241.276C374.416 236.502 378.216 231.421 383.348 227.409C388.333 223.51 394.698 221.799 399.545 217.747C403.045 214.82 404.892 210.531 407.619 206.972C415.76 196.347 431.344 194.447 443.789 194.931C451.702 195.238 463.176 196.886 468.826 203.078C470.724 205.157 471.585 207.387 472.393 210.01C469.643 219.356 463.835 224.335 455.396 228.892C444.467 234.794 430.189 238.481 417.96 234.724C409.583 232.151 402.901 224.041 393.853 228.722C390.291 230.566 380.082 237.26 379.108 241.364C378.925 242.14 379.054 242.248 379.45 242.883C381.446 243.888 384.283 243.367 386.434 243.163C390.84 242.746 395.441 241.935 399.856 241.938C409.484 241.945 417.041 246.345 420.13 255.679L420.262 256.085C419.022 258.408 417.961 259.895 415.302 260.712C408.774 262.717 393.833 257.181 387.09 254.899C383.593 253.715 379.804 252.042 376.073 252.014C373.246 251.992 370.8 253.055 368.325 254.287C366.696 256.447 365.073 258.595 363.728 260.949C361.922 264.11 360.737 267.547 359.164 270.821C355.128 279.219 344.133 299.398 345.437 308.243C346.373 314.593 350.154 323.909 351.87 330.738C356.723 349.99 359.164 369.771 359.137 389.625C359.132 391.291 358.643 398.224 359.663 399.195C360.743 399.174 361.657 398.168 362.366 397.445C364.777 394.986 366.824 391.918 368.982 389.211C372.118 385.35 375.303 381.529 378.536 377.749C382.451 373.15 386.59 368.986 390.721 364.606C392.756 362.449 394.569 360.086 396.657 357.978C399.155 355.458 401.942 353.189 404.541 350.77C416.021 340.085 428.251 329.382 442.996 323.415C447.816 321.465 453.067 320.674 458.156 319.729C457.94 333.628 456.695 347.732 453.483 361.299C452.574 365.139 451.263 368.955 450.044 372.708C444.061 391.131 435.428 409.722 421.273 423.348C405.89 438.156 387.681 444.07 366.678 444.961C362.471 445.139 356.173 444.458 352.332 446.49C347.707 448.937 345.34 457.46 343.128 461.955C341.563 465.173 339.861 468.323 338.025 471.395C331.296 482.833 322.598 493.041 314.408 503.438C306.144 513.928 298.367 524.541 291.319 535.899C285.026 546.04 280.092 556.583 275.571 567.602C275.709 567.46 275.85 567.32 275.986 567.176C278.032 565.006 279.766 562.097 281.611 559.713C285.123 555.173 289.129 550.561 293.191 546.5C314.2 525.494 341.257 512.076 370.107 505.78C374.978 504.717 380.17 503.293 385.152 503.004C385.793 502.967 386.342 503 386.974 503.101C387.6 504.852 383.29 514.669 382.258 516.833C376.81 528.262 369.945 538.296 361.151 547.443C359.013 549.667 356.455 551.636 354.098 553.637C338.362 566.859 320.3 577.032 300.837 583.636C295.741 585.415 290.531 587.118 285.299 588.44C280.351 589.691 274.512 590.178 269.958 592.539C268.136 593.484 266.577 594.899 265.696 596.776C265.211 597.808 264.967 598.889 264.742 600L257.629 600C259.266 589.007 266.901 569.377 271.847 559.154C273.891 554.929 286.711 530.64 286.924 528.78C287.505 523.699 284.969 517.275 283.792 512.383C282.663 507.694 281.547 502.928 280.696 498.183C273.028 455.415 267.105 393.848 288.844 354.352C290.845 350.716 296.578 340.607 300.526 339.739C300.958 339.644 301.161 339.714 301.494 340.007C303.455 341.731 306.833 354.044 307.793 357.338C316.873 388.497 323.2 420.203 325.052 452.657C325.54 461.207 324.894 469.866 325.226 478.439C325.375 478.253 325.526 478.07 325.668 477.879C339.552 459.303 349.671 430.06 351.748 407.046C351.971 404.584 351.898 402.083 351.994 399.613C352.124 396.256 352.444 392.889 352.456 389.53C352.466 386.221 352.141 382.901 352.021 379.594C351.823 374.105 351.817 368.831 351.046 363.374C349.73 354.059 346.733 347.874 339.126 342.193C335.56 339.529 331.626 337.508 327.835 335.199C321.976 331.631 316.208 327.917 310.173 324.649C304.426 321.537 297.592 316.529 290.86 316.205C285.7 315.956 273.69 325.682 268.05 328.069C259.467 331.702 249.807 333.948 240.597 335.264C224.252 337.599 198.331 336.41 184.73 326.124C182.516 324.449 179.168 322.006 178.876 319.025C178.733 317.559 179.232 316.335 180.178 315.236C183.154 311.778 188.054 309.144 191.832 306.62C194.464 304.861 197.089 302.958 199.861 301.429C208.061 296.907 218.694 294.109 228.007 293.941C234.549 293.822 241.172 294.255 247.693 293.669C243.008 290.03 218.289 275.203 213.488 274.268C210.937 273.771 208.248 274.102 205.668 273.908C197.277 273.277 189.345 272.281 181.259 269.914C167.252 265.814 151.025 258.409 139.483 249.448C136.23 246.923 133.37 244.047 130.47 241.134C126.946 237.593 123.508 233.881 121.118 229.454C118.357 224.34 116.725 217.721 118.539 212.021C119.67 208.469 122.057 205.842 125.356 204.15C141.98 195.628 165.201 212.279 177.383 222.932C181.626 226.643 185.55 230.823 189.543 234.807C193.49 238.745 197.56 242.642 201.281 246.794C208.234 254.553 215.291 265.052 223.428 271.001C226.753 273.432 230.405 275.486 233.926 277.622C241.612 282.34 249.451 286.806 257.428 291.013C263.479 294.265 269.405 297.792 275.644 300.679C285.807 305.382 296.218 309.092 306.091 314.488C311.527 317.504 316.873 320.681 322.121 324.015C326.962 327.114 338.156 335.145 342.981 336.59C343.863 336.854 344.361 336.883 345.177 336.458C345.596 335.763 345.746 335.268 345.752 334.448C345.781 330.955 344.116 326.893 343.121 323.548C337.948 306.087 331.662 288.976 324.3 272.319C322.203 267.478 320.169 261.939 317.444 257.445C316.215 255.419 314.148 253.76 312.476 252.086C310.35 251.913 308.252 251.448 306.107 251.464C302.958 251.487 299.714 251.991 296.581 252.315C285.546 253.455 276.205 254.795 265.119 252.919C253.164 250.895 242.652 244.356 234.177 235.857C232.54 234.215 230.695 232.502 229.407 230.573C228.58 229.333 227.982 227.785 228.349 226.287C228.903 224.024 231.286 222.499 233.179 221.395C241.013 216.825 253.051 212.86 262.102 213.164C268.24 213.371 274.736 215.23 280.468 217.329C285.236 219.075 289.896 221.755 294.824 222.957C295.856 223.209 296.961 223.48 297.925 222.896L298 222.336C296.873 219.156 294.91 216.069 292.931 213.352C285.868 203.65 279.952 200.943 269.91 195.442C265.568 193.064 261.209 190.286 257.126 187.482C246.562 180.227 236.7 172.355 227.645 163.293C209.113 144.747 193.792 121.945 193.885 94.6832C193.91 87.4074 195.459 72.8163 200.802 67.5431Z"/>
	<path d="M293.617 184.46C294.012 186.287 294.528 197.718 293.751 199.058L293.391 198.865C293.027 196.636 293.096 194.364 292.577 192.157C292.889 192.526 293.126 193.003 293.42 193.397C293.72 192.905 293.547 185.586 293.617 184.46Z"/>
</svg>
