<?xml version="1.0" encoding="utf-8" ?>
<svg xmlns="http://www.w3.org/2000/svg" xmlns:xlink="http://www.w3.org/1999/xlink" width="600" height="600">
	<path fill="#81842B" d="M200.709 67.685C208.178 69.8412 218.82 80.7836 224.582 86.2827C230.698 92.1194 237.083 97.7344 243.041 103.723C256.736 117.487 270.545 134.354 279.922 151.359C283.688 158.189 287.18 165.968 289.234 173.506C290.358 177.633 290.721 181.845 291.676 185.983C292.37 188.988 293.554 191.902 294.445 194.859C294.329 185.631 293.586 176.208 294.251 166.996C295.682 147.183 304.86 124.9 318.707 110.531C319.748 109.452 321.505 107.768 323.14 107.862C325.383 107.992 327.548 111.107 328.736 112.813C340.708 130 346.82 150.938 342.928 171.796C339.97 187.644 331.516 201.896 320.225 213.26C316.263 217.248 310.634 221.297 308.843 226.821C310.902 233.375 315.463 239.661 318.817 245.638C322.39 252.116 325.676 258.748 328.666 265.514C331.146 271.171 333.395 276.996 335.653 282.747C336.725 285.48 337.586 288.477 339.057 291.02C339.608 291.972 340.334 292.676 341.151 293.398C345.058 287.647 352.81 269.927 354.429 262.744C355.022 260.112 355.301 257.294 354.825 254.619C352.842 243.472 345.135 237.97 345.02 224.42C344.991 220.915 345.624 217.538 347.649 214.595C349.081 212.513 351.339 210.317 353.922 209.85C355.27 209.606 356.591 209.896 357.686 210.728C360.748 213.054 361.495 218.878 361.855 222.468C362.692 230.814 360.779 239.727 363.719 247.735C366.027 245.313 368.44 242.973 370.685 240.497C374.784 235.976 378.646 230.899 383.643 227.332C388.499 223.865 394.36 221.897 398.999 218.194C402.717 215.226 404.808 211.087 407.522 207.294C414.114 198.077 426.678 195.371 437.311 195.104C446.984 194.861 459.919 194.904 467.422 201.998C469.687 204.14 471.334 206.762 472.155 209.783C470.204 217.671 464.757 223.235 457.929 227.329C446.778 234.015 431.98 238.205 419.056 234.87C408.426 232.128 403.534 222.987 391.688 229.899C388.66 231.666 380.248 237.3 379.479 240.905C379.296 241.762 379.408 241.948 379.786 242.688C381.457 243.735 383.547 243.249 385.421 243.103C395.953 242.283 407.593 239.724 415.679 248.298C417.308 250.025 419.074 252.296 419.639 254.624C419.916 255.769 419.815 256.913 419.173 257.921C418.032 259.714 415.536 260.684 413.534 261.025C406.492 262.225 393.592 256.91 386.593 254.535C383.46 253.471 380.229 252.208 376.895 252.016C373.069 251.795 369.001 253.17 366.653 256.286C362.907 261.257 360.593 267.653 357.937 273.258C353.275 283.095 343.911 298.725 345.668 309.923C346.643 316.136 349.353 322.224 351.088 328.26C354.172 338.987 356.338 350.485 357.435 361.585C357.893 366.231 358.393 370.922 358.617 375.584C358.814 379.69 358.311 396.963 359.295 399.32C360.658 399.285 361.474 398.473 362.394 397.529C364.646 395.219 366.498 392.417 368.52 389.9C372.03 385.53 375.691 381.257 379.339 377.002C382.546 373.26 386.084 369.764 389.456 366.168C391.812 363.655 393.986 360.972 396.394 358.51C399.644 355.186 403.179 352.162 406.616 349.039C416.886 339.708 427.377 330.522 440.164 324.761C445.777 322.231 451.996 320.71 458.092 319.886C458.31 324.276 457.888 328.778 457.59 333.161C455.581 362.673 445.047 397.146 424.875 419.402C409.029 436.886 389.394 443.729 366.36 444.835C361.345 445.076 353.714 444.142 350.128 448.221C346.56 452.279 344.859 457.96 342.608 462.789C340.758 466.757 338.512 470.826 336.132 474.5C329.551 484.66 321.746 494.006 314.282 503.516C299.54 522.296 283.661 543.906 276.142 566.804L276.451 566.474C279.275 563.424 281.659 559.913 284.254 556.663C288.176 551.7 292.47 547.043 297.099 542.732C316.961 524.127 342.047 512.524 368.315 506.294C373.575 505.047 379.055 503.446 384.462 503.194C385.296 503.156 386.131 503.129 386.965 503.114C384.998 516.375 371.605 536.504 362.296 546.127C357.4 551.188 351.605 555.714 345.957 559.908C329.443 572.169 310.228 581.236 290.497 586.969C284.248 588.784 275.39 589.653 270.003 592.388C266.855 593.986 265.458 596.757 264.468 600L257.401 600C260.615 586.12 265.653 572.977 271.455 559.998C274.311 553.611 286.328 533.089 286.884 527.774C287.425 522.6 284.048 512.935 282.865 507.633C281.239 500.345 279.693 493.118 278.558 485.731C272.353 445.366 268.907 391.39 288.962 354.334C291.222 350.158 295.227 342.639 299.255 340.234C299.781 339.92 300.237 339.8 300.848 339.738C301.793 340.075 302.192 340.99 302.61 341.839C305.19 347.076 308.224 358.741 309.821 364.744C317.182 392.412 322.718 420.115 324.656 448.735C325.057 454.653 324.987 460.749 324.912 466.682C324.864 470.52 324.625 474.46 325.097 478.276C330.158 472.501 334.036 464.844 337.344 457.93C344.353 443.277 349.791 426.415 351.544 410.227C352.94 397.337 352.422 380.582 351.584 367.691C351.03 359.169 348.578 350.275 341.957 344.438C337.462 340.477 332.036 337.718 326.962 334.6C318.466 329.379 307.276 322.06 298.233 318.17C295.954 317.189 293.093 316.15 290.588 316.264C283.852 316.572 273.936 325.465 267.302 328.317C245.157 337.839 201.977 341.039 182.803 324.476C181.25 323.135 179.336 321.201 179.095 319.078C178.89 317.285 180.179 315.539 181.312 314.299C183.944 311.416 187.637 309.375 190.873 307.249C193.709 305.385 196.501 303.383 199.463 301.722C208.564 296.618 219.107 294.296 229.472 294.009C235.501 293.841 241.637 293.705 247.665 293.729L247.354 293.452C242.678 289.347 220.807 276.68 214.934 274.809C211.234 273.63 206.844 273.841 202.966 273.526C197.974 273.12 192.914 272.499 188.019 271.424C171.101 267.706 153.446 260.103 139.78 249.421C136.618 246.949 133.773 244.155 130.92 241.34C124.514 235.019 118.955 228.39 118.178 219.076C117.828 214.888 118.303 210.799 121.179 207.497C124.364 203.842 129.105 202.193 133.834 201.946C150.414 201.08 167.955 214.326 179.6 225.002C183.354 228.445 186.901 232.169 190.504 235.771C193.91 239.178 197.447 242.527 200.616 246.158C207.533 254.081 213.797 263.213 222.024 269.804C227.577 274.254 234.188 277.764 240.31 281.364C252.53 288.55 265.079 295.596 277.884 301.674C283.191 304.193 288.791 306.1 294.148 308.527C303.433 312.811 312.406 317.743 321.001 323.285C325.617 326.199 339.755 336.659 344.2 336.916C345.041 336.406 345.578 336.004 345.79 334.964C347.204 328.019 324.263 271.126 320.016 262.314C318.659 259.498 317.08 256.434 315.031 254.048C313.426 252.178 310.265 251.697 307.945 251.599C301.211 251.315 294.394 252.637 287.694 253.199C264.352 255.158 248.107 250.903 231.703 233.274C230.122 231.575 228.405 229.341 228.539 226.887C228.628 225.243 229.588 224.057 230.815 223.042C236.55 218.297 249.023 214.41 256.469 213.537C259.601 213.19 262.762 213.209 265.889 213.595C269.649 214.041 273.358 214.85 276.962 216.011C280.201 217.087 295.251 224.586 297.917 222.81C298.217 220.076 292.755 212.928 290.96 210.698C283.019 200.826 271.181 196.775 260.953 189.897C226.792 166.923 189.786 131.782 194.509 86.7281C195.178 80.347 196.231 72.6173 200.709 67.685Z"/>
</svg>
