<?xml version="1.0" encoding="utf-8" ?>
<svg xmlns="http://www.w3.org/2000/svg" xmlns:xlink="http://www.w3.org/1999/xlink" width="1000" height="1000">
	<path fill="#676B25" d="M507.153 396.884C508.232 396.866 509.263 396.861 510.321 397.098C517.914 398.797 532.987 405.113 538.664 410.449C540.012 411.716 541.022 413.46 542.012 415.013C542.015 416.537 541.893 418.351 542.289 419.827C545.346 431.224 553.366 447.267 560.304 456.857C565.328 463.801 570.947 470.43 575.244 477.886C581.439 488.637 585.611 500.438 591.363 511.435C593.612 515.734 596.477 519.64 599.125 523.692L613.061 544.704C614.785 547.259 616.443 551.054 618.236 553.243C618.853 553.997 619.796 554.562 620.634 555.04C620.727 555.3 620.825 555.559 620.915 555.82C622.157 559.411 626.579 562.495 628.991 565.64C631.08 568.364 634.62 573.42 633.632 576.97C633.232 578.408 632.67 578.441 631.417 579.098C623.441 579.272 613.718 576.12 607.359 571.147C603.034 567.764 599.531 564.155 594.783 561.279C594.348 560.177 593.852 558.526 593.052 557.651C590.079 554.397 586.401 555.828 582.347 549.205C580.918 546.871 579.395 542.409 576.945 541.364C576.358 541.113 576.179 541.148 575.702 540.843C573.862 539.667 571.178 534.911 569.726 533.041C561.558 522.519 554.505 511.798 549.494 499.345C548.008 495.652 547.187 491.693 545.832 487.948C543.752 482.199 541.57 476.783 540.098 470.819C538.904 465.979 538.344 461.034 537.218 456.198C536.538 453.275 534.649 450.849 534.168 447.829C533.064 440.906 535.591 433.919 534.042 427.112C530.633 412.126 520.694 414.564 510.341 407.686C508.153 406.233 506.157 404.374 505.685 401.679C505.339 399.707 506.13 398.464 507.153 396.884Z"/>
	<path fill="#676B25" d="M183.125 414.719C186.951 416.691 189.604 420.678 192.275 423.963C187.819 437.104 190.565 452.57 189.952 466.316C189.48 476.865 188.523 487.395 188.154 497.958C187.309 522.151 187.63 547.192 189.156 571.346C190.238 588.47 193.481 605.456 196.143 622.384C202.46 662.56 208.772 697.756 220.39 736.986C224.994 752.534 230.138 768.138 236.162 783.206C238.521 789.105 256.155 828.121 255.924 829.408C255.541 831.534 253.437 832.476 251.773 833.54C250.343 833.967 248.979 834.035 247.63 833.326C243.022 830.905 239.812 825.511 237.226 821.176C225.937 802.251 221.57 782.485 215.735 761.644C213.285 752.894 210.43 744.265 208.015 735.506C196.7 694.478 190.892 652.341 185.253 610.241C182.434 589.197 178.755 567.783 178.039 546.561C177.565 532.499 177.636 518.137 178.333 504.083C178.868 493.305 179.993 482.449 179.947 471.656C179.886 457.371 176.327 426.704 183.125 414.719Z"/>
	<path fill="#676B25" d="M214.017 642.814C214.326 642.873 214.797 642.951 215.119 643.046C217.221 643.668 219.381 644.901 221.349 645.872C232.46 651.353 232.304 658.145 237.84 667.465C242.437 675.204 247.338 674.248 254.974 676.286C265.111 678.992 275.277 690.136 280.43 698.828C287.527 710.797 289.103 728.749 285.601 742.06C283.803 748.895 280.08 753.434 274.068 756.975C267.103 759.989 259.496 760.712 252.173 758.539C244.328 756.202 237.761 750.792 233.965 743.539C227.201 730.818 221.52 706.957 226.1 692.868C227.883 687.383 231.877 682.638 233.394 677.232C235.995 667.967 218.285 654.426 214.08 646.244C213.346 644.815 213.552 644.316 214.017 642.814Z"/>
	<path fill="#676B25" d="M169.21 526.335C169.726 526.385 170.143 526.593 170.622 526.782C172.188 529.414 171.545 534.042 171.486 537.039C161.062 553.042 144.758 564.068 139.283 583.24C140.892 587.954 143.788 591.471 145.814 595.91C150.418 605.999 145.56 632.764 141.875 643.048C138.731 651.826 132.952 659.968 124.233 663.863C117.922 666.681 111.399 666.583 105.016 664.174C102.671 662.601 100.655 660.296 99.1338 657.934C92.4723 647.589 91.6212 630.089 94.3048 618.364C97.3893 604.887 108.218 591.745 119.493 584.094C123.306 581.507 127.971 580.489 131.049 576.818C134.923 572.196 137.819 566.319 141.027 561.202C146.675 552.195 160.49 531.754 169.21 526.335Z"/>
	<path fill="#676B25" d="M100.057 321.033C111.286 321.154 122.454 322.692 133.297 325.613C142.567 328.082 152.048 331.449 161.685 332.033C176.704 332.944 191.933 331.089 206.987 332.28C216.462 333.03 226.499 337.103 235.134 337.226C244.355 337.357 251.951 331.685 261.518 333.886C269.356 335.689 277.345 340.807 284.76 343.999C294.511 348.195 305.174 350.543 314.118 356.525C316.948 358.417 320.588 362.623 322.235 365.604C322.912 366.83 323.066 367.432 322.722 368.772C313.77 374.411 307.897 364.35 300.293 363.074C299.996 363.024 299.698 362.988 299.4 362.946C294.873 362.362 290.349 361.763 285.913 360.662C279.077 358.965 272.303 356.576 265.334 355.489C259.033 354.506 252.72 356.269 246.531 355.28C241.316 354.446 236.679 351.401 231.376 350.742C224.236 349.855 217.391 352.554 210.323 352.68C205.165 352.772 200.37 350.736 195.304 350.117C189.969 349.465 184.537 349.916 179.207 349.238C170.98 348.191 163.619 343.654 155.403 342.91C150.366 342.454 145.202 342.914 140.142 342.761C136.408 342.648 132.536 341.805 128.827 342.058C123.354 342.432 118.004 344.574 112.476 344.352C101.862 343.926 93.0036 333.973 82.5878 331.714C78.5434 330.837 71.4145 331.407 68.5387 328.259C68.5374 327.604 68.3496 327.292 68.8843 326.814C72.9839 323.145 94.3311 321.109 100.057 321.033Z"/>
	<path fill="#676B25" d="M408.526 597.894C410.411 598.375 412.046 600.289 413.466 601.58C411.177 607.673 407.636 613.357 404.538 619.062C400.96 625.649 391.676 646.365 394.149 653.516C395.494 657.403 399.823 658.791 403.171 660.439C411.869 664.721 416.373 670.177 419.424 679.328C416.311 684.476 411.881 689.026 408.311 693.892C397.624 708.456 386.691 724.145 379.637 740.847C378.862 742.519 378.232 744.452 376.686 745.55C374.247 745.491 370.58 742.464 368.687 740.911C360.215 733.959 354.26 723.586 353.188 712.631C351.432 694.672 358.313 677.595 373.035 666.816C376.928 663.966 382.019 662.542 384.215 657.879C386.805 652.378 387.326 645.793 388.782 639.913C392.229 625.984 399.393 609.112 408.526 597.894Z"/>
	<path fill="#676B25" d="M532.029 761.299C532.376 761.266 532.724 761.239 533.072 761.22C537.542 760.992 542.659 763.746 545.851 766.685C553.676 773.892 556.459 785.272 556.897 795.523C557.508 809.811 552.737 825.324 542.87 835.941C538.069 841.108 532.213 843.919 525.151 844.23C520.076 844.397 514.324 844.329 509.864 841.608C504.142 838.117 501.122 831.643 499.745 825.314C496.52 810.495 498.269 792.288 506.621 779.365C512.863 769.707 520.84 763.724 532.029 761.299Z"/>
	<path fill="#676B25" d="M635.496 506.821C637.117 506.756 638.901 506.619 640.222 507.753C643.927 510.935 641.481 524.327 643.49 529.919C645.951 536.767 653.328 545.147 657.292 551.666C662.465 560.174 662.993 571.176 664.901 580.757C666.125 586.899 667.699 592.463 668.189 598.762C668.451 602.128 668.974 605.818 668.774 609.184C668.21 618.685 657.382 653.887 653.272 662.831C649.19 671.715 643.185 681.428 636.834 688.85C634.553 690.27 631.781 690.474 629.176 690.906C628.248 680.516 632.043 675.605 634.097 666.147C636.552 654.838 638.386 643.606 639.994 632.162C640.794 626.472 641.848 620.736 641.989 614.984C642.131 609.195 639.547 593.546 643.011 589.376C645.909 588.194 649.235 589.781 652.038 590.695C646.935 581.863 635.21 569.7 635.288 559.148C635.338 552.411 631.319 546.202 630.891 539.395C630.617 535.03 632.612 531.306 632.941 527.075C633.439 520.67 630.804 512.049 635.496 506.821Z"/>
	<path fill="#676B25" d="M748.963 290.138C754.349 290.237 758.348 292.008 762.239 295.736C771.054 304.186 774.791 318.519 775.048 330.352C775.55 353.479 761.909 352.062 748.549 366.048C744.222 366.433 739.873 365.598 735.605 366.079C734.896 368.036 734.2 369.912 733.237 371.765C732.1 372.301 731.307 372.463 730.054 372.541C726.819 370.324 730.27 364.687 727.998 361.405C723.477 354.877 717.888 357.759 715.642 345.845C713.056 332.127 719.283 316.869 727.033 305.79C732.316 298.238 739.69 291.834 748.963 290.138Z"/>
	<path fill="#676B25" d="M505.385 427.858C507.509 427.815 510.493 427.664 512.305 429.016C513.772 430.111 514.293 431.569 514.664 433.295C516.583 442.234 514.879 456.082 514.22 465.253C513.694 472.576 514.579 479.973 514.072 487.295C513.337 497.92 506.594 515.016 500.96 524.058C498.96 527.268 495.704 533.172 491.851 534.022C490.76 534.263 490.175 534.323 489.341 535.134C489.299 535.608 489.252 536.081 489.2 536.553C489.005 538.22 488.943 538.7 487.587 539.784C486.19 539.953 484.898 539.939 483.808 540.931C481.014 548.67 473.17 548.143 469.452 554.439C469.112 555.016 468.813 555.522 468.401 556.062C461.29 565.377 446.685 570.156 435.59 571.869C434.187 572.126 432.743 572.508 431.455 571.658C430.074 570.746 429.531 569.329 429.275 567.774C428.719 564.385 429.213 556.518 430.737 553.454C431.692 551.534 433.512 549.93 434.348 547.985C435.597 545.079 434.957 542.296 436.998 539.543C438.573 537.419 440.694 535.681 442.545 533.803C455.884 520.269 462.229 519.549 478.142 511.314C484.476 508.036 490.837 503.723 497.931 502.525C505.293 493.017 504.43 480.959 505.072 469.583C505.432 463.216 506.148 456.851 505.812 450.465C505.522 444.968 504.225 439.528 503.956 434.048C503.835 431.569 503.693 429.738 505.385 427.858Z"/>
	<path fill="#959A38" d="M631.998 775.917C648.271 772.738 662.448 767.397 677.855 761.556C688.172 757.645 698.363 753.964 708.111 748.696C719.26 742.67 729.79 735.256 740.487 728.464C753.349 720.298 765.673 712.61 777.525 702.952C782.713 698.725 789.289 695.566 793.101 689.986C799.709 680.316 802.005 664.886 799.626 653.547C798.308 647.268 791.487 635.897 793.702 630.148L794.798 629.262C796.002 629.43 796.387 629.695 797.076 630.729C798.547 632.934 799.324 636.256 800.17 638.76C804.611 651.898 807.339 666.998 803.783 680.7C801.154 690.829 794.479 698.369 788.104 706.344C784.373 711.011 782.057 716.698 778.136 721.153C767.698 733.013 735.433 754.465 720.84 762.884C704.11 772.538 671.917 789.365 652.597 784.363C647.124 782.947 642.329 780.012 636.615 779.508C633.887 780.039 630.257 780.108 627.477 779.915C626.234 779.828 625.371 779.783 624.549 778.797C624.637 778.645 624.711 778.484 624.814 778.342C626.193 776.435 629.833 776.295 631.998 775.917Z"/>
	<path fill="#7C802B" d="M636.615 779.508C633.887 780.039 630.257 780.108 627.477 779.915C626.234 779.828 625.371 779.783 624.549 778.797C624.637 778.645 624.711 778.484 624.814 778.342C626.193 776.435 629.833 776.295 631.998 775.917C631.404 777.216 631.115 777.378 631.5 778.729C632.804 779.261 634.037 779.189 635.418 779.252C636.299 779.292 635.96 779.201 636.615 779.508Z"/>
	<path fill="#676B25" d="M448.949 162.895C450.05 162.848 450.772 163.091 451.8 163.465C452.379 164.445 452.475 164.851 452.354 166.057C452.053 169.069 449.733 171.078 447.611 172.914C439.691 173.501 443.92 176.919 437.253 180.003C431.951 182.455 426.5 185.606 421.063 187.626C414.351 190.12 407.192 189.226 401.268 193.865C400.398 193.889 399.535 193.946 398.667 193.996C394.246 194.25 390.479 196.674 386.192 197.603C375.192 199.985 364.129 201.226 353.161 204.02C348.356 205.244 343.621 206.493 338.944 208.155C333.632 210.042 328.199 212.428 322.757 213.849C318.951 214.842 314.774 214.757 310.874 215.491L310.329 215.597C309.005 214.282 307.574 211.898 307.47 209.984C307.454 209.689 307.476 209.39 307.532 209.101C308.12 206.093 312.27 204.678 314.706 203.564C323.602 199.496 327.852 192.486 334.609 185.911C337.427 183.169 341.018 181.26 344.364 179.235C351.13 175.141 357.772 171.987 365.526 170.14C369.675 169.152 374.021 169.12 378.255 168.748C384.322 168.214 390.448 167.594 396.534 167.387C404.981 167.1 413.475 167.293 421.911 166.711C431.751 166.033 438.177 162.856 448.949 162.895Z"/>
	<path fill="#676B25" d="M777.141 357.568C787.858 357.181 801.089 361.403 810.479 366.334C818.481 370.536 826.35 377.468 828.901 386.445C830.153 390.85 829.838 395.398 827.426 399.353C822.165 407.98 810.002 412.669 800.674 414.948C796.158 415.628 791.7 415.949 787.136 416.026C786.492 412.002 786.009 408.845 783.397 405.533C777.122 397.578 758.138 393.1 748.141 391.738C748.643 384.399 750.813 376.874 755.149 370.852C760.743 363.081 767.761 359.078 777.141 357.568Z"/>
	<path fill="#959A38" d="M437.87 625.366C439.591 625.975 441.452 626.674 442.251 628.457C443.317 630.838 440.139 639.764 439.586 642.891C438.06 651.519 437.25 660.26 435.783 668.905C432.443 688.586 426.126 712.859 417.916 730.916C414.458 738.522 410.705 746.25 406.419 753.423C402.741 759.579 398.556 765.432 394.774 771.526C377.896 798.716 371.607 814.365 339.474 826.389C338.093 826.908 337.365 827.074 336.007 826.554C335.653 823.495 342.657 819.263 344.923 817.518C346.93 815.972 349.143 814.453 350.971 812.701C366.344 797.972 373.212 771.955 381.209 752.524C385.631 741.781 390.805 731.604 396.735 721.613C401.918 712.88 408 704.42 414.109 696.307C418.842 690.021 425.394 683.552 428.407 676.298C431.236 669.489 431.364 661.778 432.086 654.525C433.076 644.574 434.322 634.777 437.87 625.366Z"/>
	<path fill="#676B25" d="M240.219 487.023C242.337 487.168 244.444 487.396 246.495 487.972C256.412 490.76 263.434 498.606 268.202 507.399C266.272 510.987 264.155 514.47 261.861 517.836C259.549 521.232 253.478 527.535 252.425 531.105C252.297 531.538 252.349 532.383 252.353 532.834C252.37 534.548 252.818 535.674 254.025 536.903C257.779 538.699 262.076 535.983 265.879 535.329C267.165 535.107 267.68 535.44 268.646 536.214C268.885 537.05 268.935 537.554 268.749 538.426C267.407 544.714 259.566 553.566 254.169 556.748C251.349 557.942 248.603 558.835 245.581 559.373C238.411 560.649 230.737 559.856 224.701 555.473C217.264 550.072 212.585 539.7 211.284 530.804C209.66 519.708 211.42 508.482 218.324 499.426C224.004 491.976 231.037 488.292 240.219 487.023Z"/>
	<path fill="#7C802B" d="M459.54 672.542C460.752 673.021 461.056 673.116 461.869 674.113C461.846 679.74 461.369 685.346 461.382 690.986C461.412 704.192 462.057 717.894 460.783 731.037C458.617 753.387 444.687 794.422 433.392 814.31C421.636 835.011 406.45 852.869 397.733 875.363C394.481 883.756 392.031 892.437 389.851 901.16C389.263 903.513 389.102 906.071 388.454 908.352C388.033 909.834 387.188 910.284 385.968 911.096C385.192 910.097 384.735 908.866 384.436 907.644C377.99 881.283 392.153 848.864 407.58 827.707C414.141 818.71 422.149 810.685 426.134 800.076C428.747 793.121 430.439 785.721 432.724 778.64C435.873 768.883 439.581 759.342 441.923 749.336C447.074 727.338 448.934 705.117 455.575 683.394C456.66 679.845 457.537 675.692 459.54 672.542Z"/>
	<path fill="#7C802B" d="M459.571 166.017C460.058 166.259 460.341 166.361 460.758 166.714C461.717 167.524 462.252 168.851 462.269 170.098C462.301 172.485 460.378 174.576 458.798 176.155C445.275 189.675 426.02 200.204 410.086 210.667C395.503 220.242 381.381 231.134 365.527 238.562C355.265 243.371 344.263 247.172 333.706 251.331C329.796 252.871 325.532 254.091 321.819 256.048C310.034 262.259 300.953 276.494 287.514 278.584C283.094 279.272 278.293 278.921 273.822 278.878L273.112 278.703C271.776 277.097 272.26 275.042 272.375 273.041L276.08 269.033C283.982 268.991 291.011 268.73 298.316 265.31C306.696 261.388 311.831 254.197 318.207 247.809C321.931 244.078 325.988 240.685 329.693 236.932C333.122 233.459 336.097 229.559 339.507 226.065C345.413 220.012 355.529 211.886 362.687 207.388C366.994 204.681 374.609 204.376 379.614 203.338C404.525 198.174 428.752 192.882 448.946 176.273C452.79 173.111 455.98 169.427 459.571 166.017Z"/>
	<path fill="#676B25" d="M276.629 533.91C277.015 534.087 277.156 534.128 277.52 534.422C279.078 535.681 284.537 550.588 285.286 553.158C286.47 557.218 286.078 561.659 287.061 565.775C289.399 575.568 297.355 595.627 297.707 604.307C297.824 607.189 295.649 610.055 293.727 612.008C286.451 619.403 276.259 622.469 266.139 622.463C263.157 622.096 260.192 621.522 257.49 620.151C251.547 617.136 248.411 610.583 246.574 604.474C245.502 600.938 244.738 597.316 244.289 593.648C243.757 588.933 243.297 570.367 246.894 567.084C248.179 565.911 250.897 564.99 252.53 564.287C258.203 561.845 262.891 559.023 266.915 554.249C272.477 547.65 272.865 540.918 276.629 533.91Z"/>
	<path fill="#676B25" d="M201.609 619.173C213.455 618.239 222.673 623.376 233.321 627.71C236.388 628.959 239.619 629.763 242.751 630.829C250.898 633.602 257.122 638.686 264.332 643.063C268.554 645.626 273.165 647.468 277.403 649.983C280.366 651.742 283.007 654.013 285.937 655.817C288.54 657.419 291.513 658.356 293.936 660.261C295.372 661.39 296.156 662.609 296.959 664.226C303.271 666.132 309.12 670.989 313.228 676.118C316.44 680.128 316.388 683.346 315.866 688.196C315.224 694.15 316.806 699.346 315.016 705.223C313.763 705.695 312.231 706.197 310.871 706.053C303.334 705.254 283.632 686.02 278.207 680.475C274.84 677.033 271.743 672.893 268.044 669.838C260.386 663.515 250.509 660.035 243.56 652.682C243.298 652.628 243.037 652.569 242.775 652.519C241.619 652.299 240.412 652.134 239.309 651.703C234.516 649.834 229.807 646.368 225.346 643.778C217.71 639.344 205.734 635.314 201.845 626.639C200.607 623.878 200.605 621.98 201.609 619.173Z"/>
	<path fill="#676B25" d="M722.585 447.939C724.541 447.792 726.515 447.639 728.472 447.857C734.878 448.568 740.41 453.151 744.212 458.112C748.511 463.72 750.979 470.559 749.93 477.685C748.894 484.731 744.011 490.328 738.359 494.288C728.439 501.163 716.204 503.841 704.319 501.738C699.69 500.349 695.504 497.902 690.961 496.274C686.093 494.529 681.136 493.827 676.365 491.672L676.18 490.5C677.742 487.809 681.47 487.254 683.072 484.607C686.767 478.501 684.692 471.752 690.572 464.359C697.794 455.278 711.275 449.279 722.585 447.939Z"/>
	<path fill="#7C802B" d="M399.228 388.368C399.799 388.285 400.376 388.198 400.951 388.158C402.443 388.055 403.517 388.35 404.641 389.314L404.266 390.287C399.079 394.519 390.12 395.222 383.943 397.95C374.212 402.248 365.842 408.477 355.58 412.247C334.628 419.943 300.176 426.73 279.322 418.128C272.109 415.152 265.463 410.821 258.673 407.011C253.505 404.112 248.176 401.584 242.812 399.076C238.276 396.958 233.462 395.471 228.865 393.487C227.117 392.733 224.805 391.908 224.074 390.07C228.31 387.048 257.753 392.352 264.5 393.246C292.466 396.949 320.386 401.26 348.595 397.494C358.52 396.169 368.345 393.468 378.157 391.473C385.121 390.057 392.18 389.237 399.228 388.368Z"/>
	<path fill="#676B25" d="M634.306 356.93C638.666 356.797 643.041 358.238 646.203 361.301C650.937 365.885 652.093 373.154 652.199 379.473C652.37 389.605 648.341 398.717 641.238 405.899C632.036 415.203 620.374 419.324 607.487 419.422C606.128 419.321 604.839 419.16 603.51 418.84C598.746 417.693 594.973 414.764 592.481 410.567C588.526 403.908 589.23 394.163 591.202 386.917C591.85 384.537 592.767 381.613 594.631 379.905C596.142 378.52 598.282 377.732 600.125 376.882C612.23 371.294 622.743 363.482 634.306 356.93Z"/>
	<path fill="#7C802B" d="M683.513 277.529C684.442 277.978 684.577 278.175 685.169 278.974C686.243 284.65 682.595 301.437 680.736 307.31C679.545 311.038 677.873 314.596 675.764 317.893C667.512 330.53 611.613 364.503 595.34 371.947C582.871 377.65 567.817 383.183 554.22 385.025C540.16 386.929 526.386 380.651 512.412 382.52C505.643 383.426 494.886 389.466 491.178 389.709C489.724 389.805 489.101 389.1 487.989 388.321C484.95 386.255 481.956 384.125 479.007 381.931C482.503 379.653 486.286 378.08 490.4 377.372C497.568 376.137 505.395 376.99 512.685 376.887C526.641 376.691 541.303 376.308 555.143 374.39C568.958 372.475 582.788 368.308 595.059 361.622C603.311 357.125 610.406 350.843 617.68 344.958C635.866 330.247 654.412 314.993 669.481 296.998C674.663 290.81 678.671 283.936 683.513 277.529Z"/>
	<path fill="#7C802B" d="M701.663 239.284C702.263 239.42 702.878 239.762 703.443 240.009C703.777 243.962 697.218 248.588 694.514 251.169C683.181 261.985 677.095 276.787 667.755 289.157C654.453 306.775 636.657 321.173 619.823 335.261C610.893 342.736 601.978 350.927 591.562 356.281C577.766 363.373 563.571 366.673 548.352 368.832L546.877 368.54C545.975 367.786 545.922 367.883 545.817 366.729C547.363 363.716 561.04 359.231 565.059 357.167C574.749 352.191 583.615 344.875 592.465 338.508C604.963 329.519 616.747 319.059 627.522 308.063C645.413 289.807 678.508 246.956 701.663 239.284Z"/>
	<path fill="#676B25" d="M720.933 239.348C727.473 238.936 734.497 239.059 740.811 241.034C746.207 242.721 750.789 246.159 753.268 251.32C755.899 256.795 756.025 263.635 753.834 269.275C749.853 279.521 736.16 290.006 726.337 294.267C722.99 295.302 719.948 295.52 716.483 295.214C707.437 294.415 698.625 290.607 692.726 283.629C694.022 272.212 699.331 259.9 705.576 250.338C709.434 244.43 713.986 240.842 720.933 239.348Z"/>
	<path fill="#676B25" d="M152.279 349.629C153.11 349.509 153.916 349.459 154.754 349.52C159.07 349.832 166.38 351.476 169.684 354.346C172.309 356.627 173.732 360.367 175.288 363.419C184.351 381.192 191.619 388.802 204.538 403.326C210.803 404.045 216.428 405.745 222.321 407.95C232.686 411.829 241.608 418.563 246.184 428.911C247.786 432.534 248.657 436.33 249.095 440.258C249.54 444.254 249.678 479.049 248.787 481.351C246.51 481.751 243.994 480.896 241.76 480.411C240.772 468.724 244.429 448.22 241.719 438.418C240.874 435.364 239.292 432.978 237.418 430.488C234.018 426.308 221.642 414.591 216.53 414.379C215.184 414.323 214.844 414.812 213.939 415.66C213.769 416.212 213.438 416.739 213.428 417.316C213.339 422.184 233.877 436.291 236.37 442.699C237.453 445.482 236.851 453.975 235.719 456.768L234.878 457.113C233.528 456.734 232.672 456.117 231.616 455.199C229.419 453.287 227.532 450.91 225.495 448.816C220.268 443.44 215.19 438.029 210.08 432.539C204.263 426.29 198.085 420.413 192.364 414.062C183.16 403.847 173.805 392.699 167.128 380.638C163.721 374.484 161.235 367.934 157.981 361.738C156.272 358.483 152.092 353.199 152.279 349.629Z"/>
	<path fill="#959A38" d="M531.03 687.215C535.601 686.872 540.248 687.343 544.729 688.256C551.546 689.646 558.049 692.345 564.707 694.324C579.406 698.693 596.054 701.257 609.08 709.739C608.428 714.471 605.633 725.134 609.051 728.811C610.734 730.622 613.592 730.148 615.833 730.107C619.084 727.242 621.554 723.654 624.131 720.199C632.294 724.148 645.862 733.773 652.957 739.796C651.641 741.103 650.072 742.076 648.542 743.112C645.351 745.292 642.156 747.35 638.798 749.261C630.214 746.113 621.286 743.887 612.682 740.728C597.174 735.034 582.294 727.152 568.046 718.856C558.109 713.07 549.127 705.797 539.263 699.978C533.806 696.759 526.074 695.212 522.026 692.646C520.712 691.813 519.998 691.001 519.662 689.44L520.2 688.787C523.637 687.622 527.431 687.525 531.03 687.215Z"/>
	<path fill="#676B25" d="M304.488 286.831C309.481 285.929 317.104 286.284 321.731 288.378C328.336 291.369 333.756 299.411 336.207 306.077C339.522 315.096 340.307 329.023 336.025 337.817C333.544 342.912 329.831 345.361 324.647 347.086C323.639 347.327 322.622 347.532 321.599 347.7C315.582 348.64 308.77 346.658 303.983 343C295.464 336.489 291.767 322.575 290.578 312.373C289.778 305.509 289.605 294.626 294.548 289.162C296.831 286.638 301.355 287.009 304.488 286.831Z"/>
	<path fill="#7C802B" d="M390.481 62.1226C393.067 61.9057 399.003 61.2247 401.284 62.3545C402.41 62.9119 402.546 63.5158 402.924 64.599C402.44 65.6866 402.373 65.7556 401.138 66.1161C398.215 66.9696 394.922 67.2888 391.925 67.9233C379.613 70.5296 365.208 73.4155 355.173 81.4453C349.321 86.1279 345.244 92.3378 341.73 98.8729C338.321 105.211 335.666 111.958 332.631 118.482C327.489 129.537 322.05 139.925 318.557 151.714C315.092 163.41 314.323 175.508 311.695 187.357C310.562 192.46 307.662 197.122 306.021 202.086C304.061 208.016 302.736 214.145 300.857 220.099C296.366 234.323 288.22 246.416 278.065 257.179C276.58 258.784 274.996 261.066 273.203 262.267C272.333 262.851 272.047 262.791 271.082 262.644L270.335 261.458C270.323 260.363 293.276 217.938 296.013 211.372C302.728 195.261 304.609 176.451 306.33 159.198C307.96 142.852 307.058 127.401 316.702 113.133C322.129 105.104 329.721 98.434 336.434 91.479C340.652 87.1083 344.475 82.355 348.785 78.0778C360.559 66.3916 374.953 65.1096 390.481 62.1226Z"/>
	<path fill="#7C802B" d="M417.144 390.343C417.309 390.41 417.483 390.459 417.64 390.543C420.248 391.947 421.019 395.618 421.718 398.341C429.626 429.137 425.117 467.794 408.806 495.39C400.62 509.24 388.143 519.106 372.534 523.139C370.483 523.807 367.391 525.165 365.295 524.627L364.889 523.435C365.089 522.349 365.236 521.627 365.811 520.663C367.429 517.953 369.803 515.457 371.669 512.868C375.216 507.916 378.562 502.823 381.701 497.603C388.203 486.924 393.429 475.359 398.693 464.026C402.122 456.642 405.8 449.263 408.605 441.619C410.666 436.006 412.552 430.054 413.433 424.125C414.576 416.428 414.475 395.502 417.144 390.343Z"/>
	<path fill="#676B25" d="M180.9 638.335C181.117 638.428 181.348 638.491 181.551 638.613C183.063 639.519 183.49 641.67 183.491 643.329C183.496 650.546 180.514 658.414 179.075 665.523C177.912 671.267 177.254 677.141 175.874 682.836C174.808 687.237 172.784 692.279 172.667 696.77C172.572 700.448 174.42 704.275 175.688 707.647C171.234 708.979 166.789 709.679 162.459 711.517C150.645 716.53 134.203 729.551 126.401 739.67C125.05 741.423 123.708 743.202 123.987 745.516C124.396 746.102 124.536 746.513 125.229 746.81C128.227 748.094 150.046 745.478 154.11 744.537C158.255 743.576 162.198 741.967 166.172 740.474C165.546 747.06 164.483 753.336 159.721 758.295C155.663 761.167 149.981 767.133 145.664 768.74C140.761 770.564 131.017 769.017 126.533 766.623C122.186 764.303 119.179 760.505 117.821 755.779C114.922 745.693 118.088 733.835 123.214 725.008C128.508 715.892 141.103 702.781 150.681 698.248C154.662 696.364 159.319 695.636 163.567 694.486C165.446 688.545 166.675 682.335 168.461 676.341C170.569 669.269 173.239 662.377 175.349 655.314C176.868 650.23 177.75 642.563 180.9 638.335Z"/>
	<path fill="#676B25" d="M296.922 123.114C298.202 122.95 299.767 122.662 300.926 123.401C301.56 123.806 302.037 124.372 302.214 125.098C302.585 126.625 302.128 128.072 301.551 129.483C300.261 132.639 298.058 135.418 296.518 138.464C292.727 145.961 289.611 155.216 288.517 163.579C287.933 168.044 287.442 172.752 287.433 177.259C287.421 183.766 288.346 190.163 286.883 196.613C284.4 207.565 277.699 216.667 274.534 227.201C273.26 231.441 274.073 237.764 271.245 241.33C270.311 242.508 268.312 242.406 266.932 242.513C266.808 242.426 266.678 242.346 266.559 242.251C261.621 238.293 264.611 216.889 263.862 210.356C263.299 205.438 261.296 200.788 260.938 195.804C260.183 185.291 262.125 176.097 264.211 165.941C265.044 161.886 265.517 157.766 267.258 153.965C268.627 150.975 270.657 148.674 272.794 146.225C272.847 144.283 273.087 142.636 273.941 140.865C277.184 134.142 289.994 125.589 296.922 123.114Z"/>
	<path fill="#959A38" d="M739.287 706.273C743.934 706.403 754.736 705.364 758.619 706.584C759.354 706.815 759.317 707.147 759.64 707.78C759.388 708.753 759.042 709.331 758.238 709.961C756.032 711.691 753.244 713.067 750.838 714.521C743.876 718.728 736.447 722.667 730.025 727.676C727.986 729.266 726.415 731.266 724.802 733.268C716.281 735.753 709.742 740.812 701.866 744.64C693.27 748.818 647.374 767.342 640.664 767.23C635.298 768.218 629.394 770.363 623.932 770.172C622.887 770.135 622.57 770.265 621.835 769.463C621.919 769.311 621.99 769.149 622.088 769.005C624.705 765.142 638.838 757.694 643.506 754.414C646.648 752.207 650.032 747.275 653.521 746.513C658.979 745.322 665.146 740.607 670.089 737.754C679.455 732.349 688.911 727.345 698.4 722.178C707.018 717.485 715.69 712.163 725.023 709.023C729.756 707.431 734.327 706.705 739.287 706.273Z"/>
	<path fill="#7C802B" d="M784.463 503.542C792.272 506.17 799.848 538.421 803.155 547.063C805.519 553.24 808.683 558.802 811.815 564.607C816.512 573.311 821.354 582.445 824.25 591.926C827.272 601.817 825.922 610.826 827.534 620.596C828.668 627.47 832.387 635.155 834.918 641.64C836.22 644.976 841.375 653.875 840.409 657.106C839.863 657.064 839.431 657.058 838.891 656.885C833.053 655.018 804.892 618.298 800.453 611.533C800.165 611.094 799.871 610.651 799.603 610.199C797.102 605.971 797.856 600.732 797.327 596.013C796.738 590.761 795.174 585.715 794.933 580.399C794.467 570.118 795.562 559.731 794.863 549.47C794.161 539.166 791.218 528.825 788.085 519.013C786.837 515.105 785.225 511.084 784.332 507.091C784.044 505.806 784.204 504.818 784.463 503.542Z"/>
	<path fill="#676B25" d="M347.638 355.743C356.84 354.596 365.363 357.823 374.38 359.008C387.323 360.71 400.178 361.074 412.946 364.139C424.43 366.895 434.849 371.619 445.805 375.81C449.248 377.128 452.859 377.967 456.295 379.299C459.511 380.546 462.512 382.356 465.639 383.813C470.499 386.077 475.798 387.943 480.353 390.778C486.647 394.694 490.074 401.597 496.698 405.191C502.226 408.19 508.032 411.451 513.732 414.072C517.442 415.778 521.669 416.921 525.042 419.264C526.214 420.078 527.146 421.319 527.849 422.545C529.173 424.85 530.954 429.709 529.944 432.332C529.685 433.004 529.206 433.02 528.602 433.296C524.261 432.801 518.926 427.583 515.225 425.135C514.975 424.952 514.729 424.763 514.475 424.584C506.695 419.077 496.659 416.65 488.381 411.809C480.025 406.922 472.38 400.719 464.118 395.601C456.25 390.728 447.999 387.227 439.713 383.182C434.88 380.823 429.352 377.548 423.942 376.922C419.513 376.409 414.592 377.579 410.2 378.276C406.579 376.356 403.196 373.991 399.447 372.314C385.845 366.227 371.539 369.043 357.234 368.745C348.492 368.563 339.774 367.172 331.019 367.442C329.697 365.434 328.055 363.592 326.839 361.52C326.059 360.191 325.422 358.615 325.83 357.081C326.174 356.784 326.45 356.381 326.863 356.192C328.581 355.406 343.503 356.144 347.046 355.804L347.638 355.743Z"/>
	<path fill="#959A38" d="M695.16 549.483C696.61 549.899 697.299 550.21 698.1 551.575C702.439 558.96 704.467 569.13 706.492 577.477C709.793 591.078 725.632 669.374 722.691 679.688C722.429 680.608 722.636 680.331 721.925 680.755L720.844 680.211C712.24 673.138 701.416 659.38 697.534 648.872C692.829 636.142 690.92 596.947 691.364 582.016C691.569 575.121 692.458 568.348 693.227 561.505C693.645 557.784 693.611 552.875 695.16 549.483Z"/>
	<path fill="#959A38" d="M532.281 364.561C518.799 367.004 505.555 368.751 491.977 370.463C484.65 371.388 477.82 372.932 470.369 372.482C445.909 371.003 439.948 367.621 423.626 350.319C417.536 343.864 411.383 337.519 405.494 330.872C403.729 328.879 399.766 324.967 399.933 322.194L400.833 321.75C406.198 322.595 411.824 327.62 416.675 330.151L419.881 331.855C443.829 343.867 467.217 351.762 493.888 355.085C506.594 356.668 519.577 357.264 532.163 359.61C533.669 359.949 534.721 360.13 535.88 361.243C535.776 362.263 535.777 362.403 534.944 363.101C534.177 363.743 533.183 364.142 532.281 364.561Z"/>
	<path fill="#676B25" d="M416.675 330.151L419.881 331.855C420.059 334.381 420.252 335.901 418.576 337.941C417.469 338.409 416.894 338.779 415.67 338.341C414.543 337.937 413.531 336.879 413.046 335.804C412.528 334.654 412.681 333.471 413.261 332.378C413.966 331.048 415.362 330.644 416.675 330.151Z"/>
	<path fill="#7C802B" d="M532.163 359.61C533.669 359.949 534.721 360.13 535.88 361.243C535.776 362.263 535.777 362.403 534.944 363.101C534.177 363.743 533.183 364.142 532.281 364.561C532.08 364.286 531.824 363.962 531.694 363.65C531.073 362.158 531.721 361.063 532.163 359.61Z"/>
	<path fill="#7C802B" d="M313.323 274.054C320.719 273.647 324.962 276.017 331.549 276.353C335.22 276.541 338.9 276.255 342.566 276.628C348.749 277.258 354.863 278.581 361.069 279.194C371.834 280.257 382.64 280.856 393.398 281.993C407.12 283.443 420.826 285.448 434.575 286.586C445.576 287.514 456.61 287.999 467.65 288.039C479.503 288.059 499.066 286.701 510.08 289.476C511.551 289.847 512.426 290.212 513.183 291.537L512.671 292.659C508.895 293.744 504.428 293.754 500.505 294.129C488.449 295.276 476.935 298.91 464.741 299.495C441.941 300.589 418.932 295.906 396.221 294.442C383.508 293.623 370.226 295.302 357.736 292.983C347.487 291.08 338.138 285.09 328.144 282.062C321.499 280.049 314.752 280.457 308.001 279.422C306.782 279.236 305.854 279.24 305.122 278.227L305.358 277.108C307.555 274.847 310.361 274.612 313.323 274.054Z"/>
	<path fill="#676B25" d="M589.438 468.558C590.116 468.534 590.272 468.509 591.041 468.598C601.128 469.764 606.78 476.341 615.673 479.409C619.316 480.667 623.347 480.782 626.982 482.107C633.461 484.467 639.367 488.31 646.014 490.315C655.859 493.284 665.982 494.992 675.663 498.608C689.516 503.784 702.317 512.019 715.356 518.916C722.189 522.53 729.582 525.293 735.815 529.94C740.655 533.548 744.804 538.428 748.427 543.222C748.182 547.239 747.988 551.133 746.941 555.042L746.627 555.295C741.85 555.942 713.515 532.018 707.894 527.612C693.68 516.471 676.447 507.815 658.383 505.36C650.961 504.352 643.086 504.496 635.993 501.86C631.612 500.232 627.942 496.99 623.863 494.747C616.762 490.843 605.785 486.575 597.988 484.479C594.785 480.634 589.578 473.631 589.438 468.558Z"/>
	<path fill="#7C802B" d="M449.366 395.829C449.536 395.835 449.707 395.832 449.877 395.848C454.616 396.285 459.502 400.05 462.301 403.665C465.047 407.212 467.152 411.582 469.357 415.487C481.525 437.038 488.007 458.551 492.609 482.775C493.481 487.368 495.503 492.566 494.934 497.266C493.389 499.919 489.798 501.222 487.139 502.538C481.295 504.926 474.507 508.533 468.356 509.683C466.821 507.539 466.889 503.695 466.531 501.128C465.291 492.226 463.988 483.441 464.264 474.405C464.536 465.506 465.978 456.695 465.904 447.768C465.856 442.053 465.152 436.565 463.973 430.979C462.834 425.585 461.405 420.035 459.254 414.946C457.032 409.688 449.222 400.89 449.366 395.829Z"/>
	<path fill="#7C802B" d="M764.19 502.137C764.753 502.359 765.301 502.61 765.69 503.102C767.519 505.412 767.604 511.256 768.163 514.152C770.523 526.39 772.929 538.614 772.791 551.144C772.633 565.544 770.333 579.914 771.11 594.318C771.539 602.257 773.721 609.858 774.797 617.696C776.301 628.653 776.709 640.412 776.964 651.466C776.998 652.917 777.17 654.295 776.143 655.369L775.071 655.129C773.478 653.825 772.573 652.252 771.518 650.526C762.172 633.786 762.765 615.669 758.285 597.713C756.483 590.489 753.032 583.754 751.686 576.393C751.263 574.083 751.038 571.81 751.181 569.459C751.545 563.432 753.126 557.486 754.02 551.522C755.55 541.316 758.843 509.761 764.19 502.137Z"/>
	<path fill="#676B25" d="M258.496 837.184C262.004 837.209 283.571 866.28 288.351 870.501C289.803 871.784 291.789 872.723 293.484 873.656C293.951 874.525 294.445 875.379 294.912 876.248C297.724 881.484 303.933 886.159 307.774 890.872C311.716 895.708 314.831 901.679 318.343 906.881C322.237 912.65 327.046 918.263 330.28 924.398C331.149 926.046 332.282 928.039 331.712 929.88C330.158 930.946 328.157 930.998 326.328 931.236C326.25 931.23 326.173 931.219 326.096 931.218C324.771 931.195 323.881 931.098 322.663 930.486C315.242 926.754 304.478 920.68 298.501 915.104C291.882 908.929 288.038 901.202 282.831 894.034C279.463 889.398 275.76 885.039 272.475 880.326C269.36 875.857 253.325 849.928 252.231 846.168C251.709 844.374 251.683 841.521 252.778 839.922C254.093 838.001 256.396 837.653 258.496 837.184Z"/>
	<path fill="#676B25" d="M620.314 582.019C620.504 582.005 620.693 581.985 620.883 581.978C627.721 581.74 633.09 583.872 638.064 588.406C639.515 616.33 636.724 645.109 629.113 672.033C627.682 677.097 625.813 682.098 624.227 687.127C624.183 687.307 624.141 687.487 624.094 687.665C624.021 687.938 623.939 688.208 623.865 688.48C623.147 691.114 621.939 692.564 619.672 694.062C618.722 694.144 618.239 694.317 617.507 693.541C615.881 691.817 615.941 689.077 615.906 686.869C615.824 681.63 616.697 676.413 616.8 671.178C616.881 667.014 616.339 662.833 616.203 658.671C616.097 655.453 616.395 652.24 616.339 649.026C616.191 640.414 613.706 631.777 614.105 623.082C614.41 616.426 616.519 587.501 618.705 583.513C618.947 583.071 619.911 582.393 620.314 582.019Z"/>
	<path fill="#676B25" d="M517.994 519.695C523.34 520.119 523.818 529.574 529.451 531.858C539.953 536.118 552.149 527.834 562.431 534.069C563.15 534.507 563.837 534.996 564.486 535.533C569.999 540.069 573.121 547.962 573.725 554.97C574.261 561.204 572.403 565.974 568.393 570.648C563.563 574.6 558.316 577.197 552.038 577.665C546.383 578.087 540.35 576.89 536.045 572.997C527.847 565.582 529.319 554.092 525.618 544.669C523.88 540.243 520.33 536.621 519.105 532.017C518.081 528.164 518.117 523.673 517.994 519.695Z"/>
	<path fill="#7C802B" d="M210.766 769.38C212.346 770.685 212.535 772.924 212.956 774.827C199.274 789.288 182.328 801.775 163.375 808.17C154.866 811.04 145.559 812.91 137.828 817.595C124.383 825.74 114.092 837.933 100.317 845.942L98.971 845.345C98.433 844.434 98.1806 844.21 98.4258 843.116C99.03 840.421 101.402 837.022 102.711 834.479C104.573 830.86 106.36 827.047 108.764 823.749C119.645 808.822 140.537 795.433 157.666 789.081C165.63 786.128 173.785 784.754 181.972 782.652C192.782 779.875 201.558 775.466 210.766 769.38Z"/>
	<path fill="#7C802B" d="M695.73 527.198C698.589 528.366 709.954 547.155 712.039 550.729C737.881 595.02 747.651 623.482 734.224 674.792C733.853 675.999 733.514 677.319 732.996 678.469C732.519 679.526 731.988 679.837 730.932 680.145L730.126 679.564C727.871 668.919 727.561 657.422 725.968 646.604C722.344 621.977 717.54 595.458 711.433 571.352C709.52 563.801 707.199 556.546 704.088 549.393C702.08 544.774 694.557 532.909 694.631 528.975C694.648 528.034 695.121 527.854 695.73 527.198Z"/>
	<path fill="#959A38" d="M927.044 458.036C928.416 457.919 929.826 457.912 930.898 458.763C930.689 459.382 930.799 459.284 930.399 459.72C917.933 473.288 861.576 488.233 842.878 487.592C831.731 487.21 821.522 483.025 810.638 481.291C801.578 479.847 792.502 480.854 783.389 480.956C780.733 480.884 776.033 480.477 773.792 478.973C772.628 478.192 772.59 478.024 772.401 476.734C772.661 476.307 772.777 475.747 773.182 475.453C773.889 474.938 795.749 474.711 798.408 474.512C810.523 473.605 822.421 474.666 834.545 472.978C853.093 470.395 871.087 464.775 889.667 462.241C902.118 460.544 914.886 461.66 927.044 458.036Z"/>
	<path fill="#959A38" d="M559.832 768.782C560.969 768.996 562.102 769.233 563.229 769.494C567.088 770.409 570.277 772.624 572.946 775.514C578.608 781.645 581.731 790.042 586.551 796.811C589.988 801.638 594.239 806.133 598.048 810.685C604.95 818.931 611.995 827.923 617.562 837.116C622.258 844.702 625.729 852.981 627.848 861.648C629.099 866.807 629.963 872.265 631.625 877.303C635.25 888.297 646.858 909.459 644.075 920.714C643.205 920.476 642.592 920.151 641.946 919.506C631.912 909.489 624.625 889.552 618.93 876.729C616.38 870.987 613.177 865.312 611.155 859.365C608.971 852.94 608.583 846.181 605.74 839.893C602.041 831.711 590.266 815.511 584.484 808.152C579.787 802.174 576.04 795.753 571.626 789.613C568.174 784.81 563.545 780.011 560.911 774.747C559.924 772.773 559.771 770.955 559.832 768.782Z"/>
	<path fill="#7C802B" d="M285.479 507.525C291.762 508.424 301.201 520.624 306.383 524.839C312.797 530.056 320.936 534.655 329.056 536.476C334.994 537.808 341.075 537.714 347.059 536.752C352.214 535.924 376.136 528.231 378.86 529.252C379.095 529.791 379.466 530.183 379.21 530.771C377.807 533.995 368.787 536.747 365.484 538.065C357.526 541.598 348.691 544.046 340.465 546.98C333.495 549.465 326.847 552.478 320.003 555.256C313.339 557.96 306.046 559.058 299.249 555.992C293.325 553.32 289.496 547.564 287.19 541.69C283.95 533.437 281.934 515.589 285.479 507.525Z"/>
	<path fill="#959A38" d="M657.225 117.904C658.076 117.919 658.51 118.029 659.263 118.428C661.916 124.081 648.034 152.14 645.966 159.882C638.179 189.033 640.993 227.167 641.967 257.441C642.238 265.884 642.091 274.363 642.097 282.812C640.848 284.657 639.485 286.958 637.723 288.334C636.762 289.084 636.242 289.121 635.092 288.905L634.273 287.592C633.875 279.19 632.501 270.826 631.699 262.455C630.975 254.898 630.786 247.203 630.324 239.62C628.877 215.832 627.496 191.551 634.472 168.401C637.178 159.42 641.333 151.213 645.277 142.749C649.107 134.53 651.557 125.085 657.225 117.904Z"/>
	<path fill="#676B25" d="M604.956 288.214C612.025 287.78 623.021 288.296 629.14 292.469C630.216 293.203 630.532 293.734 630.822 294.969C627.892 302.248 597.024 327.241 588.641 333.416C584.813 336.486 580.132 340.328 575.678 342.383C575.072 342.663 574.786 342.352 574.189 342.124C573.13 340.943 572.639 340.085 572.339 338.514C570.176 327.156 575.217 312.758 581.49 303.426C587.12 295.049 595.103 290.089 604.956 288.214Z"/>
	<path fill="#959A38" d="M459.516 341.12C441.916 335.585 425.048 327.947 409.277 318.371C406.129 316.484 401.711 314.313 399.492 311.327L399.622 310.75C404.417 309.534 426.927 319.377 433.598 321.541C443.254 324.728 453.176 327.042 463.245 328.455C475.257 330.156 487.434 330.88 499.323 333.374C511.568 335.944 522.695 340.307 534.04 345.463C536.936 346.704 541.624 349.563 542.793 352.665C543.116 353.522 542.921 353.488 542.562 354.248C540.769 354.903 539.001 354.303 537.222 353.857C525.023 351.261 512.641 350.494 500.282 349.072C488.808 347.751 477.646 345.804 466.422 343.085C464.106 342.543 461.805 341.779 459.516 341.12Z"/>
	<path fill="#7C802B" d="M459.516 341.12C459.721 340.132 459.855 339.221 460 338.228C460.206 336.815 461.102 335.862 462.249 335.107C462.966 334.635 463.466 334.444 464.342 334.457C465.466 335.021 466.176 335.771 466.571 336.983C467.199 338.909 466.693 341.121 466.422 343.085C464.106 342.543 461.805 341.779 459.516 341.12Z"/>
	<path fill="#7C802B" d="M534.04 345.463C536.936 346.704 541.624 349.563 542.793 352.665C543.116 353.522 542.921 353.488 542.562 354.248C540.769 354.903 539.001 354.303 537.222 353.857C538.079 353.375 537.678 353.713 538.34 352.754C538.141 349.45 536.181 347.748 534.04 345.463Z"/>
	<path fill="#676B25" d="M688.663 428.909C692.864 429.085 696.966 429.522 700.372 432.28C704.543 435.657 705.294 440.539 705.906 445.527C695.607 452.373 684.852 457.143 680.703 469.891C679.67 473.064 679.689 477.753 677.986 480.538C676.327 483.251 672.323 483.817 669.451 484.578L665.698 489.049C665.13 488.916 664.563 488.778 663.997 488.636C661.933 488.123 660.985 487.927 659.863 486.062C659.546 483.577 660.684 480.97 661.404 478.606C659.946 474.126 657.911 469.205 657.365 464.508C656.431 456.468 659.646 448.16 664.679 441.972C670.803 434.442 679.051 429.965 688.663 428.909Z"/>
	<path fill="#676B25" d="M338.929 554.008C339.536 554.081 340.013 554.328 340.572 554.563C340.752 555.037 340.833 555.185 340.93 555.646C341.919 560.304 333.391 602.703 331.984 611.099C331.128 616.338 330.454 621.606 329.964 626.893C327.376 653.473 330.447 680.073 331.019 706.65C331.123 711.456 332.585 723.693 329.471 726.943L328.462 726.939L327.571 725.832C327.353 725.321 327.142 724.806 326.939 724.289C323.794 716.223 321.527 707.922 320.735 699.283C319.614 687.064 320.494 674.716 320.748 662.473C321.164 642.404 321.909 582.503 329.226 566.219C331.253 561.706 334.09 555.835 338.929 554.008Z"/>
	<path fill="#676B25" d="M734.129 397.153C744.077 396.17 763.244 400.833 772.391 405.24C775.406 406.693 778.653 408.796 779.703 412.168C780.48 414.664 779.723 417.21 778.441 419.394C775.103 425.075 769.561 426.946 763.549 428.472L762.746 428.674C754.183 430.772 742.863 432.246 734.956 427.375C727.921 423.041 719.343 413.471 717.631 405.21C717.305 403.64 717.367 402.185 718.358 400.862C720.249 398.339 730.646 397.648 734.129 397.153Z"/>
	<path fill="#676B25" d="M560.149 442.637C562.467 445.001 563.963 444.029 566.428 445.475C569.908 447.516 574.53 454.337 576.929 457.816C584.162 468.301 589.441 479.769 596.423 490.379C599.958 495.751 604.041 500.731 607.565 506.117C610.034 509.892 611.923 514.062 614.475 517.767C619.304 524.78 623.725 529.902 627.734 537.715C629.616 541.384 630.406 546.192 631.49 550.175L628.66 555.894C627.534 556.148 625.878 556.36 624.738 556.162C621.658 555.629 616.315 545.349 614.797 542.474C613.068 539.199 610.526 537.348 608.475 534.426C606.365 531.421 604.858 527.907 602.877 524.795C599.546 519.561 595.688 514.58 592.689 509.143C591.809 507.547 592.078 505.975 591.337 504.406C587.739 496.796 583.724 488.938 579.71 481.529C575.208 473.216 569.117 465.961 564.31 457.875C562.519 454.863 561.898 450.991 560.025 448.242C559.495 447.464 558.984 446.699 558.477 445.905C558.62 444.313 559.188 443.882 560.149 442.637Z"/>
	<path fill="#7C802B" d="M523.842 236.896C525.262 236.846 526.218 236.895 527.418 237.754C529.701 239.387 531.659 242.597 533.109 244.955C543.502 261.864 546.281 282.819 550.195 301.968C552.083 311.204 554.211 320.41 555.956 329.672C556.82 334.253 558.483 344.094 555.757 348.099L554.505 348.298L553.702 347.566C552.963 345.617 553.109 343.724 553.136 341.675C553.125 316.862 542.237 309.912 530.512 290.48C521.418 275.409 515.251 258.237 513.461 240.723C516.826 239.079 520.243 237.906 523.842 236.896Z"/>
	<path fill="#7C802B" d="M468.439 703.333L470.378 703.889C471.551 705.504 471.816 707.381 472.122 709.319C474.89 726.82 475.424 749.5 471.475 766.699C462.967 803.754 433.365 840.043 411.299 870.022C410.523 870.913 410.095 871.294 408.97 871.675L408.171 871.019C406.728 866.276 416.878 851.616 419.863 847.046C426.467 836.94 433.619 827.007 439.472 816.445C452.379 793.156 463.089 759.338 466.819 733.024C468.199 723.291 467.006 713.404 468.372 703.772C468.393 703.625 468.417 703.479 468.439 703.333Z"/>
	<path fill="#676B25" d="M365.715 544.921C365.949 544.958 366.188 544.974 366.419 545.031C371.117 546.198 429.048 587.92 436.112 594.072C440.606 597.986 443.789 602.417 447.708 606.809C450.595 610.044 454.457 613.024 456.631 616.765C456.891 620.115 456.963 623.6 457.461 626.917C457.705 628.538 458.885 631.393 458.606 632.893C458.538 633.261 458.23 633.542 458.042 633.866C456.632 634.043 456.657 633.847 455.488 632.995C448.879 626.199 442.439 619.275 435.491 612.813C418.6 597.104 400.586 582.733 382.853 568.012C378.38 564.299 360.855 552.359 359.014 548.699L359.349 547.83C361.173 546.244 363.459 545.679 365.715 544.921Z"/>
	<path fill="#959A38" d="M578.024 417.413C579.368 419.403 580.971 421.374 581.583 423.722C579.936 424.958 578.014 426.229 576.78 427.896C575.885 429.107 575.797 429.999 576.031 431.442C576.394 431.867 576.642 432.427 577.12 432.718C579.193 433.985 589.787 433.904 592.76 434.166C598.255 434.649 603.988 436.015 609.181 437.85C614.061 439.575 627.882 445.822 629.958 450.139C629.953 451.945 629.253 453.583 628.605 455.248C627.078 459.169 624.361 462.025 620.455 463.645C612.628 466.892 600.951 465.273 593.299 462.159C583.851 458.315 582.459 447.34 574.791 440.106C570.29 435.86 557.773 433.338 555.753 428.758C556.124 427.649 556.194 427.612 557.176 427.05C559.566 425.682 562.617 424.911 565.198 423.914C569.788 422.142 573.871 420.048 578.024 417.413Z"/>
	<path fill="#959A38" d="M664.26 131.666C664.671 131.998 665.152 132.397 665.431 132.851C667.723 136.587 667.153 151.312 666.816 156.055C666.089 166.305 663.74 176.41 662.254 186.565C660.721 197.042 659.793 207.61 658.386 218.106C657.112 227.613 655.393 237.067 654.253 246.591C653.594 252.091 655.11 266.039 653.666 269.748C652.867 271.799 651.471 272.428 649.622 273.329C648.985 272.483 648.95 271.726 648.843 270.706C648.098 263.608 648.357 256.618 648.037 249.509C646.892 224.052 645.335 194.732 650.166 169.694C651.836 161.039 655.074 152.739 658.319 144.571C659.997 140.351 661.46 135.263 664.26 131.666Z"/>
	<path fill="#7C802B" d="M510.986 101.907C511.75 101.939 512.422 102.067 513.17 102.214C514.031 103.632 513.684 104.539 513.307 106.113C508.897 124.525 484.579 156.449 468.436 166.375C467.086 162.844 465.546 157.137 462.085 155.061C458.118 152.682 448.767 156.301 444.541 157.362C442.101 157.942 439.646 158.585 437.178 159.033C435.157 159.4 433.596 159.651 431.853 158.428L431.807 157.536C436.241 152.1 460.455 141.876 468.225 137.013C483.567 127.408 497.181 113.652 510.986 101.907Z"/>
	<path fill="#7C802B" d="M160.549 192.857C165.064 192.846 168.685 193.961 172.667 195.993C182.285 200.899 190.628 208.958 199.202 215.492C205.721 220.46 212.624 224.909 219.245 229.742C233.018 239.793 246.048 250.282 263.93 249.992C263.433 253.201 262.605 256.413 261.92 259.59L261.635 259.906C261.133 259.902 260.603 260.058 260.129 259.894C259.157 259.558 257.549 257.969 256.59 257.361C253.965 255.699 251.005 254.245 248.084 253.183C243.299 251.442 238.063 250.439 233.149 249.052C219.254 245.13 196.821 238.589 185.674 229.649C178.146 223.613 177.615 215.261 172.352 207.939C169.234 203.601 161.133 198.02 160.549 192.857Z"/>
	<path fill="#7C802B" d="M398.237 260.443C399.05 260.266 398.791 260.287 399.547 260.244C414.615 259.394 428.987 262.85 443.363 266.881C448.315 268.27 453.385 269.933 458.431 270.915C466.966 272.577 494.098 272.625 499.114 277.761C499.737 278.399 499.559 278.496 499.566 279.32C495.574 281.063 474.678 279.999 468.628 280.026C459.539 280.256 450.443 280.042 441.375 279.384C427.474 278.416 413.743 276.257 399.898 274.798C389.253 273.675 378.472 273.312 367.865 272.03C366.388 271.851 364.926 271.696 363.685 270.821L363.863 269.94C368.206 265.348 391.645 261.118 398.237 260.443Z"/>
	<path fill="#7C802B" d="M406.776 413.351C407.766 414.671 408.105 415.839 408.056 417.487C407.867 423.879 406.055 430.696 403.992 436.723C400.938 445.641 396.635 454.175 392.623 462.691C386.895 474.85 381.242 487.043 374.204 498.518C370.552 504.47 366.182 509.939 362.185 515.656C359.231 519.88 356.446 525.017 352.729 528.59C348.969 529.619 345.07 530.248 341.243 530.992C340.717 530.498 340.461 530.102 340.09 529.493C340.196 528.594 340.334 527.887 340.741 527.067C343.209 522.1 347.453 517.411 350.615 512.809C357.611 502.628 364.493 492.361 370.712 481.683C375.291 473.913 379.376 465.863 382.945 457.581C389.511 442.364 394.137 424.842 406.776 413.351Z"/>
	<path fill="#959A38" d="M809.72 684.278C809.969 682.728 809.917 682.121 810.958 680.907C812.233 680.874 812.806 681.066 813.741 681.99C814.613 682.85 815.438 684.03 816.034 685.1C821.738 694.324 830.298 703.561 840.009 708.52C860.193 718.829 888.226 721.182 910.198 716.471C915.711 715.289 920.441 712.954 925.754 711.375C927.213 710.942 928.17 710.852 929.515 711.569C929.663 712.709 929.802 712.32 929.319 713.191C926.007 719.168 913.958 724.234 907.67 725.944C887.934 731.314 873.133 733.83 853.219 727.084C847.194 725.044 841.113 722.507 835.607 719.304C824.206 712.672 813.094 696.94 809.72 684.278Z"/>
	<path fill="#7C802B" d="M809.72 684.278C809.969 682.728 809.917 682.121 810.958 680.907C812.233 680.874 812.806 681.066 813.741 681.99C814.613 682.85 815.438 684.03 816.034 685.1C813.836 685.077 811.864 684.744 809.72 684.278Z"/>
	<path fill="#676B25" d="M169.124 592.917C170.364 593.323 170.822 593.542 171.587 594.612C173.528 602.67 171.296 613.391 169.339 621.341C164.745 639.997 151.446 680.445 139.47 694.822C134.195 701.155 125.909 706.127 118.888 710.365C117.646 709.986 117.569 710.107 116.943 708.994C117.097 703.798 134.92 676.272 138.675 669.728C143.648 661.096 147.969 652.104 151.6 642.828C157.9 626.379 162.279 609.186 169.124 592.917Z"/>
	<path fill="#7C802B" d="M806.8 711.19C806.971 711.297 807.163 711.376 807.312 711.512C808.491 712.591 808.53 716.818 808.655 718.42C809.449 728.614 811.304 744.832 809.645 754.454C808.211 762.766 803.284 771.215 799.791 778.821C796.052 786.964 792.495 795.246 789.653 803.748C787.832 809.199 785.087 822.391 781.801 826.259C781.34 825.912 780.928 825.648 780.585 825.153C778.936 822.77 778.955 817.684 778.758 814.813C776.815 786.535 789.683 765.615 798.263 739.905C800.506 733.183 801.509 726.059 802.994 719.144C803.666 716.013 803.983 713.025 806.8 711.19Z"/>
	<path fill="#676B25" d="M239.576 837.812C240.613 837.804 241.66 837.788 242.695 837.862C244.02 837.957 245.865 838.579 246.535 839.828C247.427 841.493 246.82 845.738 246.713 847.673C246.496 851.619 246.707 856.503 245.811 860.324C244.785 864.698 240.764 869.88 238.546 873.808C236.197 877.945 234.25 882.297 232.734 886.806C230.608 893.339 230.519 900.27 229.848 907.054C229.265 912.959 228.509 923.744 223.607 927.761C222.421 927.59 220.994 927.493 220.092 926.616C217.102 923.708 216.557 904.512 216.189 900.098C215.053 886.449 219.127 875.007 225.781 863.269C227.375 860.458 229.281 857.799 230.745 854.922C233.575 849.358 235.513 842.606 239.576 837.812Z"/>
	<path fill="#7C802B" d="M774.229 502.607L775.68 503.298C781.649 512.86 788.537 542.659 789.035 553.888C789.439 563.017 788.073 572.1 788.717 581.263C789.313 589.735 792.114 597.767 791.6 606.368C790.925 617.653 787.784 629.334 785.794 640.497C785.31 641.567 785.041 641.7 784.115 642.362L783.141 642.135C780.973 638.727 782.074 626.896 781.739 622.406C780.914 611.355 777.417 600.764 777.076 589.557C776.617 574.498 779.511 559.356 778.88 543.44C778.521 534.377 776.794 525.517 775.066 516.641C774.392 513.184 773.114 509.047 772.974 505.562C772.915 504.075 773.365 503.725 774.229 502.607Z"/>
	<path fill="#676B25" d="M465.835 642.921C470.809 643.912 474.711 643.93 479.74 643.255C480.5 643.984 481.234 644.741 481.94 645.523C490.293 654.802 496.437 666.78 503.074 677.349C516.24 698.315 530.977 714.384 534.082 740.268C534.626 744.805 535.202 749.683 534.929 754.246C533.675 754.718 532.096 755.031 530.753 755.044C530.092 755.051 529.211 754.942 528.861 754.334C527.258 751.552 525.02 735.663 524.242 731.665C519.883 709.288 516.748 707.702 501.538 691.765C491.245 680.98 482.65 668.871 473.841 656.889C471.365 653.52 467.794 649.606 466.162 645.809C465.759 644.873 465.81 643.916 465.835 642.921Z"/>
	<path fill="#7C802B" d="M504.549 526.689C505.275 527.021 505.517 527.356 506.033 527.946C506.671 530.35 506.555 532.934 506.306 535.395C504.304 555.171 496.017 579.279 486.635 596.633C482.936 603.476 478.35 609.717 474.203 616.278C471.38 620.745 469.074 626.883 464.998 630.227C463.351 627.071 462.804 623.682 462.788 620.152C462.763 616.657 463.4 613.19 464.666 609.933C466.985 604.022 470.789 598.793 473.458 593.038C477.472 584.383 480.662 575.371 484.607 566.694C487.68 559.936 491.434 553.498 494.613 546.795C496.729 542.334 497.209 537.067 499.484 532.744C500.692 530.448 502.735 528.516 504.549 526.689Z"/>
	<path fill="#959A38" d="M657.891 352.136C658.698 352.075 659.506 352.027 660.314 351.991C673.427 351.384 691.982 354.553 701.856 363.809C707.193 368.813 713.231 381.237 713.062 388.356C713.033 389.58 712.798 390.047 711.942 390.878C710.384 391.146 709.13 390.337 707.757 389.698C690.563 379.355 677.762 373.58 657.75 370.351C655.791 364.138 653.716 362.359 651.183 357.215C650.597 356.025 650.801 355.409 651.297 354.262C653.134 352.819 655.647 352.598 657.891 352.136Z"/>
	<path fill="#676B25" d="M183.91 806.41C185.434 805.536 186.814 804.538 188.619 804.469C189.223 804.835 189.601 804.863 189.814 805.594C190.401 807.613 189.322 810.214 188.738 812.133C185.413 823.493 178.904 836.722 168.695 843.409C164.814 845.952 160.487 847.496 155.83 846.448C149.93 845.121 144.523 839.587 141.401 834.565C139.998 832.309 137.263 828.027 137.855 825.365C144.111 819.692 157.917 817.668 165.972 814.737C172.209 812.467 178.12 809.636 183.91 806.41Z"/>
	<path fill="#7C802B" d="M183.91 806.41C185.434 805.536 186.814 804.538 188.619 804.469C189.223 804.835 189.601 804.863 189.814 805.594C190.401 807.613 189.322 810.214 188.738 812.133L187.813 808.309C186.539 806.931 185.69 806.908 183.91 806.41Z"/>
	<path fill="#7C802B" d="M795.004 712.628C795.93 712.68 796.392 712.79 797.187 713.271C797.382 713.704 797.565 714.024 797.581 714.532C797.648 716.753 796.591 720.058 796.167 722.328C794.931 728.949 793.518 735.469 791.351 741.86C785.065 760.397 777.164 774.219 773.324 794.197C772.336 799.34 772.105 804.521 772.249 809.752C772.336 812.934 772.769 816.442 772.36 819.593C772.235 820.559 771.934 821.134 771.304 821.891L770.339 821.669C769.669 820.837 769.386 820.028 769.026 819.031C766.755 812.759 764.935 806.073 763.597 799.543C762.037 791.937 761.329 784.284 762.812 776.607C765.722 761.547 777.432 743.528 785.019 730.117C788.311 724.297 791.341 718.215 795.004 712.628Z"/>
	<path fill="#676B25" d="M190.25 695.399C190.764 695.528 191.317 695.663 191.715 696.041C193.57 697.795 193.791 702.533 194.184 704.957C189.385 714.542 187.333 725.634 183.794 735.756C181.437 742.496 177.548 749.241 176.079 756.199C174.894 761.811 186.6 764.968 189.362 769.49C190.135 770.757 190.096 771.628 189.706 773.007C183.393 776.931 165.636 779.968 157.338 782.714C154.039 783.802 148.091 787.238 144.753 786.605C144.571 786.226 144.454 786.047 144.409 785.585C143.469 776.116 164.926 764.372 167.973 758.278C170.64 752.943 171.655 746.443 173.183 740.698C176.167 729.484 183.819 703.705 190.25 695.399Z"/>
	<path fill="#7C802B" d="M537.218 237.19C537.925 237.143 537.994 237.115 538.8 237.195C545.052 237.815 552.212 243.985 556.046 248.719C573.935 270.81 568.43 302.623 565.861 328.523C565.338 329.572 565.042 330.117 564.051 330.764L563.245 330.486C559.869 325.791 551.128 271.945 547.279 259.96C544.886 252.506 540.584 246.55 537.454 239.564C537.075 238.717 537.11 238.088 537.218 237.19Z"/>
	<path fill="#959A38" d="M250.305 778.916C257.408 780.714 289.038 800.116 294.785 805.766C300.478 811.362 304.683 818.443 310.551 823.9C320.496 833.15 331.46 841.171 341.727 850.031C344.637 852.542 349.247 855.925 349.546 859.985C348.889 860.025 348.23 860.015 347.575 859.954C342.693 859.519 311.026 835.63 305.159 831.056C301.246 828.005 297.714 824.401 293.864 821.245C283.242 812.538 257.195 793.067 250.615 782.933C249.695 781.516 250.108 780.476 250.305 778.916Z"/>
	<path fill="#7C802B" d="M795.5 502.744C796.305 502.801 797.055 502.964 797.834 503.171C812.687 507.118 813.679 515.141 825.026 520.276C833.018 523.893 841.543 525.147 849.763 527.986C855.065 529.818 860.018 533.105 865.227 534.764C869.473 536.116 875.927 535.211 879.516 537.933L879.576 538.749C878.397 540.065 876.999 540.327 875.37 540.801C865.089 542.732 852.824 547.455 842.392 544.793C831.189 541.934 803.144 518.343 796.863 508.288C795.573 506.223 794.946 505.156 795.5 502.744Z"/>
	<path fill="#7C802B" d="M510.336 551.435L511.235 551.778C512.009 552.533 512.267 553.292 512.419 554.356C513.067 558.884 512.367 564.141 512.063 568.71C510.923 585.82 509.118 603.382 498.879 617.765C492.854 626.229 483.355 635.825 472.769 637.621C471.741 637.34 471.649 637.305 470.954 636.502C471.378 627.671 482.651 614.496 487.58 607.071C489.946 603.448 492.099 599.69 494.028 595.817C498.262 587.21 501.69 577.994 504.576 568.856C506.312 563.362 507.523 556.362 510.336 551.435Z"/>
	<path fill="#7C802B" d="M376.968 78.1846C378.346 78.0645 379.247 77.999 380.41 78.7405C380.392 81.7219 374.643 84.9898 372.319 86.5891C368.136 89.4662 363.594 92.0256 359.979 95.6247C351.01 104.552 350.623 123.198 345.83 135.221C340.271 149.165 332.242 160.883 323.321 172.831L321.788 173.125L320.844 172.394C317.685 162.737 341.197 113.321 346.689 102.494C354.131 87.8202 361.759 83.1774 376.968 78.1846Z"/>
	<path fill="#959A38" d="M541.214 739.855C549.698 742.039 584.737 760.906 591.662 766.745C592.523 768.87 593.082 771.15 593.725 773.351C596.937 775.659 600.711 777.036 604.156 778.951C610.433 782.439 616.453 789.378 620.838 794.989C623.273 798.104 627.153 802.687 626.671 806.752C620.636 806.441 596.322 783.882 585.83 779.762C584.722 777.913 583.408 776.226 581.821 774.759C575.051 768.501 549.571 752.946 541.139 749.952C540.867 746.553 540.529 743.225 541.214 739.855Z"/>
	<path fill="#7C802B" d="M261.111 379.116C261.863 378.938 262.733 378.972 263.501 378.948C277.095 378.527 290.62 381.049 304.161 381.765C323.604 382.794 343.307 382.283 362.678 383.886C364.499 384.036 366.399 384.144 367.752 385.426L367.324 386.253C363.269 388.987 356.712 389.501 351.93 390.419C328.035 395.053 302.763 391.501 278.913 388.566C269.973 387.467 260.907 386.635 252.02 385.195C249.702 384.82 247.142 384.415 245.7 382.448L246.189 381.537C250.097 379.724 256.794 379.538 261.111 379.116Z"/>
	<path fill="#959A38" d="M917.871 453.067C905.755 454.796 893.468 454.653 881.372 456.673C864.846 459.433 848.661 464.345 832.052 466.535C829.173 466.915 823.512 468.12 821.139 466.296C821.449 464.629 823.162 463.441 824.467 462.447C836.824 453.031 860.072 446.906 875.704 446.206C889.089 445.607 902.468 447.192 915.725 448.882C917.823 448.868 919.691 448.672 921.324 450.213C921.481 450.361 921.616 450.531 921.763 450.69L921.637 451.691C920.376 452.622 919.366 452.808 917.871 453.067Z"/>
	<path fill="#7C802B" d="M915.725 448.882C917.823 448.868 919.691 448.672 921.324 450.213C921.481 450.361 921.616 450.531 921.763 450.69L921.637 451.691C920.376 452.622 919.366 452.808 917.871 453.067L917.952 451.886C917.384 450.415 916.873 449.888 915.725 448.882Z"/>
	<path fill="#959A38" d="M498.304 699.644C500.899 700.399 502.24 701.746 504.125 703.56C500.285 724.705 505.28 746.149 508.171 767.077C503.343 773.653 498.846 779.239 495.806 786.946C494.094 791.288 494.377 798.88 491.607 802.397C488.825 803.359 485.53 802.773 482.656 802.399L482.17 802.245C479.092 801.238 474.874 799.445 473.316 796.419C473.451 795.48 473.249 795.582 473.879 795.046C475.933 793.3 479.874 793.921 482.412 793.984C489.07 789.099 488.14 782.097 489.991 774.87C492.661 764.45 497.891 754.823 498.839 743.94C499.814 732.753 495.775 708.526 498.304 699.644Z"/>
	<path fill="#959A38" d="M327.847 425.925C328.22 425.906 328.593 425.89 328.967 425.877C330.346 425.829 331.781 425.648 332.828 426.62C334.185 433.433 331.638 441.092 331.154 447.941C330.718 454.109 330.941 460.256 329.897 466.378C329.221 470.347 328.001 474.271 326.527 478.011C322.882 487.263 310.289 506.173 301.156 510.191C299.394 509.346 298.281 508.452 297.277 506.773C297.226 506.265 296.999 505.744 297.123 505.249C297.531 503.622 300.799 500.022 301.863 498.461C304.413 494.719 306.53 490.653 308.606 486.632C315.663 472.959 320.165 458.959 323.891 444.097C325.165 439.014 325.654 429.991 327.847 425.925Z"/>
	<path fill="#676B25" d="M263.225 267.328C263.812 267.676 264.371 268.076 264.937 268.458C266.694 271.848 266.1 275.406 265.229 278.997C261.368 294.928 245.346 305.242 233.419 314.953C228.573 318.899 223.971 323.477 218.655 326.752C214.432 326.267 210.175 326.01 205.936 325.685C205.087 325.684 204.593 325.621 203.779 325.317C202.863 324.974 203.035 324.928 202.646 324.128C203.425 321.403 216.767 314.2 220.241 311.796C232.243 303.491 242.858 292.932 252.019 281.604C255.767 276.969 258.908 271.422 263.225 267.328Z"/>
	<path fill="#7C802B" d="M354.781 555.384C355.491 555.523 356.198 555.724 356.901 555.9C357.67 556.775 358.014 557.524 358.143 558.695C358.447 561.465 358.046 564.563 358.039 567.376C358.005 574.813 358.049 582.25 358.172 589.686C358.524 614.595 361.328 639.408 366.545 663.768C364.905 665.623 363.106 667.366 361.384 669.147L360.055 670.009L359.059 669.639C358.664 669.052 358.327 668.531 358.08 667.862C356.14 662.613 355.79 655.693 354.966 650.147C353.485 640.187 351.822 630.171 351.145 620.118C349.985 602.911 351.146 585.216 352.963 568.112C353.358 564.4 353.105 558.622 354.781 555.384Z"/>
	<path fill="#7C802B" d="M364.559 563.169C366.04 563.42 367.436 563.742 368.634 564.704C369.809 565.647 370.153 566.723 370.463 568.143C372.259 576.369 372.499 585.399 373.422 593.799C374.806 606.4 376.65 618.862 377.531 631.525C377.889 636.668 379.012 651.196 377.739 655.65C377.493 656.514 376.815 657.209 376.242 657.867C374.979 658.44 373.759 659.226 372.337 658.941C367.074 650.097 362.322 575.591 364.559 563.169Z"/>
	<path fill="#959A38" d="M284.301 493.482C288.095 487.701 292.042 481.959 295.14 475.764C298.776 468.493 300.991 460.362 303.706 452.697C305.432 447.825 307.628 442.999 309.056 438.045C309.625 436.068 309.635 434.105 310.012 432.107C310.423 429.93 310.772 428.666 313.178 428.265C315.339 427.905 317.869 428.067 320.077 428.037C319.545 445.289 304.83 487.467 293.114 499.761C292.688 500.078 292.493 500.244 292 500.508C290.403 501.364 287.428 500.832 285.763 500.252C284.168 499.696 283.318 498.763 282.551 497.283C282.492 495.709 283.438 494.704 284.301 493.482Z"/>
	<path fill="#676B25" d="M284.301 493.482C286.344 493.128 288.567 492.448 290.549 493.266C291.73 494.718 291.833 495.972 292.187 497.734C292.361 498.603 292.618 499.047 293.114 499.761C292.688 500.078 292.493 500.244 292 500.508C290.403 501.364 287.428 500.832 285.763 500.252C284.168 499.696 283.318 498.763 282.551 497.283C282.492 495.709 283.438 494.704 284.301 493.482Z"/>
	<path fill="#676B25" d="M129.222 669.09L130.01 669.199L130.559 670.08C130.572 671.579 130.525 673.138 130.036 674.57C128.053 680.385 124.064 685.848 121.04 691.175C115.34 701.217 109.337 711.501 104.855 722.147C101.47 730.188 101.483 738.815 95.1704 745.385C94.6577 745.124 94.2905 745.036 93.9601 744.57C92.4887 742.492 92.8959 723.513 92.9311 720.051C97.3545 713.69 99.7751 705.77 103.132 698.814C105.549 693.805 109.213 688.745 112.419 684.188C114.79 680.819 121.839 672.177 125.161 670.094C126.222 669.429 127.995 669.296 129.222 669.09Z"/>
	<path fill="#7C802B" d="M806.842 533.925C806.92 533.945 806.997 533.965 807.075 533.984C807.296 534.037 807.521 534.077 807.74 534.141C810.535 534.959 814.05 540.264 815.978 542.501C825.934 554.048 835.416 565.985 842.15 579.756C845.583 586.775 847.981 594.413 851.679 601.276C855.651 608.649 860.997 615.299 864.457 622.959C865.522 625.317 866.462 627.095 865.51 629.641C865.099 629.536 864.595 629.432 864.21 629.238C862.012 628.129 859.643 624.94 858.083 623.014C848.498 611.174 842.144 597.79 835.269 584.321C832.728 579.344 830.331 573.903 827.203 569.278C820.846 559.878 814.441 558.74 809.424 546.746C807.963 543.254 805.375 537.504 806.842 533.925Z"/>
	<path fill="#959A38" d="M252.08 795.565C255.864 796.451 266.757 807.342 270.508 810.428C281.255 819.267 292.026 828.168 302.985 836.737C306.827 839.742 318.593 847.657 320.985 850.774C321.839 851.886 321.661 852.618 321.479 853.93C321.062 853.948 320.685 853.985 320.272 853.941C316.581 853.545 312.057 851.029 308.666 849.506C291.452 841.775 275.99 832.791 264.13 817.726C260.951 813.687 253.338 803.36 252.079 798.674C251.812 797.678 251.956 796.575 252.08 795.565Z"/>
	<path fill="#676B25" d="M293.885 560.017C296.782 559.648 302.985 561.139 305.348 562.916C306.854 564.047 307.888 565.959 308.444 567.725C309.512 571.115 309.016 574.995 309.625 578.502C310.722 584.829 313.447 590.671 313.994 597.178C314.395 601.961 315.395 614.647 313.503 618.795C312.987 619.926 311.997 620.984 311.204 621.935C309.531 621.927 307.661 620.1 306.367 619.136C303.353 612.357 302.488 603.625 301.469 596.256L299.28 593.683C298.785 588.142 298.613 583.784 295.079 579.2C294.955 574.177 293.953 571.509 291.56 567.146C292.165 564.632 292.797 562.376 293.885 560.017Z"/>
	<path fill="#676B25" d="M201.152 600.11C209.79 599.294 229.613 608.385 237.668 612.796C239.217 613.645 251.703 622.134 252.195 622.764C252.633 623.324 252.819 624.146 253.004 624.817C253.418 626.31 254.209 627.702 254.491 629.193L253.825 630.053L252.812 630.172C249.333 630.044 245.885 629.802 242.547 628.719C238.845 627.518 235.708 625.022 232.106 623.614C224.206 620.525 215.846 617.997 207.764 615.416C205.594 614.723 202.389 613.823 200.772 612.195C199.141 610.553 198.664 608.361 198.735 606.111C198.819 603.455 199.206 601.972 201.152 600.11Z"/>
	<path fill="#959A38" d="M607.626 765.561C602.077 762.512 597.207 758.252 591.57 755.317C584.869 751.827 577.754 749.186 571.068 745.666C564.237 742.071 558.14 737.628 551.529 733.739C547.681 731.476 543.373 729.688 539.78 727.05C537.676 725.505 536.081 722.021 535.823 719.474C535.709 718.354 535.786 718.165 536.435 717.327C542.072 716.985 578.281 741.825 586.901 746.269C595.901 750.849 605.358 754.47 615.114 757.072C617.047 757.51 618.867 757.741 620.371 759.135L620.617 760.254C619.335 762.254 617.23 762.706 615.073 763.375C612.879 764.372 609.971 764.893 607.626 765.561Z"/>
	<path fill="#7C802B" d="M615.114 757.072C617.047 757.51 618.867 757.741 620.371 759.135L620.617 760.254C619.335 762.254 617.23 762.706 615.073 763.375C615.66 762.441 616.256 761.512 616.86 760.589C616.721 758.977 616.042 758.371 615.114 757.072Z"/>
	<path fill="#676B25" d="M384.612 109.045C388.144 108.82 392.815 108.158 395.799 110.414C396.282 111.642 396.405 111.925 395.966 113.252C392.901 122.532 371.799 128.896 363.552 132.721C361.264 133.959 358.245 135.915 355.55 134.825C354.314 134.325 353.618 133.215 353.267 131.983C351.428 125.535 355.115 118.542 358.013 113.006C361.591 112.854 365.096 112.854 368.647 112.286C374.015 111.426 379.221 109.847 384.612 109.045Z"/>
	<path fill="#676B25" d="M583.116 383.738L584.303 384.379C585.395 386.393 582.977 396.644 582.753 399.718C572.763 406.492 565.808 405.669 554.49 403.323C551.909 402.789 549.113 402.105 546.466 402.408C544.127 402.676 541.973 404.201 539.719 404.865L538.826 405.119C536.8 403.862 534.701 402.921 533.255 400.979C533.047 397.245 539.887 398.555 542.212 392.672C542.29 392.475 542.363 392.276 542.438 392.079C557.063 392.081 569.434 388.392 583.116 383.738Z"/>
	<path fill="#959A38" d="M289.788 750.802L290.91 751.302C293.952 755.707 298.181 791.969 298.045 798.641C293.919 796.19 290.978 793.461 287.995 789.747C280.993 781.846 274.851 776.126 271.507 765.754C279.904 761.418 283.766 757.805 289.788 750.802Z"/>
	<path fill="#676B25" d="M287.339 624.595C287.472 624.601 287.606 624.595 287.738 624.614C294.069 625.527 295.789 635.616 298.741 640.148C300.756 643.243 303.49 646.039 305.945 648.794C306.068 651.45 306.966 653.705 307.227 656.238C307.37 657.631 307.308 658.393 306.449 659.454C303.761 659.858 299.726 657.311 297.367 656.075C288.415 650.515 276.062 639.502 271.364 629.93C276.566 626.528 281.364 625.812 287.339 624.595Z"/>
	<path fill="#7C802B" d="M519.997 561.233C520.512 561.633 520.989 562.008 521.421 562.5C523.587 564.965 525.078 568.715 526.621 571.641C530.498 578.993 534.511 586.775 540.011 593.044C542.357 595.718 547.426 600.185 547.298 603.9C546.272 604.447 545.931 604.365 544.75 604.318C532.912 602.637 525.305 599.14 516.128 591.591C516.393 585.51 517.861 565.632 519.997 561.233Z"/>
	<path fill="#676B25" d="M255.839 463.608C260.037 464.935 279.725 478.457 282.972 481.885C283.237 485.216 280.419 488.319 278.64 490.946C277.409 493.049 275.803 494.779 274.192 496.588C268.682 490.997 261.943 486.78 256.12 481.556C255.332 476.065 254.133 468.968 255.839 463.608Z"/>
	<path fill="#959A38" d="M828.742 688.72C835.59 689.237 846.831 697.534 854.363 699.922C867.773 704.173 885.008 705.122 899.023 707.83C900.42 708.1 900.886 708.297 901.67 709.473L901.264 711.056C899.147 711.566 897.118 711.81 894.943 711.9C877.341 712.624 846.425 709.115 833.257 696.404C831.021 694.245 828.856 691.899 828.742 688.72Z"/>
	<path fill="#7C802B" d="M168.702 715.4C170.342 715.248 172.148 714.897 173.73 715.425C174.509 718.947 170.352 727.791 168.935 731.285C159.771 736.638 151.785 738.964 141.233 739.919C140.189 740.094 138.576 740.007 137.632 739.535C137.003 739.22 137.097 738.835 136.937 738.217C139.872 731.112 161.739 718.328 168.702 715.4Z"/>
	<path fill="#7C802B" d="M528.178 217.423C529.038 217.227 529.689 217.093 530.571 217.285C533.217 217.859 547.992 229.25 549.436 231.816L549.16 232.711C546.202 233.895 539.722 230.065 536.246 229.65C531.486 229.081 526.911 229.825 522.217 230.599C516.696 231.76 509.816 236.82 505.552 237.117C504.607 237.183 504.975 237.24 504.185 236.583C504.29 235.269 504.88 234.43 505.612 233.374C511.309 225.161 518.201 219.194 528.178 217.423Z"/>
	<path fill="#676B25" d="M195.722 520.839C197.329 521.396 199.002 521.77 200.649 522.196C202.235 524.034 204.054 525.921 205.279 528.016C207.791 532.314 211.216 541.107 211.266 546.069C211.289 548.359 210.229 549.521 208.649 551.033C208.487 551.052 208.325 551.073 208.163 551.089C204.781 551.428 201.596 549.701 199.051 547.548C194.948 544.077 193 539.796 192.66 534.496C192.349 529.625 192.356 524.64 195.722 520.839Z"/>
	<path fill="#959A38" d="M659.17 377.336C677.811 380.292 695.569 388.86 711.303 399.141C711.304 401.841 711.376 404.452 710.671 407.085C706.316 405.224 702.375 402.087 698.302 399.66C690.402 394.952 682.064 390.204 673.737 386.294C669.906 384.495 661.002 383.891 658.49 380.872C658.272 379.422 658.619 378.63 659.17 377.336Z"/>
	<path fill="#7C802B" d="M167.536 555.911C168.135 556.238 168.855 556.426 169.149 557.081C170.883 560.934 167.595 574.27 166.559 578.419C165.305 583.442 159.342 605.21 156.476 607.976C156.027 608.41 155.407 608.62 154.872 608.942C153.083 606.501 153.176 599.383 152.968 596.205C152.903 595.222 152.818 594.255 153.031 593.283C154.17 588.098 164.839 559.01 167.536 555.911Z"/>
	<path fill="#676B25" d="M314.556 507.06C319.947 509.417 331.809 516.812 336.326 520.64C336.029 523.699 331.271 527.852 329.14 530.189C321.659 527.206 311.723 522.22 306.572 516.02C308.926 512.875 311.733 509.796 314.556 507.06Z"/>
	<path fill="#959A38" d="M738.998 436.484C740.989 436.573 742.978 437.006 744.945 437.333C753.312 444.981 758.842 452.493 763.926 462.525C765.167 464.975 766.675 467.643 767.432 470.277C767.825 471.642 767.526 471.761 766.826 472.927C765.985 473.371 764.855 473.968 763.915 474.069C762.819 474.187 761.876 473.612 761.16 472.851C757.333 468.78 754.461 462.831 751.424 458.127C747.618 452.23 743.115 446.306 739.851 440.102C739.198 438.86 739.025 437.873 738.998 436.484Z"/>
	<path fill="#676B25" d="M220.909 562.168C225.87 563.075 231.235 563.431 235.929 565.397C237.507 566.059 238.532 566.67 239.235 568.285C239.116 573.962 241.22 575.902 238.401 581.489C237.735 581.845 237.916 581.785 237.088 582.036C231.595 583.703 228.341 576.308 224.998 573.389C223.926 572.453 222.443 571.756 221.188 571.094C220.86 568.217 220.125 564.986 220.909 562.168Z"/>
	<path fill="#959A38" d="M737.982 379.021L744.259 378.841C743.756 381.446 743.077 383.985 742.387 386.545C736.32 387.67 730.221 388.696 724.25 390.268C723.03 390.669 722.052 390.892 720.755 390.987C719.591 390.094 718.952 389.596 718.285 388.243C718.255 387.609 718.229 387.106 718.562 386.529C721.075 382.175 733.213 380.216 737.982 379.021Z"/>
	<path fill="#959A38" d="M276.248 506.497L277.559 507.233C279.459 510.715 277.552 516.554 277.589 520.472C277.591 520.619 277.596 520.766 277.599 520.912C274.033 524.689 270.496 526.79 265.788 528.779L264.643 528.691L263.971 527.669C264.147 523.963 273.64 510.536 276.248 506.497Z"/>
	<path fill="#7C802B" d="M512.225 209.535C513.572 209.44 515.428 209.534 516.723 209.904C517.78 210.206 517.883 210.403 518.413 211.289C517.654 214.023 508.897 220.216 506.342 222.816C505.299 223.823 504.931 224.334 503.512 224.726C502.8 224.215 502.658 224.302 502.408 223.394C501.692 220.792 502.772 217.385 504.04 215.111C506.113 211.394 508.298 210.565 512.225 209.535Z"/>
	<path fill="#676B25" d="M580.321 414.5L586.569 412.49L589.67 418.086C586.879 419.866 584.135 421.605 581.583 423.722C580.971 421.374 579.368 419.403 578.024 417.413C578.775 416.441 579.496 415.408 580.321 414.5Z"/>
</svg>
