<?xml version="1.0" encoding="utf-8" ?>
<svg xmlns="http://www.w3.org/2000/svg" xmlns:xlink="http://www.w3.org/1999/xlink" width="1000" height="1000">
	<path fill="#6B6F26" d="M268.498 930.037L268.588 929.189C269.334 921.835 268.683 914.43 269.214 907.066C270.695 885.832 273.226 864.684 276.799 843.701C306.782 678.733 394.651 529.878 524.597 423.918C582.695 376.441 646.846 336.898 715.365 306.327C740.4 295.293 765.819 285.854 791.491 276.461C797.613 274.221 803.333 271.136 809.324 268.605C817.496 265.152 826.034 262.431 834.533 259.916C849.895 255.369 863.756 253.544 879.356 250.615C893.54 247.867 907.606 244.542 921.519 240.648C930.867 238.023 963.063 227.281 966.305 218.528L966.777 218.473C967.088 219.418 967.019 219.7 966.546 220.582C965.538 222.461 963.264 224.383 961.757 225.916C959.122 228.597 956.343 231.32 953.255 233.481C930.657 249.292 885.453 264.534 858.078 270.862C844.863 273.916 819.188 277.404 806.322 274.022C768.494 289.724 730.882 309.013 695.118 329.003C547.488 411.519 426.524 524.482 348.575 676.031C338.084 696.429 328.735 717.767 319.975 738.958C301.266 785.333 287.137 833.427 277.792 882.553C275.403 894.66 273.386 906.838 271.745 919.069C270.942 924.714 270.716 930.924 269.452 936.438C268.44 934.722 268.61 932.007 268.498 930.037Z"/>
	<path fill="#6B6F26" d="M486.462 166.758C486.919 167.589 486.955 168.308 486.786 169.242C486.231 172.3 484.752 175.577 483.773 178.542C481.971 184.095 480.238 189.671 478.574 195.267C465.966 237.527 455.363 283.234 452.38 327.332C452.088 331.656 452.198 335.997 452.024 340.326C451.829 345.196 451.272 350.038 451.156 354.916C450.714 373.545 451.099 392.275 451.119 410.915C451.242 422.655 451.694 434.389 452.474 446.104C453.113 454.837 454.61 464.337 453.949 473.05L453.879 473.885C450.939 469.444 448.544 464.512 446.209 459.731C441.666 448.644 437.561 438.102 434.946 426.352C430.43 406.867 428.652 386.847 429.664 366.871C430.272 355.174 432.272 343.472 434.098 331.915C441.177 287.116 453.343 244.567 470.044 202.44C474.346 191.589 480.276 176.536 486.462 166.758Z"/>
	<path fill="#6B6F26" d="M563.185 137.551C563.277 137.645 563.396 137.719 563.46 137.833C564.125 139.017 563.14 140.641 562.622 141.76C552.802 162.984 544.558 185.374 537.32 207.606C529.784 230.754 522.827 254.423 518.235 278.348C514.543 297.586 512.64 316.753 510.474 336.191L505.057 381C503.268 396.618 503.103 412.653 500.515 428.111C498.976 424.984 497.725 421.857 496.562 418.573C492.829 407.412 490.291 395.886 488.991 384.189C486.885 365.415 486.857 345.236 489.673 326.526C491.638 313.479 495.026 300.773 498.442 288.05C509.491 245.608 525.593 204.645 546.402 166.038C551.424 156.57 556.478 145.935 563.185 137.551Z"/>
	<path fill="#6B6F26" d="M645.141 632.838L645.628 633.462C636.546 640.248 626.599 646.192 616.804 651.881C592.065 666.249 566.8 678.258 539.772 687.707C511.172 697.705 475.775 706.878 445.389 706.82C432.515 706.795 419.001 704.86 406.493 701.913C397.423 699.776 388.142 696.996 379.728 692.938C375.959 691.131 369.054 688.139 366.616 684.798C367.429 684.038 368.382 684.164 369.459 684.186C377.519 684.352 385.727 685.352 393.799 685.791C400.783 686.171 407.85 685.985 414.843 685.979C430.504 685.964 446.049 685.115 461.679 684.272C474.314 683.59 486.874 683.06 499.42 681.26C529.829 676.896 560.404 668.163 589.095 657.231C600.61 652.844 612.126 647.777 623.292 642.578C630.165 639.379 637.361 635.246 644.582 633.003C644.767 632.945 644.955 632.893 645.141 632.838Z"/>
	<path fill="#6B6F26" d="M231.481 426.434L232.417 427.025C234.007 430.424 232.93 443.007 233.095 447.769C233.672 464.394 235.429 481.178 237.397 497.696C240.766 525.986 246.166 555.039 254.77 582.247C259.45 597.045 265.443 611.469 270.843 626.016C274.097 634.782 277.15 643.639 280.611 652.326C285.428 664.261 290.349 676.155 295.373 688.006C296.709 691.112 301.457 700.124 301.89 702.886C301.945 703.236 301.812 703.589 301.773 703.941C300.64 704.238 300.586 704.101 299.502 703.604C290.308 696.098 281.517 686.141 274.596 676.555C262.828 660.585 253.5 642.954 246.918 624.24C242.325 611.292 239.52 597.334 236.919 583.867C233.839 567.916 230.931 551.786 229.427 535.601C228.459 525.187 228.292 514.824 227.852 504.394C227.633 499.199 226.984 493.997 226.994 488.797C227.005 483.088 227.682 477.342 227.867 471.626C228.355 456.471 229.083 441.444 231.481 426.434Z"/>
	<path fill="#6B6F26" d="M198.075 520.589L200.024 519.509C201.595 529.477 202.303 539.56 203.746 549.544C206.913 570.758 211.038 591.819 216.107 612.661C220.639 630.769 226.015 649.101 232.566 666.579C238.057 681.226 244.612 695.58 250.634 710.024C261.096 735.675 271.887 761.192 283.006 786.566C272.354 779.373 263.669 769.439 255.873 759.348C226.362 721.149 215.607 681.197 206.645 634.559C201.924 609.993 198.712 584.666 197.94 559.664C197.538 546.647 198.4 533.595 198.075 520.589Z"/>
	<path fill="#6B6F26" d="M277.979 355.367C278.601 356.029 278.768 356.437 278.834 357.393C279.036 360.332 278.177 363.796 278.043 366.792C277.891 370.202 278.149 373.623 278.047 377.036C277.396 394.931 277.751 412.849 279.111 430.705C280.993 454.073 284.216 477.807 289.885 500.576C294.012 517.152 299.845 533.018 305.578 549.074C310.056 561.615 314.33 574.213 319.172 586.622C324.768 600.959 331.884 614.923 336.867 629.454L331.31 625.596C328.554 623.609 325.974 620.695 323.568 618.271C307.841 602.429 295.859 582.896 287.382 562.312C280.025 544.449 276.522 525.492 273.755 506.47C272.645 498.837 271.3 491.244 270.529 483.564C267.366 452.073 268.116 413.137 272.711 381.771C273.933 373.422 274.749 363.084 277.979 355.367Z"/>
	<path fill="#6B6F26" d="M342.351 305.944L342.996 306.564C343.206 307.211 343.288 307.719 343.22 308.401C341.521 325.407 339.267 342.194 338.27 359.29C336.577 388.35 338.864 423.978 343.564 452.76C345.398 463.993 348.534 474.81 351.211 485.846C354.264 498.431 356.83 511.167 360.095 523.699C364.142 539.236 368.908 554.705 372.407 570.364C372.796 572.106 373.568 574.409 372.792 576.062C370.701 574.664 369.087 572.402 367.447 570.508C360.035 561.621 353.604 551.959 348.268 541.69C341.394 528.549 335.666 514.339 332.132 499.918C328.536 485.246 327.106 470.289 326.065 455.257C322.58 404.937 327.232 354.191 342.351 305.944Z"/>
	<path fill="#6B6F26" d="M398.485 252.761C399.12 254.672 395.319 276.663 394.782 280.527C391.848 303.142 390.637 325.947 391.161 348.745C391.624 366.789 393.257 385.226 396.649 402.96C399.058 415.553 402.452 427.912 405.283 440.406C411.003 466.1 417.392 491.641 424.445 517.001C421.629 514.656 419.166 512.166 416.685 509.468C397.861 485.68 384.268 456.671 380.247 426.391C373.721 376.262 377.116 325.338 390.242 276.52C392.176 269.346 393.99 258.683 398.485 252.761Z"/>
	<path fill="#6B6F26" d="M570.266 756.931L570.671 757.291C567.774 761.715 555.51 766.664 550.588 768.824C510.705 786.327 467.325 796.328 424.131 801.007C414.647 802.034 404.881 803.319 395.33 803.094C372.596 802.558 348.701 798.005 327.515 789.722C322.94 787.766 316.949 785.535 313.026 782.46C314.865 779.87 327.253 780.895 330.878 780.892C352.668 780.878 374.54 780.463 396.321 780.924C411.483 781.245 426.576 782.642 441.788 781.786C470.344 780.179 499.955 775.957 527.718 769.095C542.118 765.536 556.018 760.889 570.266 756.931Z"/>
	<path fill="#6B6F26" d="M731.24 124.833L731.761 125.386C731.664 128.769 721.589 141.794 719.326 145.136C704.354 167.247 690.634 190.288 677.125 213.308C670.66 224.324 664.234 235.473 658.43 246.85C652.915 257.663 647.904 268.717 642.229 279.454C633.059 296.804 622.861 314.055 611.859 330.303C607.024 337.446 602.212 345.428 596.111 351.52C595.847 351.079 595.634 350.794 595.535 350.252C594.74 345.908 598.238 334.306 599.407 329.373C609.392 287.249 630.604 255.061 655.03 220.254C664.382 206.928 673.641 193.433 683.657 180.592C695.435 165.714 707.563 151.118 720.033 136.816C723.658 132.714 727.602 128.926 731.24 124.833Z"/>
	<path fill="#6B6F26" d="M601.095 689.031L600.832 690.21C582.391 705.706 560.014 719.023 537.988 728.762C519.148 737.092 500.407 743.328 480.442 748.263C436.845 759.04 403.43 759.587 361.372 743.211C356.528 740.897 351.939 738.471 347.605 735.283C356.204 734.573 365.01 734.904 373.638 734.905L418.511 734.91C425.918 734.869 433.283 734.177 440.683 734.026C448.614 733.865 456.558 734.187 464.467 733.467C502.93 729.965 540.18 718.088 575.185 702.116C583.943 698.12 592.433 693.273 601.095 689.031Z"/>
	<path fill="#6B6F26" d="M677.43 548.41L678.191 548.577L678.201 549.147C674.765 552.738 641.75 566.441 635.674 568.791C603.998 581.04 571.125 588.215 537.44 592.109C524.34 593.624 511.026 594.852 497.829 593.909C477.07 592.278 456.734 587.159 437.678 578.766C435.002 577.267 425.193 572.931 424.296 570.347C425.015 569.711 425.267 569.54 426.272 569.449C427.973 569.297 429.849 569.746 431.565 569.831C436.438 570.072 441.27 570.138 446.149 570.472C451.53 570.84 456.89 570.748 462.266 571.009C467.523 571.265 472.76 571.824 478.025 571.88C486.591 571.972 495.162 571.755 503.722 572.162C517.182 572.802 530.804 574.167 544.272 573.93C589.252 573.139 634.823 562.137 677.43 548.41Z"/>
	<path fill="#6B6F26" d="M643.075 169.743L643.769 170.157C643.775 170.494 643.886 170.847 643.785 171.169C643.228 172.932 632.767 188.852 630.739 192.218C623.888 203.622 617.338 215.203 611.094 226.95C599.177 248.757 588.838 271.39 580.158 294.676C576.983 303.311 574.497 312.182 571.655 320.93C568.223 331.413 564.599 341.832 560.784 352.182C558.522 358.482 546.445 397.019 544.698 399.074L543.779 398.975C542.646 395.432 542.012 391.494 541.532 387.809C538.423 363.942 542.942 336.59 551.023 313.933C553.282 307.598 556.65 301.483 559.51 295.392C575.486 261.561 595.049 229.543 617.863 199.89C622.608 193.668 627.511 187.45 632.655 181.55C635.976 177.74 639.665 174.193 642.743 170.183L643.075 169.743Z"/>
	<path fill="#6B6F26" d="M163.127 608.654C163.812 609.17 164.258 609.474 164.547 610.323C165.783 613.956 166.134 618.449 166.919 622.246C168.288 628.868 170.02 635.385 171.834 641.897C178.568 665.665 187.79 688.656 199.347 710.489C203.189 717.846 207.567 725.243 212.186 732.139C220.745 744.916 270.961 813.431 272.081 821.175C259.405 818.373 237.8 798.858 228.458 789.221C212.522 772.782 202.464 754.139 192.972 733.571C174.953 694.527 162.436 651.991 163.127 608.654Z"/>
	<path fill="#6B6F26" d="M761.521 435.148L762.683 435.226L762.488 435.962C759.268 438.171 755.402 439.416 751.874 441.071C738.448 447.37 724.848 453.117 710.741 457.78C691.581 464.114 672.713 468.704 652.831 472.143C613.768 478.901 584.502 479.793 548.012 461.444C544.879 459.492 535.825 454.939 534.764 451.408C538.651 450.285 566.771 453.504 573.737 453.862C586.094 454.496 598.475 454.561 610.835 455.016C623.935 455.499 636.904 456.478 650.042 455.942C677.564 454.82 705.258 449.602 731.94 442.944C741.838 440.475 751.584 437.499 761.521 435.148Z"/>
	<path fill="#6B6F26" d="M622.351 601.104L623.572 601.21L623.333 601.805C603.524 614.621 572.466 627.428 549.837 634.604C535.623 639.099 521.124 642.635 506.437 645.188C498.865 646.545 491.21 648.042 483.552 648.758C459.829 650.974 434.595 647.221 413.327 636.218C407.532 633.173 402.068 629.78 397.588 624.954C412.453 625.064 427.452 627.665 442.376 627.902C455.404 628.108 468.459 627.966 481.489 627.966C490.368 627.966 499.422 628.31 508.28 627.691C531.139 626.093 554.805 621.033 576.885 615.129C592.241 611.023 607.08 605.439 622.351 601.104Z"/>
	<path fill="#6B6F26" d="M705.119 502.125L705.993 502.408C703.577 505.477 675.861 513.034 670.71 514.47C641.249 522.683 611.916 527.665 581.437 530.093C569.012 531.083 556.092 531.954 543.671 530.516C524.798 528.407 506.539 522.532 489.976 513.241C485.518 510.567 481.941 507.685 478.249 504.014C488.625 503.607 499.403 505.632 509.773 506.463C523.492 507.564 537.247 508.116 550.964 509.259C564.484 510.386 577.945 512.176 591.51 512.823C598.906 513.176 606.016 512.431 613.369 512.122C644.502 510.814 674.34 506.718 705.119 502.125Z"/>
	<path fill="#6B6F26" d="M294.979 822.891C302.585 823.168 313.166 826.988 321.043 828.543C333.797 831.061 346.53 832.825 359.372 834.773C365.993 835.777 372.56 837.112 379.213 837.899C407.541 841.249 437.812 836.982 465.486 830.734C475.207 828.539 485.087 825.012 494.915 823.694L495.685 823.596C491.538 826.598 486.926 828.622 482.203 830.539C462.968 839.903 441.185 847.619 420.129 851.567C408.013 853.839 396.137 855.363 383.852 856.201C360.353 857.805 343.596 856.686 322.09 845.783C318.384 843.904 314.491 841.998 311.075 839.632C306.859 836.71 295.899 828.089 294.979 822.891Z"/>
	<path fill="#6B6F26" d="M787.407 154.748L787.741 155.465C780.797 164.7 772.873 173.368 765.627 182.401C755.917 194.737 746.457 207.268 737.252 219.985C730.026 229.771 723.102 240.119 716.616 250.403C713.464 255.4 710.726 260.662 707.417 265.559C698.655 278.528 688.163 291.38 677.172 302.483C672.3 307.405 667.535 312.31 661.849 316.306C661.756 316.193 661.647 316.09 661.568 315.966C660.626 314.49 661.221 312.209 661.613 310.642C665.721 294.227 673.912 276.653 683.082 262.528C691.014 250.31 700.689 239.88 710.289 228.995C728.891 207.902 747.843 187.448 769.169 169.032C774.961 164.03 780.817 158.681 787.407 154.748Z"/>
	<path fill="#6B6F26" d="M607.301 391.025C618.146 391.561 628.984 393.172 639.849 393.781C650.063 394.353 660.253 393.962 670.49 394.705C684.674 395.736 698.62 397.566 712.889 397.51C724.629 397.465 736.808 397.435 748.508 396.575C767.662 395.169 787.432 392.557 806.625 392.958C801.333 394.739 796.055 396.267 790.644 397.638C761.644 405.818 731.976 411.412 701.989 414.356C688.75 415.724 675.076 416.973 661.758 415.834C654.862 415.244 647.909 413.558 641.295 411.577C630.126 408.231 613.169 401.91 607.301 391.025Z"/>
	<path fill="#6B6F26" d="M851.375 338.636L852.377 338.296L852.948 338.67C852.105 340.292 849.634 341.19 848 341.812C817.463 353.441 785.005 360.995 752.795 366.153C744.987 367.404 736.743 369.124 728.813 369.019C714.107 368.824 699.124 365.176 685.753 359.226C681.133 356.684 677.608 353.712 673.729 350.144C679.771 350.13 685.702 349.474 691.724 349.185C696.763 348.944 701.812 349.048 706.841 348.653C714.197 348.076 721.598 347.143 728.971 346.944C736.631 346.738 744.138 347.725 751.771 347.931C760.161 348.157 768.463 347.542 776.816 346.85C791.579 345.627 806.431 344.323 821.13 342.519C831.2 341.283 841.268 339.431 851.375 338.636Z"/>
	<path fill="#6B6F26" d="M864.077 157.219C864.489 157.164 864.952 157.298 865.363 157.364C864.033 159.89 855.205 164.768 852.551 166.605C841.792 174.047 831.597 182.833 821.832 191.512C812.675 199.651 803.13 208.38 794.669 217.235C785.862 226.454 778.037 236.457 769.479 245.877C755.818 260.915 740.415 275.061 724.442 287.605C724.116 287.685 723.667 287.662 723.328 287.678C723.293 287.129 723.255 286.992 723.388 286.378C724.692 280.396 729.263 273.299 732.256 267.946C739.146 255.554 747.529 244.053 757.219 233.701C764.532 225.84 773.064 218.88 781.276 211.98C798.63 197.397 816.112 183.63 835.645 171.996C844.903 166.481 854.449 161.996 864.077 157.219Z"/>
	<path fill="#6B6F26" d="M904.039 292.149L907.157 292.051L907.438 292.408C906.434 292.879 905.42 293.329 904.398 293.758C879.125 304.159 852.016 311.648 825.222 316.797C818.035 318.178 810.437 319.85 803.109 319.891C792.672 319.949 781.514 317.334 771.941 313.273C770.237 312.356 768.538 311.335 766.93 310.26C764.864 308.879 761.569 306.779 761.053 304.267C763.474 303.286 767.995 303.908 770.719 303.936C784.017 304.075 796.83 302.695 810.056 302.042C816.431 301.727 822.834 302.035 829.214 301.82C837.057 301.555 844.91 300.444 852.698 299.515C869.888 297.466 886.935 294.808 904.039 292.149Z"/>
	<path fill="#6B6F26" d="M911.15 184.192L911.798 184.313C909.27 186.714 898.392 191.225 894.307 193.512C886.495 197.885 878.745 202.653 871.427 207.814C864.806 212.483 857.957 217.712 851.876 223.055C836.911 236.203 822.405 250.829 804.09 259.396L803.695 259.21L803.412 258.318C805.102 254.064 806.92 250.205 809.305 246.299C813.621 239.322 818.909 232.995 825.01 227.509C830.597 222.544 837.166 218.474 843.473 214.481C864.635 201.085 886.688 190.114 911.15 184.192Z"/>
	<path fill="#6B6F26" d="M198.075 520.589C198.064 518.15 197.856 515.753 198.803 513.46L199.379 513.437C200.099 515.447 200.008 517.404 200.024 519.509L198.075 520.589Z"/>
	<path fill="#464B01" fill-opacity="0.96078432" d="M268.498 930.037C268.61 932.007 268.44 934.722 269.452 936.438C269.011 939.031 269.334 941.686 268.644 944.242C267.097 941.44 267.853 933.237 268.498 930.037Z"/>
</svg>
