<?xml version="1.0" encoding="utf-8" ?>
<svg xmlns="http://www.w3.org/2000/svg" xmlns:xlink="http://www.w3.org/1999/xlink" width="809" height="581">
	<path fill="#7F842A" d="M105.202 0L123.538 0C123.908 0.319667 124.195 0.480898 124.667 0.636758C127.23 1.48146 133.837 0.883099 137.075 1.10571C147.737 1.8996 158.383 2.88709 169.009 4.06766C183.483 5.66712 197.546 8.64348 211.776 11.6443C226.58 14.766 240.79 19.2399 255.19 23.8099C263.945 26.5887 272.81 28.9491 281.461 32.0593C295.666 37.1662 309.65 43.5144 323.272 50.0134C341.457 58.6897 358.08 67.0671 375.126 77.9408C382.669 82.7524 392.273 87.6191 397.165 95.3439C398.429 97.3398 398.973 99.7578 399.139 102.091C399.464 106.673 399.082 111.432 399.064 116.033L399.074 143.47L399.074 234.007L399.076 478.974L399.101 538.312C399.108 548.312 400.175 563.979 397.993 573.328C397.506 575.417 396.621 578.138 394.628 579.234C392.743 580.27 390.077 580.266 387.982 580.24C376.036 580.088 370.611 573.314 361.485 566.839C346.596 556.275 331.332 546.209 315.163 537.682C307.396 533.586 298.814 530.452 290.735 526.999C278.859 521.923 266.93 516.526 254.777 512.15C250.312 510.542 245.631 509.441 241.114 507.947C236.797 506.519 232.537 504.677 228.153 503.487C208.063 498.031 187.258 494.394 166.69 491.249C158.7 490.028 150.616 488.187 142.602 487.311L113.941 484.306C109.724 483.826 104.698 483.66 100.676 482.367C98.8092 481.767 97.7091 480.549 96.8605 478.843C94.041 473.175 94.1596 462.454 93.9837 456.023C93.3958 434.537 93.947 412.885 93.9463 391.385L93.9404 264.433L93.9405 125.334C93.9414 98.9776 93.5084 72.5371 93.9714 46.1916C94.0526 41.5705 94.7324 36.9856 94.8465 32.3697C95.058 23.8216 93.5765 12.8741 96.5593 4.7786C98.1024 0.590525 101.774 1.68315 104.979 0.116151C105.054 0.0793166 105.127 0.038717 105.202 0ZM364.017 534.97C365.569 534.57 367.19 533.996 368.803 534.087C369.779 534.353 370.927 534.884 371.888 534.579C372.212 528.804 371.962 522.94 371.947 517.152L371.934 487.029L371.931 389.7L371.929 228.943L371.944 174.853C371.946 162.367 372.266 149.783 371.892 137.309C371.765 133.062 371.268 128.84 371.052 124.599C370.765 118.938 371.25 113.277 369.3 107.846C356.525 97.5052 343.092 89.7773 328.53 82.3593C321.895 78.9797 315.265 75.3914 308.457 72.3805C290.348 64.3715 271.531 58.2703 252.663 52.3702C239.201 48.1608 225.5 43.8696 211.739 40.7765C206.557 39.612 201.303 38.8871 196.082 37.9376C184.474 35.8266 173.075 33.8442 161.359 32.3648C148.389 30.7269 134.582 28.574 121.529 29.3202C120.035 36.6372 119.825 51.0471 120.241 58.5483C120.449 62.2835 121.093 66.0656 121.127 69.7933L121.138 122.219L121.131 351.765C121.131 361.273 120.369 455.231 121.699 458.261C122.624 458.988 123.97 458.846 125.1 458.928C142.636 460.201 162.868 462.125 180.104 465.252C192.214 467.45 204.248 470.587 216.23 473.401C247.697 480.791 272.565 488.023 302.037 501.954C314.321 507.76 326.887 513.831 338.751 520.436C347.175 525.125 355.386 530.728 364.017 534.97Z"/>
	<path fill="#7F842A" d="M416.116 581C412.451 578.381 410.794 576.031 410.067 571.544C408.663 562.876 408.877 553.973 408.875 545.224C408.873 537.439 408.737 529.619 408.937 521.838C409.153 513.427 409.733 505.002 409.929 496.591C410.409 476.003 409.957 455.293 409.958 434.695L409.954 209.796C409.953 173.751 409.287 137.721 409.892 101.712C409.946 98.5 410.514 95.152 412.441 92.5011C417.176 85.9866 443.768 70.614 451.94 66.3278C463.655 60.184 475.156 53.1648 487.138 47.5801C505.442 39.239 524.259 32.0713 543.474 26.1207C572.747 16.745 602.656 9.03035 633.213 5.23655C643.987 3.89891 654.981 2.79293 665.812 2.12413C669.63 1.88842 673.464 2.02649 677.277 1.78521C685.649 1.25543 694.197 0.0746948 702.598 1.05369C705.191 1.35575 707.977 2.05349 710.089 3.66071C711.133 4.45459 711.751 5.40794 712.357 6.54964C712.418 6.66565 712.486 6.77842 712.544 6.89626C712.599 7.00773 712.651 7.12097 712.695 7.23703C713.842 10.2407 712.994 57.4534 713.111 65.0785C713.188 70.1304 713.872 75.162 713.922 80.2044C713.965 84.5158 713.297 88.8321 713.141 93.1423C712.871 100.577 713.083 108.094 713.082 115.537L713.072 277.059L713.079 406.763C713.083 428.311 713.6 449.97 713.096 471.506C713.042 473.816 712.76 476.104 711.903 478.266C711.05 480.417 709.838 482.253 707.618 483.149C703.351 484.873 694.5 484.657 689.552 485.157C675.335 486.593 660.937 487.771 646.859 490.278C636.737 492.08 626.312 493.55 616.277 495.627C595.376 499.954 573.983 505.377 553.787 512.361C542.836 516.149 532.265 520.59 521.559 524.997C506.678 531.123 491.165 537.914 477.428 546.316C461.591 556.002 447.717 568.305 432.278 578.543C429.078 580.665 424.244 579.028 421.461 581L416.116 581ZM437.282 539.391L440.502 537.211C475.199 514.97 512.562 497.194 551.709 484.304C571.863 477.842 592.715 472.947 613.429 468.667C625.182 466.239 637.014 463.845 648.882 462.014C661.28 460.101 673.925 459.339 686.376 457.75C687.734 454.903 686.931 418.018 686.93 410.656L687.93 266.947C687.982 249.717 688.189 232.433 687.892 215.209C687.785 209.017 686.948 202.88 686.925 196.678L686.92 67.0071C686.92 61.4799 687.469 30.9566 686.69 28.8318C686.567 28.496 686.481 28.38 686.295 28.0464C684.323 28.0958 682.31 28.0674 680.347 28.2395C663.763 30.4404 647.113 31.6092 630.569 34.3594C597.903 39.9984 565.768 48.3709 534.504 59.3886C525.87 62.3371 517.243 64.9465 508.827 68.5105C493.59 74.963 479.44 82.4961 465.168 90.8398C458.766 94.5828 443.182 102.565 438.722 108.218C437.886 109.277 437.518 111.02 437.328 112.342C436.716 116.619 436.945 121.21 436.795 125.535C436.659 129.451 436.219 133.354 436.126 137.272C435.887 147.317 436.097 157.417 436.096 167.466L436.13 213.46C436.166 217.394 436.626 221.322 436.638 225.248L436.092 323.809L437.137 451.959L437.117 508.833C437.115 519.01 436.933 529.221 437.282 539.391Z"/>
	<path fill="#7F842A" d="M723.563 492.659C724.673 489.606 723.951 436.309 723.949 428.23L723.947 231.586L723.949 166.577C723.949 155.131 723.636 143.588 724.022 132.153C724.14 128.639 724.46 118.7 726.242 116.104C728.272 113.146 730.615 111.329 734.065 110.279C740.484 108.327 747.309 109.104 753.915 108.943C757.128 108.864 760.328 108.442 763.54 108.392C766.608 108.344 769.686 108.724 772.754 108.814C781.722 109.077 793.701 108.335 801.749 112.788C809.286 116.959 808.272 127.266 808.183 134.575C808.127 139.156 808.009 143.746 808.045 148.326C808.06 150.196 807.829 152.911 808.396 154.687C808.449 154.852 808.51 155.015 808.567 155.179C809.802 159.043 809.003 177.47 809.003 182.662L809.007 243.352L808.998 533.292C808.992 534.847 809.121 536.492 808.553 537.959C806.952 541.632 809.008 547.458 806.796 551.973C805.957 553.684 805.009 554.814 803.179 555.477C800.761 556.351 798.032 556.777 795.467 556.842C789.079 557.005 782.269 556.129 775.89 555.555C761.335 554.246 746.506 552.349 731.897 552.044C721.277 551.823 710.421 551.765 699.808 552.121C695.589 552.263 691.393 552.848 687.175 552.979C680.706 553.181 674.216 552.795 667.749 553.072C664.728 553.201 661.734 553.674 658.72 553.885C652.451 554.325 646.182 554.497 639.909 555.016C635.178 555.407 630.497 556.126 625.777 556.583C606.51 558.451 587.118 560.542 568.056 563.985L523.362 572.386C515.131 573.99 506.261 576.403 497.914 577.004C494.977 577.215 491.866 576.938 489.179 575.653C486.524 574.383 484.674 572.204 483.705 569.437C482.506 566.017 482.532 561.956 484.135 558.67C488.382 549.963 510.206 541.166 518.958 537.454C549.876 524.111 581.926 513.562 614.725 505.933C623.064 504.076 631.41 502.864 639.827 501.51C653.178 499.274 666.572 497.298 680 495.585C684.439 494.99 688.838 495.062 693.295 494.79C698.948 494.444 704.585 493.922 710.246 493.634C714.231 493.43 719.377 494.219 723.097 492.839C723.253 492.781 723.407 492.719 723.563 492.659ZM751.627 136.402C751.89 137.011 752.082 137.493 752.106 138.169C752.707 155.293 752.116 172.627 752.117 189.781L752.123 294.16L752.122 428.619C752.121 451.393 752.562 474.264 752.084 497.025C751.998 501.108 751.63 511.395 750.338 514.819C749.488 517.07 747.899 518.551 745.699 519.47C738.518 522.47 719.062 519.36 715.432 522.019L715.078 522.986C715.581 523.972 716.02 524.061 717.093 524.382C719.39 525.067 739.218 526.801 742.538 526.914C749.281 526.906 778.253 529.15 781.519 527.113C783.1 521.421 780.966 509.695 780.93 503.211L780.921 414.112C780.922 409.454 780.799 404.745 781.027 400.093C781.245 395.661 781.834 391.252 781.897 386.813C782.185 366.265 781.951 345.671 781.896 325.119C781.874 317.087 781.121 309.053 780.969 301.016C780.616 282.294 780.719 263.415 780.974 244.695C781.07 237.67 781.796 230.674 781.9 223.673C782.176 204.946 781.931 186.171 781.926 167.438C781.924 158.908 782.85 146.455 781.239 138.544C780.597 137.455 779.559 137.14 778.379 136.84C771.925 135.196 764.028 135.972 757.407 136.067L751.627 136.402Z"/>
	<path fill="#7F842A" d="M0 119.356C2.52547 114.951 4.73266 112.658 9.72047 111.296C20.3036 108.406 71.2686 106.999 79.8443 111.891C81.647 112.92 82.5806 115.966 82.9533 117.904C84.938 128.223 84.1288 139.455 84.1248 149.923L84.1133 196.681L84.1158 397.666L84.1034 454.726C84.0993 467.773 83.364 481.126 85.3481 494.049C114.265 493.602 145.428 496.495 173.95 501.466C196.042 505.317 217.199 512.308 238.512 519.03C262.565 526.616 286.666 533.657 308.776 546.101C313.038 548.499 317.502 550.866 321.012 554.326C323.909 557.183 325.396 559.949 325.374 564.069C325.357 567.454 324.57 571.301 322.044 573.744C319.505 576.2 315.921 576.19 312.613 576.031C303.085 575.572 293.668 573.659 284.344 571.786L254.725 565.963C250.314 565.107 245.917 564.025 241.477 563.35C233.141 562.084 224.645 561.633 216.272 560.573C186.418 556.685 156.408 554.117 126.328 552.874C122.764 552.715 119.217 552.254 115.653 552.111C103.013 551.604 89.886 551.685 77.2404 552.087C68.5807 552.362 59.8151 553.245 51.1743 553.936C42.6839 554.615 8.69546 559.178 3.33848 553.455C1.1851 551.155 1.63767 547.753 0 545.45L0 119.356ZM27.2767 137.625C27.0516 142.275 26.3241 146.877 26.1663 151.524C25.8061 162.127 26.0993 172.825 26.0995 183.437L26.0992 243.304L26.1003 394.876L26.1019 479.057C26.1016 495.28 24.9258 513.154 27.3647 529.097C39.3231 528.719 51.3595 526.698 63.3019 526.921C69.5447 526.885 71.8729 526.121 76.375 521.695C69.816 520.768 63.2089 519.987 57.5865 516.157C54.636 500.517 55.9293 480.402 55.941 464.219L55.9427 382.672L55.9377 219.778L55.9379 165.935C55.9383 156.01 55.696 146.01 56.0436 136.093C49.8032 136.053 43.5439 135.908 37.3053 136.054C33.8784 136.301 30.6112 136.737 27.2767 137.625Z"/>
</svg>
