<?xml version="1.0" encoding="utf-8" ?>
<svg xmlns="http://www.w3.org/2000/svg" xmlns:xlink="http://www.w3.org/1999/xlink" width="600" height="600">
	<path fill="#6B6F25" d="M302.304 69.093C304.358 69.6876 307.439 72.8048 309.128 74.2312C325.401 87.9767 341.846 106.584 353.406 124.424C379.466 164.002 393.289 210.38 393.148 257.767C393.146 261.494 393.28 265.279 393.053 268.997C392.785 273.394 392.111 277.805 391.65 282.188C391.172 286.748 390.8 291.162 389.846 295.655C396.61 297.76 403.154 300.683 409.558 303.697C467.894 331.051 513.054 380.353 535.197 440.86C536.851 445.442 538.509 450.074 539.89 454.745C540.754 457.665 546.709 480.978 545.883 482.739C543.671 484.537 540.218 485.27 537.526 486.156C524.961 490.293 512.396 493.156 499.386 495.462C485.675 497.892 467.634 499.45 453.746 499.014C450.923 498.925 448.125 498.533 445.311 498.321C439.233 497.865 433.34 497.341 427.295 496.539C393.149 492.004 362.923 482.024 332.963 464.921C325.697 460.774 318.444 456.021 311.683 451.105C308.743 448.966 306.042 446.506 303.055 444.437L302.746 444.227C302.635 444.219 302.518 444.167 302.412 444.204C301.648 444.473 300.01 446.317 299.277 446.896C297.036 448.669 294.561 450.267 292.215 451.903C280.992 459.726 269.435 466.939 257.15 472.996C209.347 496.474 155.324 504.17 102.866 494.974C98.4396 494.208 94.0321 493.334 89.6478 492.354C85.7314 491.445 61.0039 485.182 59.2064 482.6C58.8378 479.486 60.1356 475.577 60.8014 472.53C64.8764 453.874 70.9994 435.251 79.3781 418.06C89.7481 396.798 103.225 377.197 119.365 359.903C121.927 357.109 124.22 354.122 126.921 351.442C129.253 349.128 131.824 347.097 134.271 344.91C136.801 342.649 139.168 340.225 141.775 338.046C162.84 320.441 189.266 304.455 215.238 295.492C214.053 290.7 213.752 285.571 213.25 280.667C212.038 268.828 211.324 256.865 212.006 244.958C212.438 237.417 213.521 229.61 214.498 222.116C215.805 212.084 218.235 201.974 220.965 192.245C231.983 152.152 253.353 115.661 282.93 86.4366C289.077 80.3013 295.399 74.3812 302.304 69.093ZM261.267 283.132C271.321 282.087 281.439 280.605 291.528 280.022C295.543 279.79 299.638 279.922 303.662 279.936C311.868 279.906 319.748 280.523 327.909 281.289C333.672 281.83 339.363 282.273 345.005 283.641C344.861 278.606 345.605 273.845 345.866 268.861C346.273 261.11 346.233 252.459 345.874 244.7C344.238 209.37 331.051 173.526 310.672 144.778C308.038 141.063 305.356 137.259 302.39 133.803L302.169 134.189C299.966 137.973 296.856 141.221 294.356 144.815C289.641 151.717 285.29 158.859 281.321 166.214C268.869 189.934 261.365 215.935 259.265 242.642C258.9 247.961 259.074 253.387 259.084 258.716C259.098 266.145 258.922 273.958 260.746 281.215C260.907 281.858 261.096 282.492 261.267 283.132ZM287.569 326.194C282.653 326.579 277.829 327.594 272.947 328.234C277.212 340.915 286.361 356.185 293.983 367.25C296.762 371.286 299.986 375.088 302.546 379.26C304.535 375.885 307.022 372.795 309.362 369.658C316.969 358.999 321.723 350.921 327.461 339.088C329.132 335.643 331.028 332.18 332.292 328.563C320.962 326.032 310.752 326.031 299.249 326.035C295.412 326.037 291.376 325.795 287.569 326.194ZM336.048 411.664C336.128 411.695 336.208 411.724 336.287 411.757C339.164 412.945 341.856 415.538 344.456 417.311C349.545 420.779 354.741 424.179 360.183 427.064C386.464 440.996 406.518 447.365 435.938 451.54C439.908 452.103 443.966 451.729 447.931 452.285C461.629 454.163 475.596 451.781 489.263 450.712C486.093 444.292 483.346 437.53 479.899 431.268C463.005 399.845 437.965 373.549 407.405 355.14C398.677 349.912 389.581 344.554 379.865 341.339C379.118 341.096 378.356 340.897 377.585 340.744C369.539 362.225 358.494 382.458 344.777 400.843C342.023 404.574 338.858 407.978 336.048 411.664ZM115.709 450.794C129.767 451.683 144.334 454.439 158.356 452.085C181.574 451.406 203.997 445.403 225.353 436.494C232.213 433.632 238.979 430.642 245.417 426.908C250.302 424.074 255.126 420.984 259.766 417.762C262.717 415.714 265.716 413.18 268.863 411.496C264.992 406.488 260.903 401.566 257.222 396.419C249.45 385.55 242.935 374.102 236.79 362.255C235.289 359.362 228.183 341.838 227.167 341.058C226.805 341.053 226.346 341.016 225.988 341.049C217.978 343.38 208.72 348.634 201.453 352.888C169.162 371.389 142.733 398.608 125.191 431.431C121.763 437.718 118.968 444.405 115.709 450.794Z"/>
</svg>
